<svg width="61" height="61" viewBox="0 0 61 61" xmlns="http://www.w3.org/2000/svg"><g id="Page-1" fill="none" fill-rule="evenodd"><g id="Imported-Layers" transform="translate(-98)" fill="#fff"><path d="M128.478.03c-16.592 0-30.043 13.43-30.043 30 0 16.568 13.45 30 30.043 30s30.044-13.432 30.044-30c0-16.57-13.45-30-30.044-30zm13.61 22.566v-6.003l-.782.003-5.224.016.022 6.003 5.985-.02m4.095 3.99v14.5c0 3.773-3.07 6.843-6.845 6.843h-21.723c-3.775 0-6.846-3.07-6.846-6.844V19.357c0-3.773 3.072-6.843 6.847-6.843h21.723c3.775 0 6.845 3.07 6.845 6.843v7.23zm-17.706 9.868c3.436 0 6.233-2.795 6.233-6.232 0-1.356-.44-2.61-1.182-3.634-1.13-1.57-2.97-2.6-5.05-2.6-2.082 0-3.92 1.03-5.054 2.6-.738 1.025-1.18 2.278-1.18 3.635 0 3.438 2.795 6.233 6.233 6.233zm9.68-6.232c0 5.34-4.342 9.685-9.68 9.685-5.34 0-9.685-4.345-9.685-9.684 0-1.284.257-2.51.715-3.634h-5.288v14.498c0 1.873 1.52 3.393 3.395 3.393h21.723c1.874 0 3.395-1.52 3.395-3.393V26.586h-5.288c.456 1.123.714 2.35.714 3.635z" id="insta"/></g></g></svg>