<svg width="253" height="151" viewBox="0 0 253 151" xmlns="http://www.w3.org/2000/svg"><g id="Page-1" fill="none" fill-rule="evenodd"><g id="logo"><path d="M149.716 136.303v9.023h-1.346v-7.11l-1.388 1.036-.673-.902 2.51-2.115.896.068zm2.64 7.232c.35.278.732.483 1.145.612.414.132.836.195 1.267.195.79 0 1.434-.238 1.932-.718s.783-1.193.855-2.136c-.342.288-.73.505-1.165.653-.435.15-.95.223-1.542.223-.512 0-.972-.072-1.38-.215-.41-.143-.757-.345-1.045-.607-.287-.258-.507-.577-.66-.955-.152-.376-.23-.8-.23-1.265 0-.458.09-.885.264-1.28.175-.394.418-.734.727-1.017.31-.283.682-.504 1.118-.666.436-.162.91-.243 1.42-.243 1.23 0 2.176.395 2.836 1.184.66.792.99 1.905.99 3.34 0 .774-.094 1.46-.283 2.063-.19.602-.465 1.11-.828 1.528-.364.418-.808.737-1.334.957-.525.22-1.124.33-1.797.33-.53 0-1.06-.084-1.59-.25-.53-.165-.996-.423-1.4-.774l.7-.955zm5.185-3.245c0-.52-.06-.97-.187-1.348-.126-.377-.3-.69-.52-.935-.22-.248-.48-.43-.78-.546-.3-.116-.63-.174-.99-.174-.323 0-.62.046-.896.14-.273.096-.507.23-.7.405-.192.177-.343.39-.45.64-.11.253-.163.53-.163.836 0 .62.184 1.096.553 1.428.368.332.907.498 1.616.498.476 0 .93-.084 1.36-.25.43-.165.818-.397 1.158-.692zm9.24-3.987v1.198h-4.364l-.175 2.224c.252-.125.527-.224.823-.29.296-.066.638-.1 1.023-.1.467 0 .898.066 1.293.2.395.136.735.333 1.023.595.287.257.512.577.673.954.162.376.243.813.243 1.306 0 .43-.087.837-.257 1.22-.17.38-.413.713-.728.996-.314.283-.702.505-1.164.667-.462.16-.98.242-1.555.242-.7 0-1.322-.11-1.865-.33-.544-.22-1.044-.56-1.502-1.017l.808-.956c.404.404.822.69 1.253.854.43.168.9.25 1.413.25.323 0 .626-.043.91-.128.282-.084.524-.21.726-.377.2-.164.36-.367.477-.605.117-.237.175-.504.175-.8 0-.584-.18-1.047-.538-1.388-.36-.342-.87-.513-1.536-.513-.502 0-.927.053-1.272.156-.346.104-.65.25-.91.438l-.888-.324.404-4.47h5.508zm8.687 9.023h-6.573v-1.13l3.825-2.937c.484-.378.84-.747 1.063-1.105.224-.36.337-.745.337-1.16 0-.51-.17-.92-.512-1.23-.34-.31-.862-.467-1.562-.467-.934 0-1.783.33-2.546.985l-.686-.97c.457-.43.967-.74 1.528-.923.56-.184 1.152-.276 1.77-.276.53 0 1.003.07 1.415.21.413.138.765.334 1.056.585.29.25.51.548.658.894.152.346.227.726.227 1.138 0 .63-.15 1.19-.445 1.676-.296.49-.754.968-1.374 1.437l-2.747 2.06h4.567v1.21zm8.11-4.33h68.474v.962h-68.474v-.962zm-113.107 0h68.474v.962H70.47v-.962z" id="year" fill="#AB9257"/><path d="M3.886 94.565c0 1.998.032 2.81.286 3.054.226.22.77.314 1.87.314.733 0 1.358-.012 1.693-.414.172-.207.287-.493.337-.765.016-.096.063-.177.142-.177.064 0 .098.064.098.207 0 .146-.098.96-.208 1.358-.097.32-.147.368-.896.368-1.005 0-1.79-.015-2.443-.048-.638-.014-1.12-.03-1.536-.03-.064 0-.304 0-.576.016-.288.014-.59.032-.813.032-.145 0-.225-.032-.225-.113 0-.045.034-.112.112-.112.13 0 .305-.032.435-.064.268-.062.3-.315.364-.716.084-.56.084-1.63.084-2.94v-2.398c0-2.11 0-2.493-.037-2.924-.03-.46-.11-.687-.57-.75-.116-.017-.354-.032-.482-.032-.05 0-.11-.066-.11-.11 0-.08.06-.113.222-.113.637 0 1.52.032 1.597.032.064 0 1.12-.033 1.55-.033.142 0 .222.032.222.112 0 .044-.06.09-.11.09-.098 0-.305.02-.463.035-.418.08-.496.29-.532.767-.012.43-.012.815-.012 2.924v2.43zm9.557-6.087c.17-.448.24-.528.335-.528.145 0 .19.193.332.495.257.574 2.51 6.185 3.374 8.245.51 1.214.893 1.39 1.197 1.485.208.064.42.08.56.08.08 0 .177.032.177.112s-.158.113-.318.113c-.212 0-1.248 0-2.224-.032-.272-.015-.494-.015-.494-.096 0-.065.033-.065.094-.097.08-.032.226-.144.128-.366l-1.26-3.116c-.033-.065-.05-.08-.13-.08h-3.24c-.07 0-.117.032-.148.112l-.797 2.172c-.13.335-.21.67-.21.91 0 .27.24.367.48.367h.127c.115 0 .143.048.143.112 0 .08-.076.113-.205.113-.336 0-1.105-.047-1.264-.047-.144 0-.848.047-1.42.047-.176 0-.272-.032-.272-.113 0-.064.064-.112.128-.112.096 0 .304-.016.414-.032.643-.078.91-.558 1.183-1.245l3.31-8.5zm1.564 5.655c.063 0 .063-.032.048-.096l-1.388-3.724c-.08-.206-.16-.206-.24 0l-1.314 3.724c-.013.064 0 .096.048.096h2.847zm56.658 23.22c0-2.11 0-2.495-.03-2.927-.033-.464-.11-.688-.575-.75-.112-.018-.35-.034-.48-.034-.047 0-.11-.063-.11-.112 0-.077.063-.112.224-.112.638 0 1.55.035 1.63.035.16 0 1.053-.035 1.884-.035 1.403 0 3.98-.13 5.64 1.553.7.704 1.374 1.836 1.374 3.45 0 1.71-.736 3.022-1.518 3.82-.606.622-1.87 1.565-4.266 1.565-.61 0-1.358-.05-1.965-.08-.61-.046-1.086-.083-1.15-.083-.035 0-.29.018-.575.018-.288.02-.623.033-.846.033-.146 0-.226-.033-.226-.11 0-.05.033-.115.114-.115.126 0 .302-.03.43-.06.27-.066.305-.322.368-.722.077-.56.077-1.63.077-2.94v-2.394zm1.28 1.468c0 1.437 0 2.702.015 2.954.017.336.05.835.16.976.176.256.672.545 2.334.545 1.294 0 2.444-.433 3.29-1.23.736-.687 1.104-1.983 1.104-3.23 0-1.728-.75-2.828-1.327-3.402-1.325-1.344-2.874-1.518-4.553-1.518-.27 0-.715.047-.846.096-.127.048-.175.11-.175.273v4.538zm11.506-1.468c0-2.11 0-2.496-.03-2.926-.034-.464-.112-.686-.575-.75-.114-.018-.352-.034-.48-.034-.046 0-.113-.063-.113-.112 0-.075.067-.112.225-.112.637 0 1.55.037 1.63.037.094 0 3.036.013 3.355 0 .27-.02.525-.07.64-.085.062-.016.127-.064.19-.064.048 0 .067.064.067.128 0 .096-.082.255-.114.64-.017.128-.05.737-.082.897-.017.063-.063.145-.126.145-.078 0-.114-.07-.114-.178 0-.094-.014-.32-.077-.48-.098-.222-.242-.318-1.008-.415-.24-.03-1.87-.048-2.03-.048-.064 0-.08.048-.08.145v3.688c0 .097 0 .143.08.143.176 0 2.03 0 2.347-.03.335-.032.544-.048.69-.19.095-.098.156-.177.206-.177.048 0 .08.036.08.113 0 .078-.08.303-.112.75-.033.272-.06.783-.06.88 0 .11-.036.253-.13.253-.065 0-.097-.044-.097-.127 0-.126 0-.27-.064-.446-.05-.193-.178-.352-.718-.417-.384-.048-1.886-.063-2.127-.063-.08 0-.096.048-.096.095v1.133c0 .465-.016 2.048 0 2.32.03.91.286 1.085 1.678 1.085.367 0 1.037 0 1.406-.144.367-.16.56-.397.636-.94.033-.16.066-.21.146-.21.08 0 .095.11.095.21 0 .096-.11 1.02-.19 1.307-.097.354-.24.354-.783.354-1.055 0-1.87-.032-2.445-.048-.59-.036-.958-.036-1.164-.036-.032 0-.307 0-.608.018-.272.017-.59.033-.816.033-.143 0-.223-.033-.223-.115 0-.044.033-.112.114-.112.126 0 .3-.046.43-.063.27-.046.304-.32.367-.72.08-.56.08-1.63.08-2.94v-2.393zM22.965 95.736c-2.94-2.635-3.665-6.093-3.665-8.97 0-2.03.693-5.575 3.392-8.272 1.817-1.817 4.576-3.243 9.242-3.243 1.21 0 2.907.092 4.393.362 1.153.213 2.12.397 3.092.457.333.03.39.15.39.33 0 .244-.09.61-.15 1.7-.06 1-.06 2.667-.09 3.12-.03.455-.09.635-.273.635-.21 0-.245-.212-.245-.634 0-1.18-.482-2.426-1.27-3.09-1.06-.908-3.393-1.73-6.06-1.73-4.03 0-5.907 1.183-6.97 2.214-2.212 2.12-2.728 4.82-2.728 7.91 0 5.788 4.455 11.09 10.94 11.09 2.273 0 4.062-.27 5.274-1.515.635-.668 1.03-2 1.12-2.547.06-.333.12-.452.303-.452.15 0 .213.213.213.453 0 .212-.365 2.85-.667 3.882-.18.572-.24.634-.79.876-1.208.485-3.51.698-5.452.698-4.546 0-7.607-1.12-10-3.272zM62.718 91.1c0 2.485.03 4.514.15 5.577.09.756.153 1.243.973 1.363.362.06.97.12 1.182.12.182 0 .24.12.24.21 0 .12-.15.213-.453.213-1.453 0-3.15-.093-3.304-.093-.12 0-1.848.093-2.638.093-.302 0-.42-.057-.42-.212 0-.09.056-.21.21-.21.243 0 .545-.06.787-.12.546-.12.638-.637.73-1.394.12-1.06.12-3 .12-5.486v-2.578c0-.118-.062-.148-.153-.148h-11.12c-.09 0-.152.03-.152.148v2.578c0 2.485 0 4.454.123 5.517.09.756.182 1.243.966 1.363.396.06.97.12 1.213.12.152 0 .213.12.213.21 0 .12-.122.213-.424.213-1.485 0-3.182-.093-3.306-.093-.15 0-1.85.093-2.664.093-.274 0-.423-.057-.423-.212 0-.09.057-.21.21-.21.24 0 .573-.06.82-.12.51-.12.573-.607.694-1.363.154-1.063.154-3.092.154-5.577v-4.547c0-3.997 0-4.725-.064-5.546-.058-.876-.21-1.3-1.09-1.422-.213-.03-.667-.06-.907-.06-.093 0-.214-.122-.214-.215 0-.15.12-.21.424-.21 1.21 0 2.91.06 3.06.06.123 0 1.82-.06 2.638-.06.302 0 .422.06.422.21 0 .093-.12.215-.207.215-.186 0-.367 0-.67.06-.727.15-.88.513-.94 1.422-.03.82-.03 1.61-.03 5.607v.548c0 .148.06.148.152.148h11.12c.09 0 .152 0 .152-.148v-.548c0-3.998-.03-4.786-.06-5.607-.06-.876-.183-1.3-1.06-1.422-.212-.03-.67-.06-.912-.06-.12 0-.21-.122-.21-.215 0-.15.12-.21.425-.21 1.18 0 2.91.06 3.03.06.152 0 1.85-.06 2.634-.06.305 0 .457.06.457.21 0 .093-.122.215-.243.215-.18 0-.333 0-.665.06-.7.15-.85.513-.91 1.422-.062.82-.062 1.55-.062 5.546V91.1zM79.23 78.734c6.002 0 10.546 3.67 10.546 9.668 0 5.76-4.275 10.515-10.697 10.515-7.304 0-10.428-5.484-10.428-10.122 0-4.15 3.214-10.06 10.58-10.06zm.605 19.12c2.397 0 7.213-1.27 7.213-8.723 0-6.182-3.757-9.425-7.97-9.425-4.454 0-7.665 2.79-7.665 8.393 0 6.003 3.604 9.757 8.422 9.757zm16.545-1.692c-2.606-2.244-3.243-5.186-3.243-7.637 0-1.727.637-4.73 3-7.034 1.606-1.543 4.03-2.756 8.12-2.756 1.062 0 2.577.092 3.878.304 1 .183 1.85.365 2.727.396.274 0 .335.12.335.27 0 .212-.06.514-.12 1.455-.03.848-.03 2.273-.063 2.636-.028.395-.152.545-.304.545-.18 0-.21-.18-.21-.544 0-1-.424-2.033-1.122-2.573-.94-.79-2.88-1.425-5.242-1.425-3.424 0-5.06.907-6 1.786-1.97 1.818-2.394 4.12-2.394 6.726 0 4.94 3.91 9.337 9.608 9.337 2 0 3.33-.154 4.394-1.213.577-.576.936-1.67 1.026-2.153.064-.273.092-.362.277-.362.12 0 .242.182.242.363 0 .18-.365 2.427-.64 3.303-.15.49-.21.576-.666.758-1.09.425-3.09.58-4.817.58-4 0-6.698-.94-8.787-2.758zm28.512-17.428c6 0 10.548 3.67 10.548 9.668 0 5.76-4.277 10.515-10.698 10.515-7.304 0-10.426-5.484-10.426-10.122 0-4.15 3.213-10.06 10.576-10.06zm.607 19.12c2.39 0 7.21-1.27 7.21-8.723 0-6.182-3.758-9.425-7.968-9.425-4.457 0-7.667 2.79-7.667 8.393 0 6.003 3.605 9.757 8.424 9.757zm17.935-6.694c0 3.79.06 5.334.545 5.788.423.422 1.453.607 3.543.607 1.395 0 2.577-.032 3.213-.79.335-.39.546-.94.638-1.453.03-.182.12-.334.27-.334.123 0 .183.123.183.396 0 .272-.182 1.817-.393 2.576-.183.603-.274.693-1.698.693-1.907 0-3.393-.03-4.633-.09-1.215-.03-2.123-.06-2.908-.06-.124 0-.578 0-1.094.03-.546.03-1.117.064-1.544.064-.274 0-.426-.064-.426-.214 0-.09.06-.214.214-.214.243 0 .575-.06.818-.12.514-.12.576-.605.696-1.363.152-1.063.152-3.092.152-5.577v-4.547c0-3.997 0-4.725-.06-5.546-.062-.878-.212-1.302-1.09-1.424-.214-.028-.67-.058-.91-.058-.092 0-.213-.122-.213-.215 0-.152.12-.21.425-.21 1.21 0 2.877.058 3.033.058.118 0 2.12-.06 2.938-.06.27 0 .424.06.424.212 0 .093-.124.184-.215.184-.18 0-.576.03-.878.06-.787.15-.94.547-.998 1.453-.03.82-.03 1.55-.03 5.546v4.607zm18.118-11.546c.33-.846.454-1 .634-1 .277 0 .367.364.637.94.486 1.09 4.757 11.726 6.394 15.636.973 2.303 1.698 2.635 2.272 2.82.396.12.79.15 1.06.15.153 0 .336.063.336.21 0 .153-.303.215-.606.215-.394 0-2.365 0-4.214-.062-.515-.03-.937-.03-.937-.182 0-.117.06-.117.18-.18.153-.06.423-.273.24-.697l-2.39-5.907c-.064-.124-.09-.152-.245-.152h-6.15c-.123 0-.214.06-.273.21l-1.515 4.12c-.242.638-.395 1.272-.395 1.73 0 .515.455.695.912.695h.242c.21 0 .272.09.272.21 0 .153-.154.215-.394.215-.637 0-2.09-.093-2.395-.093-.274 0-1.606.093-2.694.093-.336 0-.518-.062-.518-.214 0-.12.12-.21.24-.21.188 0 .577-.03.79-.06 1.21-.152 1.726-1.06 2.24-2.366l6.275-16.12zm2.967 10.73c.126 0 .126-.06.094-.185l-2.64-7.06c-.146-.394-.3-.394-.453 0l-2.482 7.06c-.028.123 0 .184.09.184h5.392zm15.758.756c0 2.485 0 4.514.12 5.577.095.756.213 1.243 1.03 1.363.365.06.97.12 1.214.12.18 0 .21.12.21.21 0 .12-.12.213-.426.213-1.45 0-3.15-.093-3.297-.093-.123 0-1.976.093-2.76.093-.306 0-.427-.057-.427-.212 0-.09.06-.18.213-.18.243 0 .544-.06.79-.118.544-.122.696-.64.786-1.395.12-1.063.12-3.092.12-5.577V80.28l-3.848.063c-1.665.028-2.303.212-2.695.816-.305.455-.337.637-.427.817-.06.215-.15.244-.273.244-.06 0-.18-.06-.18-.212 0-.272.512-2.575.575-2.79.03-.15.184-.484.274-.484.18 0 .454.212 1.177.304.757.092 1.792.122 2.093.122h10.063c.875 0 1.484-.06 1.91-.122.39-.058.633-.12.755-.12.12 0 .12.15.12.3 0 .79-.092 2.637-.092 2.942 0 .21-.12.334-.24.334-.123 0-.183-.093-.213-.454l-.03-.277c-.09-.784-.665-1.36-3.213-1.42l-3.332-.062V91.1zm12.664-4.547c0-3.997 0-4.725-.06-5.546-.06-.878-.214-1.302-1.09-1.424-.215-.03-.67-.058-.91-.058-.09 0-.21-.122-.21-.215 0-.152.12-.21.42-.21 1.215 0 2.938.058 3.092.058.183 0 5.76.032 6.363 0 .514-.028 1-.12 1.21-.15.123-.03.247-.122.37-.122.087 0 .117.122.117.244 0 .18-.15.484-.21 1.213-.03.24-.092 1.393-.154 1.697-.03.12-.123.272-.243.272-.15 0-.21-.122-.21-.332 0-.185-.032-.61-.153-.91-.183-.425-.455-.607-1.908-.787-.456-.065-3.546-.092-3.852-.092-.117 0-.15.093-.15.273v7c0 .18 0 .27.15.27.337 0 3.852 0 4.46-.06.635-.058 1.026-.086 1.3-.36.183-.185.304-.335.394-.335.09 0 .15.06.15.212s-.15.577-.21 1.424c-.06.517-.12 1.485-.12 1.667 0 .216-.06.488-.245.488-.12 0-.182-.092-.182-.244 0-.243 0-.517-.12-.85-.09-.363-.33-.665-1.363-.788-.727-.09-3.576-.12-4.028-.12-.153 0-.185.09-.185.18V91.1c0 .878-.03 3.878 0 4.394.06 1.726.546 2.06 3.184 2.06.692 0 1.97 0 2.663-.273.695-.302 1.06-.755 1.21-1.786.063-.304.127-.393.274-.393.152 0 .182.212.182.394 0 .182-.214 1.94-.363 2.483-.183.666-.455.666-1.484.666-2 0-3.548-.058-4.636-.09-1.124-.06-1.82-.06-2.213-.06-.06 0-.576 0-1.152.03-.516.03-1.12.062-1.544.062-.274 0-.427-.062-.427-.214 0-.087.062-.21.216-.21.242 0 .574-.09.815-.12.516-.092.578-.605.702-1.363.15-1.063.15-3.092.15-5.577v-4.547zm16.695 0c0-3.997 0-4.725-.063-5.546-.06-.878-.208-1.302-1.09-1.424-.212-.03-.666-.058-.908-.058-.092 0-.212-.122-.212-.215 0-.152.12-.21.422-.21 1.213 0 3.003.058 3.153.058.27 0 2.514-.06 3.335-.06 1.695 0 3.575.152 4.963 1.12.672.49 1.85 1.73 1.85 3.517 0 1.91-.787 3.757-3.27 5.88 2.183 2.727 4.027 5.06 5.573 6.668 1.427 1.452 2.305 1.694 2.974 1.786.513.09.79.09.938.09.15 0 .242.123.242.21 0 .153-.152.215-.636.215h-1.666c-1.516 0-2.182-.154-2.85-.516-1.15-.605-2.12-1.847-3.636-3.79-1.122-1.392-2.302-3.06-2.877-3.756-.12-.12-.185-.152-.365-.152l-3.395-.063c-.122 0-.182.062-.182.214v.606c0 2.485 0 4.484.12 5.547.094.758.246 1.243 1.062 1.363.364.06.94.12 1.183.12.182 0 .212.123.212.21 0 .122-.122.215-.426.215-1.456 0-3.15-.093-3.273-.093-.028 0-1.818.093-2.636.093-.272 0-.424-.062-.424-.214 0-.087.062-.21.214-.21.24 0 .574-.06.818-.12.515-.12.578-.605.697-1.363.152-1.063.152-3.092.152-5.577v-4.547zm2.3 2.183c0 .15.06.243.183.335.394.21 1.758.394 2.94.394.635 0 1.367-.033 1.998-.455.91-.608 1.61-1.972 1.61-3.94 0-3.215-1.76-5.063-4.61-5.063-.786 0-1.634.09-1.906.152-.123.058-.214.153-.214.303v8.273zm20.485 2.364c0 2.485 0 4.514.12 5.577.092.756.182 1.243.968 1.363.397.06.973.12 1.215.12.15 0 .212.12.212.21 0 .12-.122.213-.422.213-1.49 0-3.216-.093-3.334-.093-.153 0-1.82.093-2.637.093-.273 0-.423-.057-.423-.212 0-.09.06-.21.21-.21.243 0 .574-.06.82-.12.514-.12.605-.607.695-1.363.12-1.063.15-3.092.15-5.577v-4.547c0-3.997 0-4.725-.06-5.546-.06-.876-.27-1.272-.846-1.393-.305-.06-.638-.09-.82-.09-.122 0-.212-.12-.212-.214 0-.15.122-.21.423-.21.88 0 2.547.06 2.7.06.12 0 1.846-.06 2.667-.06.3 0 .424.06.424.21 0 .093-.123.215-.212.215-.18 0-.363 0-.668.06-.726.15-.877.513-.937 1.422-.03.82-.03 1.55-.03 5.546V91.1zm8.756-4.547c0-3.997 0-4.725-.06-5.546-.062-.878-.214-1.302-1.09-1.424-.213-.03-.667-.058-.91-.058-.09 0-.213-.122-.213-.215 0-.152.122-.21.424-.21 1.21 0 2.938.058 3.092.058.18 0 5.755.032 6.363 0 .51-.028.998-.12 1.21-.15.12-.03.243-.122.365-.122.09 0 .12.122.12.244 0 .18-.15.484-.21 1.213-.032.24-.092 1.393-.154 1.697-.03.12-.122.272-.242.272-.15 0-.21-.122-.21-.332 0-.185-.03-.61-.153-.91-.183-.425-.453-.607-1.908-.787-.456-.065-3.546-.092-3.85-.092-.122 0-.15.093-.15.273v7c0 .18 0 .27.15.27.334 0 3.85 0 4.455-.06.636-.058 1.03-.086 1.304-.36.183-.185.303-.335.393-.335.09 0 .154.06.154.212s-.154.577-.21 1.424c-.064.517-.123 1.485-.123 1.667 0 .216-.06.488-.245.488-.123 0-.184-.092-.184-.244 0-.243 0-.517-.12-.85-.09-.363-.333-.665-1.364-.788-.725-.09-3.575-.12-4.028-.12-.154 0-.183.09-.183.18V91.1c0 .878-.03 3.878 0 4.394.06 1.726.547 2.06 3.182 2.06.7 0 1.97 0 2.665-.273.7-.302 1.062-.755 1.214-1.786.064-.304.124-.393.274-.393.154 0 .183.212.183.394 0 .182-.214 1.94-.366 2.483-.178.666-.45.666-1.483.666-2 0-3.545-.058-4.635-.09-1.12-.06-1.82-.06-2.21-.06-.06 0-.576 0-1.153.03-.518.03-1.125.062-1.55.062-.268 0-.42-.062-.42-.214 0-.087.06-.21.214-.21.24 0 .57-.09.813-.12.516-.092.577-.605.7-1.363.15-1.063.15-3.092.15-5.577v-4.547zM95.32 109.456c0-4.725 0-5.575-.06-6.542-.06-1.034-.304-1.517-1.305-1.73-.24-.06-.756-.09-1.03-.09-.12 0-.24-.06-.24-.183 0-.18.152-.242.484-.242 1.363 0 3.178.093 3.424.093.667 0 2.422-.092 3.818-.092 3.787 0 5.15 1.276 5.636 1.73.667.633 1.514 2 1.514 3.605 0 4.302-3.15 7.21-7.453 7.21-.155 0-.49 0-.637-.03-.154 0-.333-.057-.333-.21 0-.244.18-.272.815-.272 2.94 0 5.244-2.15 5.244-4.94 0-1-.09-3.03-1.7-4.664-1.605-1.64-3.452-1.518-4.15-1.518-.515 0-1.03.063-1.3.18-.18.062-.246.274-.246.577v12.458c0 2.907 0 5.3.154 6.572.09.88.27 1.547 1.182 1.67.424.06 1.09.12 1.363.12.183 0 .242.09.242.18 0 .152-.153.244-.485.244-1.667 0-3.576-.093-3.726-.093-.094 0-2 .092-2.91.092-.332 0-.483-.064-.483-.244 0-.092.06-.18.24-.18.275 0 .64-.06.91-.122.606-.122.76-.79.878-1.67.152-1.27.152-3.664.152-6.57v-5.338zm18.27 2.092c0-4 0-4.727-.06-5.545-.06-.88-.21-1.302-1.09-1.424-.214-.032-.666-.062-.907-.062-.094 0-.214-.12-.214-.212 0-.152.12-.212.422-.212 1.213 0 3.002.06 3.153.06.274 0 2.516-.06 3.332-.06 1.7 0 3.576.152 4.97 1.12.667.485 1.85 1.728 1.85 3.516 0 1.91-.79 3.757-3.274 5.878 2.182 2.728 4.03 5.06 5.575 6.668 1.425 1.455 2.302 1.697 2.97 1.788.515.09.787.09.94.09.15 0 .24.12.24.212 0 .152-.15.213-.634.213h-1.668c-1.514 0-2.183-.154-2.847-.516-1.153-.607-2.122-1.85-3.638-3.79-1.12-1.394-2.303-3.06-2.88-3.754-.12-.12-.18-.153-.363-.153l-3.394-.062c-.12 0-.182.062-.182.215v.605c0 2.484 0 4.485.124 5.54.09.76.24 1.245 1.057 1.365.366.065.942.125 1.183.125.18 0 .21.12.21.21 0 .122-.12.214-.423.214-1.452 0-3.15-.093-3.272-.093-.03 0-1.818.092-2.637.092-.272 0-.424-.062-.424-.214 0-.092.062-.21.215-.21.238 0 .573-.06.814-.126.517-.12.58-.604.7-1.365.15-1.055.15-3.085.15-5.575v-4.542zm2.304 2.183c0 .152.062.244.182.333.394.213 1.757.395 2.94.395.636 0 1.363-.032 2-.456.907-.605 1.605-1.968 1.605-3.94 0-3.21-1.757-5.06-4.603-5.06-.79 0-1.64.093-1.91.152-.123.06-.213.15-.213.302v8.275zm26.026-10c6 0 10.546 3.665 10.546 9.67 0 5.755-4.27 10.51-10.697 10.51-7.304 0-10.424-5.482-10.424-10.12 0-4.15 3.212-10.06 10.574-10.06zm.607 19.12c2.393 0 7.212-1.272 7.212-8.726 0-6.18-3.76-9.426-7.97-9.426-4.457 0-7.667 2.79-7.667 8.396 0 6 3.606 9.757 8.424 9.757zm21.906-2.635c1.544-3.453 5.03-12.24 5.606-14.092.12-.393.245-.757.245-.97 0-.21-.094-.455-.366-.542-.304-.092-.608-.092-.91-.092-.152 0-.304-.092-.304-.214 0-.15.18-.21.606-.21 1.06 0 2.27.06 2.608.06.152 0 1.303-.06 2.088-.06.274 0 .423.06.423.18 0 .124-.088.244-.3.244-.18 0-.787 0-1.273.304-.364.242-.785.603-1.484 2.36-.303.73-1.603 3.818-2.966 6.973-1.64 3.757-2.818 6.545-3.426 7.817-.728 1.544-.878 1.94-1.154 1.94-.3 0-.484-.333-.998-1.576l-6.545-15.787c-.606-1.457-.97-1.728-1.85-1.94-.422-.092-.877-.092-1.027-.092-.152 0-.217-.152-.217-.244 0-.152.275-.18.7-.18 1.27 0 2.784.06 3.12.06.27 0 1.456-.06 2.485-.06.486 0 .725.06.725.18 0 .124-.09.244-.268.244-.305 0-.73.032-.972.122-.274.12-.305.272-.305.453 0 .332.337 1.122.73 2.15l5.028 12.972zm13.94-8.665c0-4.002 0-4.73-.066-5.547-.06-.88-.21-1.302-1.085-1.424-.216-.03-.67-.062-.912-.062-.09 0-.213-.12-.213-.212 0-.152.122-.212.426-.212 1.21 0 2.94.06 3.09.06.18 0 5.755.03 6.364 0 .517-.028 1.003-.12 1.212-.152.12-.028.24-.12.362-.12.09 0 .122.12.122.244 0 .18-.152.483-.214 1.208-.03.244-.09 1.395-.15 1.7-.03.118-.12.272-.24.272-.155 0-.217-.123-.217-.33 0-.185-.027-.61-.15-.913-.178-.425-.454-.607-1.908-.787-.454-.06-3.548-.092-3.847-.092-.122 0-.153.092-.153.272v7c0 .183 0 .273.153.273.33 0 3.847 0 4.45-.06.64-.06 1.034-.093 1.305-.364.182-.183.302-.332.396-.332.09 0 .15.06.15.212s-.15.57-.213 1.424c-.057.516-.122 1.483-.122 1.666 0 .21-.062.484-.24.484-.122 0-.18-.088-.18-.24 0-.244 0-.517-.125-.85-.09-.364-.332-.668-1.362-.788-.727-.092-3.575-.122-4.03-.122-.152 0-.183.09-.183.182v2.148c0 .882-.03 3.88 0 4.398.06 1.727.548 2.06 3.18 2.06.7 0 1.97 0 2.67-.274.694-.3 1.06-.757 1.21-1.786.06-.303.12-.395.274-.395.148 0 .18.212.18.395 0 .182-.212 1.938-.364 2.485-.182.666-.457.666-1.487.666-1.997 0-3.542-.06-4.637-.092-1.118-.06-1.815-.06-2.21-.06-.06 0-.575 0-1.15.03-.515.03-1.12.06-1.548.06-.272 0-.422-.06-.422-.212 0-.092.06-.214.21-.214.243 0 .58-.088.818-.12.517-.09.578-.606.698-1.365.154-1.057.154-3.087.154-5.577v-4.54zm17.813 8.513c.06 2.12.306 2.76 1.03 2.94.484.122 1.093.152 1.333.152.122 0 .213.09.213.21 0 .153-.182.214-.483.214-1.516 0-2.58-.093-2.82-.093-.24 0-1.364.092-2.576.092-.274 0-.425-.032-.425-.214 0-.12.09-.21.212-.21.212 0 .697-.03 1.092-.153.666-.18.756-.877.756-3.213v-14.758c0-1.03.15-1.303.363-1.303.306 0 .755.516 1.03.788.425.425 4.304 4.546 8.423 8.788 2.64 2.727 5.485 5.79 6.305 6.635l-.273-12.905c-.03-1.67-.18-2.244-.997-2.396-.487-.09-1.094-.122-1.304-.122-.18 0-.214-.152-.214-.244 0-.148.214-.18.514-.18 1.215 0 2.487.06 2.79.06.304 0 1.18-.06 2.272-.06.274 0 .484.032.484.18 0 .092-.12.244-.3.244-.126 0-.336 0-.637.06-.877.183-.942.698-.942 2.243l-.06 15.092c0 1.7-.03 1.847-.21 1.847-.275 0-.546-.212-2.032-1.576-.27-.242-4.12-4.03-6.94-6.97-3.09-3.24-6.088-6.395-6.907-7.303l.303 12.153zm23.906 1.09c-2.602-2.24-3.24-5.18-3.24-7.634 0-1.73.638-4.73 3-7.032 1.604-1.545 4.03-2.76 8.12-2.76 1.06 0 2.577.093 3.878.305 1.003.18 1.848.365 2.728.395.27 0 .33.12.33.273 0 .215-.06.515-.12 1.453-.03.85-.03 2.275-.06 2.638-.03.394-.15.546-.303.546-.18 0-.21-.183-.21-.545 0-1-.427-2.03-1.12-2.575-.943-.79-2.88-1.424-5.248-1.424-3.423 0-5.06.913-5.995 1.79-1.97 1.815-2.395 4.12-2.395 6.726 0 4.938 3.91 9.335 9.606 9.335 2.003 0 3.333-.153 4.393-1.215.575-.572.94-1.664 1.032-2.148.06-.272.09-.364.27-.364.12 0 .242.18.242.364 0 .18-.36 2.422-.634 3.302-.152.484-.213.575-.668.758-1.09.42-3.09.575-4.817.575-4 0-6.696-.94-8.788-2.76zm21.242-9.603c0-4.002 0-4.73-.063-5.547-.058-.88-.21-1.302-1.09-1.424-.21-.03-.666-.062-.907-.062-.094 0-.212-.12-.212-.212 0-.152.12-.212.423-.212 1.212 0 2.94.06 3.09.06.182 0 5.76.03 6.366 0 .51-.028.997-.12 1.21-.152.12-.028.242-.12.366-.12.09 0 .12.12.12.244 0 .18-.152.483-.22 1.208-.024.244-.085 1.395-.146 1.7-.03.118-.12.272-.24.272-.153 0-.214-.123-.214-.33 0-.185-.03-.61-.153-.913-.18-.425-.45-.607-1.907-.787-.456-.06-3.546-.092-3.848-.092-.124 0-.154.092-.154.272v7c0 .183 0 .273.154.273.333 0 3.848 0 4.455-.06.63-.06 1.028-.093 1.3-.364.185-.183.305-.332.396-.332.09 0 .15.06.15.212s-.15.57-.21 1.424c-.063.516-.123 1.483-.123 1.666 0 .21-.06.484-.242.484-.122 0-.185-.088-.185-.24 0-.244 0-.517-.12-.85-.09-.364-.336-.668-1.36-.788-.73-.092-3.577-.122-4.034-.122-.152 0-.182.09-.182.182v2.148c0 .882-.03 3.88 0 4.398.06 1.727.547 2.06 3.187 2.06.694 0 1.965 0 2.665-.274.695-.3 1.06-.757 1.21-1.786.06-.303.123-.395.273-.395.154 0 .183.212.183.395 0 .182-.212 1.938-.365 2.485-.18.666-.452.666-1.485.666-2 0-3.542-.06-4.63-.092-1.125-.06-1.82-.06-2.216-.06-.06 0-.577 0-1.15.03-.516.03-1.123.06-1.544.06-.276 0-.427-.06-.427-.212 0-.092.06-.214.215-.214.24 0 .57-.088.815-.12.514-.09.577-.606.697-1.365.154-1.057.154-3.087.154-5.577v-4.54z" id="text" fill="#442C1D"/><path d="M22.083 70.898c-1.2-.57-2.03-1.332-2.908-2.14-.575-.527-1.17-1.073-1.907-1.612-1.11-.808-2.254-1.125-3.362-1.43-.782-.217-1.59-.44-2.38-.837-1.02-.514-2.063-1.592-3.168-2.735-2.263-2.34-4.827-4.992-8.052-3.45l.31.65c2.758-1.318 5.028 1.03 7.223 3.302 1.148 1.187 2.233 2.31 3.362 2.877.853.43 1.697.662 2.512.887 1.094.304 2.127.588 3.128 1.32.706.515 1.285 1.046 1.844 1.56.716.657 1.406 1.283 2.285 1.82.463-.034.924-.066 1.385-.098-.09-.04-.185-.072-.272-.114zm177.206.676c-6.222-7.776-17.57-8.348-26.365-9.83-2.308-.375-12.632-1.81-17.49-4.582-1.627-.926-2.53-1.947-2.506-2.927 0-.45.16-.943.58-1.525.243-.395 1.61-1.042 3.47-1.515 1.86-.507 4.246-.946 6.686-1.316 2.917-.437 5.927-.767 8.263-.965.923-.38 1.896-.77 2.915-1.174-3.497.137-12.73 1.06-18.122 2.507-1.933.54-3.347 1.047-4.012 1.887-.5.7-.762 1.407-.762 2.1.018 1.593 1.287 2.8 3 3.778 1.738.987 4.028 1.78 6.41 2.43 4.754 1.3 9.886 2.015 11.403 2.268 8.907 1.458 19.964 2.143 25.762 9.48.037.047.067.093.102.14h1.217c-.17-.255-.353-.507-.55-.756zm-24.23-4.788c-5.275-2.117-11.382-3.22-14.804-4.125-3.325-.874-18.802-3.228-26.24-6.543-2.5-1.08-3.928-2.342-3.857-3.22.004-.207.05-.41.182-.65.818-1.75 6.716-3.116 13.675-3.686 6.976-.62 15.098-.717 20.773-.717 2.415 0 4.38.015 5.638.015v-.98c-1.246 0-3.223-.015-5.638-.015-5.688 0-13.827.092-20.86.726-7.053.69-12.914 1.65-14.447 4.188-.198.36-.304.738-.304 1.12.073 1.762 1.908 2.96 4.44 4.117 2.56 1.137 5.983 2.148 9.533 3.03 7.084 1.758 14.742 2.997 16.847 3.562 3.493.924 9.54 2.02 14.695 4.09 2.984 1.2 5.605 2.706 7.292 4.632h1.26c-1.807-2.443-4.865-4.208-8.187-5.544zm-34.752 2.45c-1.618-.196-2.366-.585-4.455-1.368-3.238-1.187-6.367-.276-9.22-1.168-2.656-.8-4.23-1.678-7.183-1.773-2.658-.085-5.2-.115-7.86-.673-3.062-.633-3.965-2.13-6.72-3.546-3.39-1.706-7.693-1.086-11.075-1.607-7.103-1.067-15.174-1.714-22.495-1.714-.476 0-.95 0-1.416.007h-.218c-4.263.002-8.15-1.484-12.454-3.07-2.35-.827-6.116-4.28-9.562-4.322-.84-.003-1.687.226-2.437.77l.574.797c.582-.418 1.184-.585 1.863-.585 2.834-.042 6.587 3.253 9.225 4.263 4.29 1.572 8.293 3.128 12.79 3.135.08 0 .155 0 .23-.007.466-.007.936-.007 1.405-.007 7.263 0 15.297.643 22.348 1.702 3.593.523 7.8-.027 10.778 1.51 2.51 1.26 3.59 2.92 6.97 3.637 2.772.584 5.38.608 8.024.693 2.74.085 4.155.884 6.93 1.728 3.227.953 6.317.06 9.16 1.15 2.023.757 2.915 1.213 4.68 1.423 2.807.347 5.11.776 7.202 2.12h1.655c-2.58-2.118-5.445-2.7-8.74-3.094zm16.547-1.498c-1.934-1.898-3.106-4.253-6.57-5.084-.49-.116-.963-.164-1.412-.164-1.157.007-2.17.266-3.09.257-.358 0-.696-.034-1.035-.12-2.2-.585-4.166-2.6-7.04-3.287-2.29-.53-4.226-1.437-6.556-2.09-1.03-.287-2.037-.374-3.02-.374-1.608 0-3.152.225-4.68.225-.413 0-.827-.017-1.242-.054-2.113-.184-3.833-1.484-6.19-1.824-1.23-.157-2.863-.228-4.506-.228-1.636 0-3.26.07-4.455.204-1.624.187-2.295.487-3.223.48-.39 0-.844-.044-1.457-.17-2.577-.538-3.945-.776-6.74-.786-2.102 0-2.973-.712-5.11-1.223-.694-.162-1.36-.222-2.01-.222-1.7.008-3.24.385-4.833.385-.146 0-.288 0-.432-.007-3.158-.13-5.676-1.405-9.17-1.415-.25 0-.505.008-.77.025-.335.016-.67.027-1.008.027-2.542 0-5.094-.49-7.708-.494-.443 0-.895.018-1.348.05l.078.982c.42-.032.847-.045 1.27-.045 2.486-.006 5.042.483 7.707.487.35 0 .71-.013 1.07-.032.236-.013.472-.02.707-.02 3.225-.007 5.717 1.25 9.13 1.416h.473c1.747 0 3.29-.38 4.832-.374.592 0 1.177.054 1.79.194 1.922.435 2.957 1.236 5.325 1.248 2.744.008 3.965.225 6.545.763.662.136 1.186.198 1.657.198 1.167-.014 1.83-.33 3.33-.493 1.14-.127 2.745-.202 4.347-.202 1.61 0 3.224.075 4.373.23 2.042.25 3.78 1.564 6.23 1.82.452.04.896.06 1.335.06 1.622 0 3.164-.225 4.68-.225.92 0 1.836.083 2.756.342 2.228.622 4.185 1.53 6.602 2.095 2.53.572 4.447 2.55 7 3.274.438.123.873.163 1.293.163 1.08-.007 2.085-.258 3.09-.256.39 0 .778.038 1.18.133 3.05.722 4.02 2.743 6.11 4.825 2.504 2.376 5.84 2.152 8.035 3.897h1.404c-2.643-2.87-6.517-2.296-8.747-4.592zm-64.725.348c-4.26-.977-9.206-.763-13.26-1.804-1.59-.377-2.905-1.708-4.88-2.114-2.826-.52-4.068.268-6.43-1.132-2.28-1.315-3.593-3.24-6.6-3.836-2.033-.388-3.282-.214-5.233-.902-4.103-1.442-8.128-2.056-12.476-2.526-3.52-.367-6.562-2.17-10.306-2.974l-.205.96c3.54.742 6.618 2.576 10.407 2.992 4.322.463 8.262 1.072 12.258 2.475 2.143.748 3.51.57 5.37.938 2.603.49 3.794 2.232 6.288 3.72 2.72 1.583 4.293.75 6.743 1.242 1.602.286 2.9 1.6 4.82 2.11 4.262 1.076 9.213.86 13.286 1.805 2.823.653 6.385 2.002 9.41 3.29h2.442c-3.358-1.52-8.02-3.402-11.634-4.244zM54.454 72.33c-3.11-1.148-6.173-2.375-9.112-3.714-4.857-2.197-9-2.534-13.08-5.778-3.673-2.907-7.236-3.43-11.54-4.55l-.246.954c4.386 1.125 7.724 1.628 11.176 4.365 4.34 3.43 8.626 3.77 13.285 5.908 2.196 1 4.468 1.923 6.764 2.814h2.754zM52.3 105.9c.946.78 1.846 1.3 2.502 3.414.287.95.402 1.82.402 2.665.007 2.594-1.11 4.935-1.678 7.813l-.08.417.393.14c.53.186.795.72.806 1.643.003 1.076-.44 2.49-1.096 3.62-.64 1.14-1.527 1.92-2.12 1.944l-.415.037-.03.412c-.147 1.848-1.318 2.85-2.996 3.584-1.664.713-3.734 1.037-5.347 1.415-2.25.54-4.023 1.41-6.097 1.99-.637.182-1.345.223-2.064.223-.42 0-.844-.007-1.258-.007-.79 0-1.565.034-2.27.344v.004l.398.893c.466-.204 1.116-.266 1.872-.266.398 0 .82.013 1.258.013.75 0 1.55-.038 2.332-.257 2.182-.62 3.937-1.478 6.057-1.98 1.55-.37 3.68-.69 5.512-1.468 1.714-.718 3.242-1.96 3.54-4.044 1.01-.3 1.826-1.24 2.48-2.348.728-1.262 1.22-2.78 1.224-4.107.014-.94-.28-1.893-1.066-2.376.552-2.58 1.614-4.895 1.624-7.636 0-.93-.126-1.912-.442-2.947-.696-2.355-1.947-3.185-2.822-3.893-.077-.066-.15-.13-.22-.193H51.35c.285.392.613.695.95.955zm197.146-45.814l-.19-.96c-10.798 2.125-22.454 7.5-32.8 13.2h2.057c9.897-5.348 20.84-10.26 30.933-12.24zm-2.223 5.343l-.25-.95c-4.058 1.062-11.068 4.26-17.653 7.85h2.083c6.057-3.21 12.236-5.98 15.82-6.9zm-221.84 85.32c-.048-.364-.07-.72-.07-1.072-.03-4.718 4.2-9.186 8.153-11.475l1.24-.726-1.424-.185c-.142-.023-.285-.023-.436-.023-.746 0-1.67.12-2.435.12-.473.007-.88-.052-1.062-.148-.75-.362-1.048-.62-1.07-.663.013-.09.197-.507.208-1.12 0-.17-.018-.348-.053-.548-.126-.757-.248-2.047-.248-3.337-.01-1.466.18-2.97.564-3.624l-.818-.54c-1.272 1.73-1.63 4.09-3.024 5.078-2.926-2.157-4.363-6.102-6.373-9.27-.002-.005-.006-.012-.01-.014h-.003s-.005-.012-.008-.014l-.438.272-.46-.012v.005s0 .007-.01.023c.015 5.477 3.03 8.28 4.87 12.636.646 1.522.867 2.946.867 4.353.007 2.766-.878 5.502-1.055 8.625l-.008.002.99.053c.158-2.966 1.053-5.702 1.053-8.68 0-1.51-.24-3.08-.946-4.735-1.687-3.934-3.998-6.407-4.623-10.206 1.548 2.8 3.037 6.004 5.86 7.96l.256.175.265-.158c1.024-.61 1.61-1.552 2.075-2.52-.006.193-.006.393-.006.593 0 1.355.124 2.675.266 3.502.018.15.034.274.034.382.005.464-.172.62-.207 1.135-.01.308.177.632.438.83.266.21.62.416 1.174.697.457.213.967.248 1.5.25.348 0 .704-.018 1.045-.04-3.638 2.567-7.098 6.667-7.124 11.346 0 .4.027.798.075 1.194l.978-.12zM96.25 46.296C78.405 34.82 51.696 24.228 12.306 15.335l-.22.958C51.41 25.173 78.02 35.735 95.723 47.12l.53-.825zm-12.293.832c-23.3-13.02-47.914-22.433-73.754-28.83l-.242.96c25.77 6.368 50.294 15.75 73.516 28.723l.48-.853zm-12.27 1.27l-.49.854c-18.944-10.854-38.84-18.788-59.952-23.648l.213-.956c21.216 4.873 41.202 12.85 60.228 23.75zM59.43 49.68C43.75 39.864 26.69 32.45 8.475 29.295l-.172.972C26.37 33.396 43.31 40.75 58.907 50.51l.524-.83zm-15.61.03C33.007 40.95 16.647 37.54 4.763 32.71l-.37.913c12.013 4.856 28.28 8.294 38.814 16.852l.61-.76zm-10.197.392c-9.02-5.882-20.827-11.356-31.502-13.19l-.16.97c10.474 1.795 22.2 7.22 31.127 13.048l.536-.828zM25.03 53.46v-.006.005zM181.035 8.74l-.068-.14c-4.143 2.103-8.11 4.335-12.415 5.946-1.135.427-1.838.9-2.754 1.58l.075.1c-.27.053-.53.122-.782.21l.317.93c.612-.22 1.368-.303 2.2-.303 1.847 0 3.996.424 5.632.607l.1-.984c-1.56-.162-3.738-.606-5.728-.607.38-.227.78-.42 1.29-.61 4.393-1.653 8.394-3.906 12.503-5.99l-.15-.305.566.068-.318-.04.187.272c.003 0 .028-.013.093-.032.13-.048.374-.103.668-.147.59-.094 1.41-.17 2.26-.223.65-.047 1.305-.082 1.9-.112-.17.074-.357.147-.55.22-.785.29-1.652.52-2.11.72-1.285.578-2.512 1.336-3.67 2.056-1.403.88-2.893 1.642-4.34 2.564-.876.573-2.288 1.93-2.52 1.95l.292.945c.805-.303 1.968-1.594 2.75-2.07 1.398-.885 2.888-1.646 4.337-2.554 1.15-.717 2.348-1.45 3.548-1.985.488-.224 2.233-.654 3.21-1.226.28-.178.56-.35.694-.71.005 0 .01 0 .015 0 1.915 1.584 4.613 3.078 6.798 4.39 1.27.762 2.37 1.76 3.702 2.617 1.02.644 2.225 1.276 2.752 2.05v.003l.806-.564c-.768-1.075-2.09-1.7-3.025-2.315-1.243-.797-2.35-1.806-3.727-2.634-2.34-1.398-5.224-3.007-7.01-4.59l-.028.032c-.886.125-5.637.18-7.068.65-.13.063-.295.09-.433.23zM25.598 52.65l-.567.802C18.513 48.824 9.94 45.45 2.31 42.937l.312-.928c7.673 2.523 16.31 5.912 22.978 10.642zm151.18-16.404l-.017.02.024-.012c-.007-.015-.01-.046-.023-.09-.022-.08-.043-.207-.063-.36-.033-.314-.05-.737-.05-1.215 0-1.948.236-4.837.236-6.315.002-.018.002-.028.002-.028-.002-2.56.518-5.378.518-8.077 0-.63-.033-1.262-.1-1.877h-.002l-.975.117c.068.57.098 1.16.098 1.76.003 2.538-.51 5.313-.525 7.966l-.056.118.056.12c-.008 1.432-.23 4.258-.23 6.217.03 1.03-.013 1.71.332 2.258l.777-.6zm-10.055-18.28l-.98-.077c-.422 5.282-1.057 11.847-1.27 17.795l.983.035c.21-5.907.842-12.458 1.267-17.75zm32.904 10.235c-.212-.24-.39-1.003-.37-1.98-.007-2.687.986-6.885 1.314-8.175l-.962-.24c-.326 1.325-1.336 5.52-1.336 8.416.007 1.064.106 1.96.587 2.59l.767-.61zm-5.137-4.957l.026.605-.598-.09c-.65-.11-1.313-.312-1.92-.43l-.572-.116.22-.55c.49-1.177.184-2.658.658-4.164l.08-.214.205-.083c.654-.25 1.84-.478 2.356-.487.023-.002.06-.01.112-.01.043 0 .1 0 .204.038.102.023.316.228.31.46-.016.17-.066.257-.105.303-.58 1.13-.988 3.05-.986 4.406 0 .115.003.223.01.333zm-.988-.575c.036-1.23.314-2.698.774-3.883-.372.065-.81.16-1.105.25-.267.983-.117 2.19-.44 3.446.264.066.52.13.772.188zm-12.16.305c-.176.055-.307.055-.457.06-.452 0-1.07-.11-1.275-.122l-.52-.05.073-.51c.228-1.52.58-3.002.707-4.444l.04-.428.426-.023c.147-.006.31-.013.47-.013.544.007 1.098.035 1.512.157l-.19.614.68-.02v.06c-.004 1.093-.297 2.564-.6 3.57-.112.367-.05.35-.154.67-.07.19-.28.318-.365.348-.114.043-.2.067-.347.13zm-.457-.924c.05 0 .09-.004.11-.004h.01c.058-.02.11-.042.156-.058.02-.106.05-.26.105-.443.255-.84.518-2.132.554-3.052-.258-.037-.654-.064-1.013-.064-.144 1.216-.397 2.402-.588 3.568.238.03.493.053.665.053zm-8.626 4.725h-.04c-.496 0-.926-.34-1.092-.72-.187-.4-.228-.834-.237-1.285 0-1.078.314-2.3.383-2.678l.075-.387.39-.013c.305-.002.73-.157 1.25-.164.253-.005.55.046.83.212l-.07.112c.19.424.243.968.25 1.615-.003.64-.076 1.343-.265 1.945-.195.587-.488 1.184-1.184 1.335-.1.02-.198.028-.29.028zm0-.984c.046 0 .08-.003.123-.01.042.014.267-.168.41-.656.146-.464.22-1.103.22-1.657.005-.368-.036-.725-.087-.957-.195.007-.458.072-.76.125-.118.537-.29 1.42-.29 2.135 0 .375.06.692.142.85.094.156.083.153.24.17zm-2.587-.486c-.126.573-.437 1.262-1.23 1.287-.256 0-.5-.083-.74-.22l-.233-.135-.01-.257c-.027-.328-.038-.718-.038-1.134.006-1.043.076-2.22.535-3.05l.275-.47.438.32c.025.025.07.036.166.054l-.014-.762.8.6c.133.093.216.238.24.303v.02l-.08.064h.036c.007.246.036.8.036 1.42 0 .64-.03 1.35-.18 1.96zm-.796-1.96c0-.225-.01-.438-.016-.636-.05-.01-.127-.02-.213-.042-.175.56-.253 1.414-.238 2.178 0 .274.005.533.012.768.01 0 .018.005.018.005.032-.012.02.008.088-.07.22-.232.363-1.308.35-2.202zm3.093 11.313h-.044c-.43 0-.85-.225-1.05-.565-.206-.34-.254-.722-.256-1.106.002-1.156.495-2.645.5-3.21l.02-.366.356-.087c.407-.103.717-.163 1.013-.163.267-.01.602.073.808.338.195.27.208.537.215.807 0 .24-.028.5-.064.802-.102.766.025 2.208-.458 3.144l-.253-.144.127.367c-.338.118-.637.18-.917.184zm0-.983c.06 0 .144-.012.243-.03.212-.546.21-1.842.283-2.65.035-.294.053-.532.053-.69 0-.072-.006-.125-.006-.165h-.035c-.087 0-.24.013-.45.06-.123.834-.46 1.995-.46 2.786.064.642.064.662.37.688zm-3.8.708l-.162.275-.32-.043c-.316-.058-.705-.194-.993-.35l-.205-.13-.02-.247c-.018-.225-.03-.483-.03-.756 0-.673.07-1.454.317-2.126.22-.646.734-1.297 1.56-1.32.008-.006.017-.013.024-.02l.018.02h.018c.11 0 .235.01.357.037l-.076.378.264.364c-.11 0-.3.696-.32 1.515-.06.818-.036 1.705-.43 2.405zm-.545-2.468c.013-.177.026-.36.038-.538-.172.483-.245 1.168-.24 1.755 0 .136 0 .265.005.39.007 0 .02 0 .03.007.09-.396.137-1.012.167-1.613zm5.793-12.796c.203-.434.304-.974.304-1.47 0-.263-.024-.515-.125-.755l-.908.384c.022.04.052.19.052.372 0 .2-.03.446-.078.664-.076-.013-.14-.023-.214-.035.06-.22.094-.456.094-.695 0-.15-.013-.313-.05-.47l-.956.222c.018.074.027.158.027.248 0 .3-.103.66-.253.947l-.39.775.86-.066h.206c.296-.006.594.037.81.125l.42.17.2-.417zm-3.47-.23v-.105c-.004-.414.155-1.18.166-1.527 0-.048-.007-.09-.01-.117h-.003l-.67.116h-.298v.012c-.004.092-.066.448-.117.844-.147-.05-.292-.094-.455-.12.032-.306.163-.66.266-1.076l-.953-.234c-.1.404-.304.88-.304 1.478 0 .133.008.27.035.41l.093.482.478-.09c.03 0 .064-.006.108-.006.262-.008.616.15.883.35l.816.596-.036-1.013zm21.498 14.105c-.265.138-.54.188-.814.188h-.01c-1.21-.027-2.246-.917-3.034-1.178-1.366-.51-2.996-.727-4.502-.888l-1.625-.168 1.454-.76c2.175-1.13 4.364-1.946 6.6-2.86.346-.11.57-.488 1.346-.59.083-.007.172-.007.27-.007.877 0 1.907.346 2.574.464.837.163 1.89.673 2.598.823.3-.126.605-.25.897-.367l.283-.114.228.21c.155.145.32.32.428.56l-.893.41c-.007-.01-.012-.018-.012-.023-.06.027-.122.048-.182.075l.054.22c-.145.034-.287.045-.432.045-.076 0-.147-.004-.226-.01-.903.39-1.776.84-2.453 1.44-.723.606-1.368 1.93-2.547 2.53zm1.9-3.267c.493-.432 1.05-.787 1.627-1.09-.555-.202-1.07-.42-1.444-.474-.757-.145-1.776-.462-2.4-.458-.056 0-.116.007-.167.014-.377.02-.404.214-1.072.516-1.737.705-3.408 1.353-5.047 2.105 1.04.153 2.097.374 3.085.742.99.386 2.026 1.148 2.693 1.118.148 0 .267-.026.394-.088.766-.34 1.43-1.566 2.33-2.386zm-2.638 11.744l-.987.033c-.033-1.042-.327-3.09-.327-4.92.004-1.123.096-2.17.503-2.955l.083.02c.013-.014.027-.02.045-.034l-.106-.136v-.007c0 .008.084-.084.302-.095.468.09.41.273.46.3.028.056.038.09.044.11l.007.015-.094.034.185.047c-.004.077-.016.133-.023.198-.01.037-.016.076-.053.142-.012.03-.042.1-.118.166-.177.524-.264 1.327-.258 2.198 0 1.734.29 3.736.334 4.886zm-.87-7.576h-.003.002zm.78-.066l.102-.058-.1.058zm-.317-.09v-.21.21zm-5.377 4.483c-.03-.647-.05-1.385-.05-2.128 0-1.453.08-3.005.324-4.244l-.968-.19c-.263 1.348-.34 2.94-.34 4.434 0 .768.02 1.51.052 2.17l.98-.04zm3.847-3.77c-.037.428-.39 1.09-1.085 1.09h-.037c-.173 0-.34-.043-.524-.096l-.478-.138.144-.476c.218-.625.143-1.59.42-2.403l.9.336c.06-.05.078-.13.388-.168.202-.026.442.18.47.303.043.12.043.177.043.217-.007.09-.007.112-.007.112h-.14l.03.012c-.064.272-.045.757-.123 1.21zm-.007-1.237l.212-.09-.212.09zm28-1.393c-.148.01-.31.01-.467.01-1.37 0-3.022-.304-4.406-.304-.133 0-.27.007-.393.016-.24.007-.476.013-.708.013-2.052 0-3.92-.404-5.824-.834l-.766-.176.49-.616c1.05-1.25 3.117-1.766 4.242-2.47 1.887-1.128 3.958-1.255 5.598-2.154l.464-.246.22.483c.824 1.886 1.166 4.23 2.2 5.646l-.665.478.012.156zm.3-.73l.047-.24c.034.007.112.014.216.014.637.034 2.104-.306 2.977-.642-.9-.48-1.748-.982-2.628-1.658-.89-.724-2.11-2.145-2.76-2.257l.248-.957c1.236.358 2.332 1.862 3.117 2.43 1.064.826 2.063 1.368 3.272 1.977l.586.3-.444.48c-.87.812-3.142 1.265-4.368 1.31-.094 0-.182-.002-.268-.012l-.008.034c-.21.778-.39 1.875-.402 2.707h.01v.396l-.983.027c-.005-.115-.01-.234-.01-.36 0-.8.136-1.714.302-2.496-.014-.07-.028-.135-.028-.22-.03-.26.236-.605.49-.65l.632-.184zm-.984-.24c-.714-1.425-1.05-3.095-1.573-4.438-1.76.793-3.592.98-5.06 1.885-1.008.592-2.417 1.086-3.32 1.672 1.55.34 3.07.6 4.662.6.215 0 .438 0 .656-.012.143-.01.295-.012.444-.012 1.424.002 2.987.273 4.19.304zm-67.918 6.284c-.85.39-1.583 1.134-2.013 2.147-.747-.68-1.718-1.03-2.644-1.03-.704-.008-1.406.21-1.94.686-.513.46-.84 1.17-.854 2.028-.995.05-1.86.267-2.524.688-.773.47-1.26 1.275-1.252 2.226 0 .602.176 1.246.513 1.947l-.352.122.045.39c.015.13.028.23.06.327.044.06.03.336.514.417.57-.13.432-.328.52-.372 0-.01 0-.016.003-.023l.14-.06s0 0 .056-.023c.02-.01.16-.09.22-.26 0 0 .005-.006.005-.016.018-.02.036-.053.033-.122v-.007c0-.01.003-.023.003-.03h-.008c-.004-.043-.013-.112-.038-.19-.014-.044-.037-.07-.058-.11-.478-.805-.676-1.48-.67-1.99 0-1.193 1.047-1.9 3.255-1.944.002 0 .015 0 .032.004l.555.014-.053-.556c-.014-.124-.016-.24-.016-.346.03-1.316.773-1.776 1.81-1.818.878-.006 1.878.458 2.44 1.305l.633.956.252-1.12c.37-1.668 1.59-2.558 2.698-2.558.916.014 1.84.566 2.33 2.104l.27.862.58-.688c.61-.724 1.163-.95 1.632-.954.61-.01 1.243.41 1.74 1.14.497.723.82 1.726.816 2.7-.004 1.272-.496 2.45-1.763 3.157h-.003l.48.865c1.62-.902 2.28-2.498 2.275-4.02-.01-.767-.165-1.54-.445-2.237l.065-.03c-.13-.26-.188-.542-.188-.84-.01-.938.643-2.14 1.597-3.058.942-.925 2.18-1.552 3.127-1.538.3 0 .563.053.81.17.068.03.04-.02.085.402-.036.357.288 1.065 1.05 1.186.095.023.193.035.29.035 1.31-.06 3.18-1.557 3.944-1.603.262-.032.524-.055.777-.055 1.564.047 2.574.55 2.595 2.07 0 .084-.002.176-.01.27l-.11 1.345.943-.96c1.06-1.06 2.02-1.54 3.2-1.54.603 0 1.267.132 2.033.405 1.268.437 2.737 1.658 2.69 2.817-.004.138-.017.273-.054.42l.956.245c.053-.22.08-.446.08-.665-.048-1.915-1.876-3.19-3.335-3.738-.84-.307-1.633-.466-2.368-.466-1.154-.007-2.172.396-3.117 1.127-.15-.696-.528-1.26-1.044-1.63-.684-.496-1.553-.682-2.46-.682-.293 0-.6.02-.904.062-1.233.208-3.17 1.655-3.817 1.596-.034 0-.06-.007-.068-.007-.386-.156-.214-.05-.297-.317-.013-.205.012-.892-.634-1.207-.392-.186-.816-.267-1.236-.267-2.405.066-5.086 2.408-5.615 4.846-.564-.58-1.272-.953-2.088-.98-.616-.006-1.244.242-1.828.735-.33-.685-.783-1.205-1.303-1.55.368.038.68.118.816.18l.55.686c.232-.196.444-.42.45-.785-.06-.638-.55-.79-.924-.91-.416-.126-.913-.176-1.432-.176-.545.007-1.087.05-1.57.188-.33-2.382-2.198-4.22-4.473-4.224-.537 0-1.098.106-1.645.327-.594-1.065-1.628-1.832-2.792-1.844-.545-.004-1.103.185-1.588.587-.493-.58-1.244-.83-1.97-.823-2.036.058-4.494 1.55-4.604 3.543 0 .028 0 .053.002.074l.982-.02v-.053c-.014-.492.434-1.177 1.172-1.69.728-.524 1.686-.873 2.447-.87.714.017 1.17.23 1.433.817l.327.745.508-.628c.428-.527.855-.697 1.292-.704.784-.014 1.706.687 2.097 1.7l.205.512.487-.26c.567-.3 1.123-.43 1.647-.43 1.848-.01 3.473 1.657 3.535 3.854zm68.547-4.912l-.074-.237.073.237zm-10.353 4.765c.096-.09.144-.216.144-.342v-.084c0-1.893.146-3.71.146-5.655h-.99c0 1.83-.12 3.585-.134 5.447-.002.018-.002.032-.002.048v.245c0 .126.05.252.144.342.092.096.216.15.347.15.13 0 .26-.054.347-.15zm2.066-3.76c.062.005.127.012.19.025-.033.708-.38 1.77-.534 2.323l.945.26c.147-.555.566-1.73.57-2.704 0-.084 0-.185-.015-.286l-.03-.263-.244-.116c-.3-.145-.642-.227-.986-.227-.136 0-.276.013-.423.046l-.306.07-.064.314c-.23 1.16-.255 2.333-.572 3.306l.936.303c.33-1.03.377-2.1.533-3.05zm13.45.32v-.126c-.006-.528.14-1.936.147-2.366l-.98-.01c-.006.326-.148 1.75-.148 2.377 0 .08 0 .148.002.205l.98-.078zM172.73 47.863c.284-.033.57-.265.65-.442.095-.176.11-.222.133-.252l-.723-.633c-.076-.247-.115-.512-.115-.776.014-1.05.552-1.834 1.33-1.84.23 0 .51.068.853.236l.84.418-.137-.926c-.016-.104-.022-.195-.022-.28.053-.534.15-.516.542-.573.458-.017 1.152.342 1.437.78.007.01.02.022.026.032.006.006.006.013.006.015h.007v.012l.83-.533c-.005 0-.008-.006-.008-.006-.207-.316-.267-.566-.274-.764.007-.513.536-.958 1.31-.97.635.007 1.297.308 1.693 1.154l.625 1.36.298-1.458c.32-1.62 1.368-3.454 2.706-3.388.126 0 .25.012.394.04 1.31.21 2.808 2.17 2.767 3.545 0 .078 0 .152-.004.22v.01l.973.115c.012-.115.015-.23.015-.345-.044-1.94-1.632-4.072-3.557-4.506-.2-.046-.394-.068-.59-.068-1.81.055-2.847 1.62-3.376 3.136-.556-.545-1.28-.803-1.947-.796-1.036 0-2.095.605-2.26 1.677-.346-.15-.718-.24-1.075-.246-.374 0-.763.104-1.064.383-.228.203-.37.49-.433.82-.197-.048-.39-.076-.58-.076-1.544.028-2.31 1.48-2.31 2.822 0 .644.164 1.316.538 1.886l.18.267.32-.05zm-65.738-.64c-.754-.24-.996-.736-1.01-1.262.014-.633.398-1.154 1.017-1.154.2 0 .44.056.725.2l1.143.566-.467-1.19c-.28-.732-.407-1.37-.406-1.89.05-1.302.62-1.86 1.73-1.902.694 0 1.623.29 2.66.993l.67-.704c-.507-.68-.838-1.58-.834-2.37.02-.937.376-1.675 1.435-2.064.267-.1.52-.13.77-.135 1.23-.034 2.48 1.185 3.463 2.346.057.07.117.144.184.22l.748-.643c-.02-.023-.04-.04-.06-.06-.6-.722-.815-1.338-.815-1.87-.005-.86.592-1.658 1.536-2.267.935-.6 2.165-.96 3.167-.954 1.246.04 1.888.41 1.897 1.308 0 .053-.005.118-.013.192l-.18 1.818 1.073-1.48c.878-1.21 2.1-1.744 3.182-1.75 1.46.028 2.623.894 2.648 2.628 0 .382-.064.817-.207 1.297l.883.407c.604-.91 1.384-1.254 2.248-1.267 1.786.006 3.772 1.71 3.772 3.764v.056l.987.04v-.097c-.026-2.687-2.407-4.726-4.76-4.747-.673-.007-1.346.18-1.94.565v-.02c-.005-2.268-1.743-3.61-3.632-3.61-1.108 0-2.28.43-3.245 1.324-.156-.377-.42-.685-.745-.9-.55-.37-1.237-.514-1.968-.514-2.39.033-5.594 1.523-5.683 4.206v.032c-.724-.568-1.56-.99-2.54-1.01-.358 0-.73.063-1.102.194-1.456.503-2.1 1.765-2.086 2.99.005.495.095 1 .253 1.475-.624-.25-1.215-.37-1.767-.38-.78 0-1.484.274-1.97.79-.492.517-.74 1.255-.74 2.097 0 .415.057.864.18 1.337-.067 0-.132-.005-.194-.005-1.257.004-2 1.094-2.003 2.136-.015.897.563 1.865 1.707 2.2l.288-.937zm-10.662 1.6c-.03-.078-.07-.15-.107-.222-.584-1.16-1.062-2.294-1.046-2.934.066-.52.045-.668 1.133-.75.295 0 .66.033 1.097.112l.56.1.022-.563c.03-.938.214-1.853.507-2.48.303-.65.648-.913.98-.91.344-.013 1.01.323 1.848 1.443l.88-.37c-.07-.437-.106-.82-.1-1.164.05-2.04.988-2.47 2.103-2.53.58 0 1.186.185 1.616.447.442.258.637.584.617.723 0 .04-.007.083-.035.138h-.002l.883.435c.093-.177.136-.38.136-.572-.12-1.373-1.7-2.102-3.214-2.147-.743-.003-1.527.222-2.132.802-.574.558-.933 1.416-.95 2.56-.555-.486-1.094-.732-1.65-.742-1.655.124-2.26 1.944-2.43 3.785-.27-.03-.513-.047-.736-.047-.664 0-1.19.13-1.584.458-.39.325-.543.82-.536 1.276.015.966.506 2.05 1.055 3.174l-.036.04c.07.073.118.146.164.23.025.038.04.065.055.1v.006c.007.005.01.015.014.023l.886-.416zm58.94-25.118c.236-2.09.582-4.123.757-5.952.314-3.224.66-6.4 1.22-9.64.396-2.056.206-6.23 2.58-7.9l.32-.213.28.255c1.665 1.52 2.365 3.94 2.49 5.912.005.078.007.163.007.248-.006 1.053-.303 2.615-.3 3.948-.003 1.194.257 2.02.8 2.226l.347.155-.05.37c-.27 1.684-.928 3.472-1.218 5.06l.673-.222-.104.778c-.125.93-.414 1.807-.683 2.66.234-.236.494-.454.775-.653l.98-.696-.215 1.18c-.614 3.42-1.39 8.763-4.582 11.343l-.61-.77c2.385-1.865 3.38-6.014 3.98-9.324-.377.436-.715.92-1.016 1.413l-.9-.324c.227-1.526.85-2.88 1.157-4.186l-.62.166.077-.716c.198-1.835.96-3.814 1.274-5.534-.88-.63-1.04-1.807-1.046-2.927.007-1.456.308-3.067.3-3.948 0-.07 0-.13-.004-.177-.1-1.676-.696-3.702-1.878-4.966-1.42 1.303-1.54 4.93-1.85 7.005-.55 3.206-.888 6.352-1.2 9.572-.298 3-1 6.407-1 9.63 0 2.096.298 4.1 1.158 5.87l.344.155-.066-.034h.068v.008c.01.02.02.07.033.218.01.115-.065.355-.228.47-.148.11-.272.133-.39.15l-.347.056-.158-.31c-1.065-2.03-1.396-4.295-1.396-6.583 0-.787.04-1.577.103-2.365-.542 2.145-.694 4.564-1.872 6.733l-.86-.467c.93-1.69 1.17-3.71 1.6-5.725l-.34.268-.132-.82c-.05-.3-.073-.606-.073-.915.006-1.425.413-2.855.407-3.988.01-1.408.532-3.07.663-4.507-.02-.004-.038-.007-.05-.01l-.32-.066-.06-.32c-.06-.273-.082-.544-.082-.804.01-.93.29-1.688.434-2.396-.043.032-.073.066-.084.085l-.782.802-.07-1.113c-.012-.275-.02-.546-.02-.82 0-.77.05-1.54.05-2.272 0-.42-.014-.827-.062-1.22-.12-1.08-.118-2.452-.19-3.686-.098.147-.204.288-.33.42l-.345.346c-.225 1.037-.27 2.165-.476 3.315l-.04.24-.218.11c-.32.067-.808 1.446-.928 2.96-.165 1.52-.16 3.174-.165 3.993v.168c0 2.568.14 5.077.294 7.6l.105 1.63-.78-1.035c-.147.74-.197 1.54-.197 2.364 0 1.578.19 3.224.266 4.696.23.212.458.423.674.648l.453-.17c.176.55.12.7.222.857.043.058.094.104.14.154l-.7.69c-.057-.058-.114-.116-.158-.17-.457-.495-.933-.973-1.437-1.415l-.16-.142-.007-.207c-.058-1.46-.274-3.215-.274-4.942 0-1.297.12-2.587.537-3.756l.247-.693c-.113-2.007-.204-4.04-.204-6.11 0-.052-.005-.107-.005-.17.006-.818 0-2.503.17-4.096.203-1.472.385-2.857 1.235-3.57.245-1.437.217-3.05.902-4.59l.64-1.414.126.665c.053-.24.084-.49.103-.74l.96-.094c.488 1.737.318 4.353.516 6.024.053.447.073.895.073 1.338 0 .725-.045 1.436-.05 2.116.083-.062.143-.108.16-.144l.775-1.062.106 1.31c.012.094.015.18.015.264-.02 1.29-.554 2.252-.535 3.23 0 .102.005.198.013.297.042.01.088.016.13.027l.41.085-.016.416c-.076 1.72-.694 3.596-.684 4.882-.007 1.335-.417 2.76-.407 3.988v.02c.024-.012.047-.027.072-.038l.76-.465zM132.03 34.16h-.002.002zm8.618-3.724l-.138 1.308-.757-1.078c-.78-1.12-1.35-2.584-1.354-4.07 0-.768.15-1.538.53-2.235l.184-.35.378.1c.036.012.064.026.087.035.09-.35.114-.768.114-1.214 0-.337-.017-.7-.017-1.052 0-.242.007-.48.023-.717l.093-1.01.114.11c-.133-.803-.19-1.6-.19-2.376.004-3.334.97-6.47 1.115-9.747l.014-.287.255-.13c.09-.043.18-.086.29-.095.212-.913.444-1.88.938-2.688l.012-.014c.023-.07.207-.205.306-.205.068-.014.094-.014.1-.014h.003c.128 0 .255.053.344.146.07.064.113.15.136.246.09-.077.228-.155.49-.192.07 0 .14.02.2.037l.29.112.027.31c.147 1.694.397 3.923.397 5.803 0 .4-.008.787-.036 1.15-.138 1.616-.915 3.007-.895 4.342v.1h.04c.15.007.15.028.16.028l.265.087.06.27c.066.305.094.606.094.894-.01 1.413-.57 2.653-.568 3.787.113.01.218.018.333.034l.456.033-.008.464c-.045 2.34-1.312 5.187-1.977 6.64l-.894-.41c.616-1.31 1.693-3.827 1.865-5.797-.103-.017-.21-.024-.314-.038l-.382-.05-.044-.388c-.013-.163-.018-.312-.018-.464.01-1.425.58-2.68.568-3.812v-.07h-.01l-.426.035-.09-.42c-.065-.315-.092-.63-.092-.923.018-1.677.81-3.093.893-4.408.024-.342.038-.708.038-1.085 0-1.554-.182-3.402-.33-4.987.02-.005.04-.005.06-.01h-.015c-.016.005-.028.005-.044.005-.028.007-.053.007-.083.007-.26-.027-.215-.062-.258-.073-.072-.05-.05-.035-.072-.05-.004-.003-.016-.015-.032-.035-.27.653-.446 1.47-.634 2.255l-.063.265-.245.087c-.053.02-.1.03-.15.04-.22 3.252-1.09 6.232-1.084 9.214 0 1.193.136 2.382.492 3.608l.415 1.414-.943-.703c.007.23.014.48.014.728-.002.7-.042 1.43-.38 2.103l-.17.35-.382-.09c-.052-.02-.096-.028-.14-.045-.156.424-.225.872-.225 1.348 0 .99.32 2.04.81 2.913l.124-.044c-.01.1.3.253.336.84 0 .038 0 .086-.002.13zm2.676-24.258c-.016.002-.04.012-.06.012-.01 0-.014 0-.023-.01.03 0 .056 0 .084-.007v.005zm69.23 20.25c-.195-.867-.268-1.918-.268-3.056 0-1.687.16-3.568.292-5.37.12-.015.23-.03.334-.033l.43-.023.03-.43c.11-1.493.15-2.918.15-4.33 0-1.208-.022-2.4-.054-3.618l.023.073.32-.952c.508 2.938.594 6.584.594 9.35v.19c.004.55.02 1.14.02 1.75.01 1.733-.166 3.54-1.03 4.542l.752.637c1.156-1.4 1.25-3.406 1.258-5.18 0-.63-.014-1.23-.014-1.77v-.17c0-3.27-.115-7.753-.925-11.018l-.326-1.324-.59 1.232c-.008.014-.02.027-.028.05-.07-.15-.12-.278-.128-.355l-.975.087c.034 2.26.12 4.357.12 6.474 0 1.26-.032 2.53-.12 3.843-.115.007-.224.02-.322.03l-.437.015-.03.437c-.135 1.917-.326 3.975-.326 5.86 0 1.18.074 2.293.293 3.272l.958-.216zm-6.44-3.582c0-.226-.002-.46-.015-.697-.086-1.332-.83-2.486-.875-3.386-.02-.266-.026-.537-.026-.817 0-1.588.294-3.337.335-5.015l.012-.325-.297-.133c-.115-.048-.2-.078-.273-.1-.016-.284-.026-.58-.026-.878 0-1.085.094-2.243.094-3.404 0-1.387-.13-2.79-.713-4.1l-.864.216h-.073c-.017.333-.093.41-.313.645-.207.217-.584.523-.782 1.082-.16.448-.212.864-.212 1.24.007.8.212 1.39.205 2.114 0 .774.016 1.57.016 2.37 0 1.65-.05 3.308-.302 4.805-.242 1.403-.755 4.433-.755 7.144.018 2.1.244 4.067 1.52 5.02l.563-.803c-.724-.45-1.13-2.19-1.1-4.218-.008-2.6.497-5.585.74-6.98.27-1.59.312-3.3.312-4.97 0-.807-.008-1.612-.008-2.37-.008-.9-.213-1.518-.208-2.114 0-.287.038-.568.16-.922.095-.28.28-.437.55-.708.008-.01.017-.013.028-.028.194.807.25 1.674.25 2.574 0 1.103-.088 2.264-.088 3.404 0 .435.01.875.043 1.305l.033.32.298.106c.08.025.14.043.196.057-.07 1.478-.327 3.093-.327 4.664 0 .298.01.597.033.896.116 1.264.848 2.39.87 3.36.01.213.017.433.017.643-.002 2.354-.62 4.273-1.932 6.238l.823.545c1.402-2.096 2.1-4.253 2.092-6.784zm-4.924-10.87c0-1.558-.28-3.292-.472-4.296-.29-1.35.15-4.153-.714-5.58l-.782-1.224-.115 1.446c-.005.554-.676 1.18-.922 2.065-.078.36-.103.697-.103 1.022.002.98.248 1.798.24 2.57 0 .063 0 .123-.006.198-.076 1.488-.338 2.863-.343 4.423 0 .373.02.76.056 1.147l.943.124c.203-.543.32-1.112.33-1.704l-.343-.015c.046-1.28.262-2.51.34-3.91.004-.09.004-.176.004-.26-.003-.962-.248-1.774-.24-2.57 0-.27.02-.535.078-.807.025-.19.185-.436.372-.738.126 1.205.055 2.91.24 3.997.183.972.458 2.67.457 4.115.01.952-.145 1.792-.395 2.157l.823.538c.45-.706.543-1.66.552-2.695zM56.558 26.533l-.985.005c-.01-3.2-.002-7.002-.72-9.98.005.03 0 .058 0 .09 0 .446.02.984.02 1.52 0 .258 0 .517-.02.763-.034.743-.283 1.745-.29 1.978-.002.053-.002.114-.002.183-.012 1.08.58 2.582.595 4 0 .223-.016.45-.058.683l-.067.342-.353.054c-.058.006-.11.006-.147.006-.362.008-.706-.23-.86-.52l.494-.292c.004-.09.014-.182.014-.274.01-1.145-.587-2.628-.6-4 0-.08.004-.16.006-.245.035-.437.263-1.35.292-1.968.014-.222.016-.462.016-.71 0-.508-.016-1.055-.016-1.52v-.136c.02-2.17.405-4.427.398-6.48 0-.3-.002-.592-.023-.88-.05-.25-.082-.504-.084-.787.002-.035 0-.035 0-.035l.975-.115c.042.27.068.552.09.832.21.874.777 1.716 1.037 2.87.086.41.117.816.117 1.19 0 .923-.16 1.744-.16 2.604 0 .11 0 .215.005.316l.017.414-.39.085c.707 3.116.686 6.872.7 10.007zm-1.39-10.87c.024-.004.05-.01.074-.018.01-.954.16-1.76.16-2.538 0-.328-.025-.655-.1-.988-.023-.144-.06-.288-.102-.424-.09 1.355-.26 2.723-.314 4.022l.28-.053zm-4.25 10.024h-.985v-.005c.005-2.882.704-6.676.704-10.116 0-1.88-.217-3.63-.82-5.04l.063.67-.226-.11c.123 1.135.157 2.293.16 3.447-.003 1.027-.023 2.05-.023 3.06 0 0 .005.032-.007.09.008.517.012 1.103.012 1.72-.004 2.02-.045 4.336-.604 5.89l-.922-.333c.472-1.28.546-3.573.543-5.556 0-.62-.006-1.222-.006-1.757v-.058l.005-.023c0-1.01.02-2.025.02-3.03 0-1.527-.054-3.03-.316-4.46l-.04-.252.176-.18c.02-.018.025-.036.134-.096l.03.065.193.37v-.487c.09.02.163.038.215.058v-.006c-.208-.084-.332-.046-.404-.013.02-.273.037-.526.037-.747l.01-1.384.873 1.077c1.494 1.858 1.876 4.418 1.878 7.087-.002 3.56-.706 7.383-.7 10.117v.006zm-2.1-16.155c-.004.03-.004.056-.004.08l-.03-.066c.01 0 .02-.006.034-.013zm-.998 6.717c-.602 2.433-.397 5.48-1.46 7.94l-.904-.39c.534-1.197.718-2.664.88-4.186-.155 1.07-.405 2.125-.817 3.157l-.914-.365c.744-1.865.947-3.88.947-5.964 0-2.348-.257-4.783-.257-7.174 0-.82.025-1.635.11-2.444l.133-1.258.75 1.012c1.31 1.777 1.884 4.235 1.884 6.6 0 1.066-.117 2.112-.354 3.073zm-.63-3.072c.007-1.614-.298-3.274-.9-4.647-.01.247-.012.485-.01.736-.002 2.32.26 4.755.26 7.174 0 .674-.022 1.36-.078 2.032.094-.827.213-1.658.408-2.455.212-.878.32-1.846.32-2.84zm-8.353 8.8c.028-.05.046-.078.056-.106.025-.052.038-.087.038-.087h.006l-.202-.12.138.185-.176-.24.107.038c.016-.024.02-.042.027-.072l.023-.006s0 0-.01-.012v-.025c.275-.862.445-2.377.445-3.982-.053-2.175-.19-4.435-1.573-5.256l-.66-.324-.048.73c-.163 2.298-.653 4.968-.66 7.356 0 .387.02.778.048 1.16l.978-.074c-.03-.352-.04-.717-.04-1.086-.004-1.85.323-3.96.536-5.97.282.848.473 2.172.44 3.464.003 1.585-.2 3.166-.427 3.77l-.04.1.013.12c.027.167.004.216.096.413.025.054.134.264.448.278.387-.05.394-.224.437-.253zm-2.605-9.61c.014-.16.02-.317.02-.466-.015-2.11-1.09-4.287-1.878-6.253-.076-.485-.225-.93-.5-1.31l-.866.45c.125.357.26.724.405 1.093.037.24.053.51.05.806.008 1.58-.457 3.657-.457 5.248 0 .128 0 .243.002.38.017.26.023.517.023.773.006 2.353-.59 4.475-.596 6.972 0 .186.005.376.007.57l.978-.037c0-.178-.005-.35-.005-.534 0-2.328.596-4.452.603-6.973 0-.273-.007-.55-.024-.82-.006-.1-.006-.22-.006-.333-.007-1.015.237-2.39.372-3.73.51 1.294.918 2.56.91 3.695 0 .12-.006.25-.013.376-.202 2.446-.07 6.176-.81 8.165l.927.34c.833-2.328.656-6.06.86-8.416zm104.073 6.912c-10.008-.95-20.223-1.195-30.418-1.195-10.614 0-21.194.264-31.496.264-7.73 0-15.3-.15-22.59-.667l-.07.978c7.33.523 14.92.672 22.66.672 10.317 0 20.902-.267 31.497-.267 10.174 0 20.364.247 30.33 1.196l.088-.983zm9.04.172c-1.807-.037-3.73-.07-5.75-.108l-.023.982c2.02.038 3.95.073 5.758.106l.016-.98zm16.686.315s-1.422-.025-3.986-.07l-.014.98c2.56.044 3.985.07 3.985.07l.016-.98zm-5.033 35.19c-.003.003-.006.003-.013.003-.016 0-.046-.002-.104-.023h-.002l.136-.47.347.348-.695-.696c.034-.01.034-.07.188-.113 0 0 .007-.003.01-.003.004-.003.008-.003.015-.007 1.313-.566 41.822-20.665 80.663-20.663 2.808 0 5.603.106 8.377.332l-.073.98c-2.75-.222-5.523-.33-8.303-.33-19.556 0-39.596 5.153-54.762 10.297-7.585 2.572-13.95 5.152-18.425 7.083-2.245.962-4.01 1.768-5.224 2.334-.608.28-1.077.502-1.403.65-.157.08-.276.136-.368.176-.042.018-.075.033-.1.048-.01 0-.026.008-.04.014-.008.007-.036.02-.204.044-.007-.002-.01-.002-.02-.002zm.506-.413c0-.005.005-.03 0-.086v.008c.005.037 0 .065 0 .078zm-.208-.473c-.076-.073-.147-.087-.19-.092.066.015.14.05.19.09zm-.417.865c-.043-.007-.083-.027-.117-.055.04.028.075.04.1.048.007.007.013.007.018.007zm-.253-.17c.035.04.078.083.136.115-.042-.025-.09-.062-.135-.115zm-.034-.048c.01.018.024.034.035.048-.025-.026-.04-.056-.048-.08.007.01.007.022.014.032zm-.013-.033c-.036-.07-.043-.124-.05-.158-.008-.042-.005-.076 0-.1 0 .01-.005.024-.005.038h.492l-.437.22zm-.043-.314s-.003.018-.008.055c0-.037.008-.055.008-.055zm84.216-15.698c-19.357 0-48.5 5.344-77.878 19.9l-.432-.88c29.52-14.628 58.78-20.002 78.31-20.002 1.24 0 2.44.02 3.596.06l-.04.982c-1.14-.04-2.326-.06-3.556-.06zm3.56.06h-.003.002zM185.46 57.37c3.705-1.662 8.82-3.698 14.873-5.67 12.105-3.938 27.976-7.632 43.85-7.632 1.89 0 3.784.055 5.67.166l.06-.98c-1.91-.112-3.817-.167-5.73-.167-24.038.007-47.91 8.355-59.124 13.384-3.765 1.708-6.016 2.928-6.64 3.592l.737.653c.248-.326 2.626-1.712 6.302-3.345zm62.197-7.956c1.595 0 3.083.063 4.437.177l.087-.976c-1.387-.124-2.903-.184-4.523-.184-17.035.01-45.768 6.49-60.062 13.493l.437.888c14.054-6.912 42.827-13.407 59.625-13.396zm-2.752 3.527c1.706 0 3.26.107 4.616.317l.155-.97c-1.422-.224-3.025-.32-4.77-.327-14.2.013-38.13 6.714-50.537 12.788l.432.88c12.225-5.996 36.183-12.694 50.105-12.687zm-.405 4.356c.918 0 1.75.065 2.476.192l.167-.97c-.797-.143-1.677-.2-2.643-.2-13.197.038-41.282 11.912-44.257 13.82l.535.82c2.628-1.754 31.026-13.696 43.722-13.662zm-2.72-27.727c-.007-3.114-1.922-5.694-4.417-5.72-1.122 0-2.25.55-3.258 1.71-.15-2.974-1.65-5.86-3.84-5.982-.985.017-1.84.672-2.524 1.99-.556-1.63-1.646-2.62-2.967-2.633-1.21.01-2.354.853-3.184 2.41-.89-1.12-1.923-1.65-2.894-1.656-1.35.006-2.412 1.107-2.412 2.57 0 .707.232 1.485.74 2.28l.83-.53c-.427-.663-.592-1.268-.592-1.75.018-1.005.622-1.57 1.434-1.585.713-.007 1.683.48 2.55 1.91l.503.84.37-.908c.774-1.887 1.844-2.615 2.653-2.6.964-.018 2.062 1.02 2.335 3.36l.95.1c.727-2.208 1.61-2.84 2.208-2.82.567-.015 1.32.55 1.894 1.565.582 1.002.975 2.388.975 3.766 0 .465-.048.925-.14 1.378l.913.333c1.128-2.064 2.39-2.772 3.455-2.772 1.718.002 3.43 1.988 3.435 4.74 0 .442-.048.907-.142 1.385l.963.19c.105-.534.16-1.063.16-1.574z" id="bg" fill="#AB9257"/></g></g></svg>