<?xml version="1.0" encoding="UTF-8" standalone="no"?>
<svg width="62px" height="61px" viewBox="0 0 62 61" version="1.1" xmlns="http://www.w3.org/2000/svg" xmlns:xlink="http://www.w3.org/1999/xlink" xmlns:sketch="http://www.bohemiancoding.com/sketch/ns">
    <!-- Generator: Sketch 3.2 (9961) - http://www.bohemiancoding.com/sketch -->
    <title>fb</title>
    <desc>Created with Sketch.</desc>
    <defs></defs>
    <g id="Page-1" stroke="none" stroke-width="1" fill="none" fill-rule="evenodd" sketch:type="MSPage">
        <g id="Imported-Layers" sketch:type="MSLayerGroup" fill="#FFFFFF">
            <path d="M30.992,0.029 C14.398,0.029 0.948,13.46 0.948,30.029 C0.948,46.598 14.398,60.029 30.992,60.029 C47.584,60.029 61.035,46.598 61.035,30.029 C61.035,13.46 47.584,0.029 30.992,0.029 L30.992,0.029 Z M38.01,30.027 L33.504,30.027 L33.504,46.349 L26.75,46.349 L26.75,30.028 L23.377,30.028 L23.377,24.403 L26.75,24.403 L26.75,21.026 C26.75,16.438 28.656,13.709 34.068,13.709 L38.574,13.709 L38.574,19.334 L35.758,19.334 C33.65,19.334 33.512,20.121 33.512,21.587 L33.504,24.403 L38.606,24.403 L38.01,30.027 L38.01,30.027 Z" id="fb" sketch:type="MSShapeGroup"></path>
        </g>
    </g>
</svg>