<?xml version="1.0" encoding="UTF-8" standalone="no"?>
<svg width="61px" height="61px" viewBox="0 0 61 61" version="1.1" xmlns="http://www.w3.org/2000/svg" xmlns:xlink="http://www.w3.org/1999/xlink" xmlns:sketch="http://www.bohemiancoding.com/sketch/ns">
    <!-- Generator: Sketch 3.2 (9961) - http://www.bohemiancoding.com/sketch -->
    <title>insta</title>
    <desc>Created with Sketch.</desc>
    <defs></defs>
    <g id="Page-1" stroke="none" stroke-width="1" fill="none" fill-rule="evenodd" sketch:type="MSPage">
        <g id="Imported-Layers" sketch:type="MSLayerGroup" transform="translate(-98.000000, 0.000000)" fill="#FFFFFF">
            <path d="M128.478,0.029 C111.886,0.029 98.435,13.46 98.435,30.029 C98.435,46.598 111.886,60.029 128.478,60.029 C145.071,60.029 158.522,46.598 158.522,30.029 C158.522,13.46 145.071,0.029 128.478,0.029 L128.478,0.029 Z M142.089,22.596 L142.089,16.593 L141.306,16.596 L136.082,16.612 L136.104,22.615 L142.089,22.596 M146.185,26.586 L146.185,41.084 C146.185,44.858 143.115,47.928 139.34,47.928 L117.617,47.928 C113.842,47.928 110.771,44.858 110.771,41.084 L110.771,19.357 C110.771,15.584 113.842,12.514 117.617,12.514 L139.34,12.514 C143.115,12.514 146.185,15.584 146.185,19.357 L146.185,26.586 Z M128.479,36.453 C131.916,36.453 134.713,33.658 134.713,30.221 C134.713,28.864 134.272,27.611 133.531,26.586 C132.4,25.016 130.559,23.987 128.479,23.987 C126.398,23.987 124.559,25.016 123.426,26.586 C122.688,27.611 122.246,28.864 122.246,30.221 C122.246,33.658 125.041,36.453 128.479,36.453 Z M138.161,30.221 C138.161,35.56 133.818,39.905 128.479,39.905 C123.139,39.905 118.795,35.56 118.795,30.221 C118.795,28.936 119.052,27.709 119.51,26.586 L114.222,26.586 L114.222,41.084 C114.222,42.957 115.742,44.477 117.617,44.477 L139.34,44.477 C141.214,44.477 142.735,42.957 142.735,41.084 L142.735,26.586 L137.447,26.586 C137.903,27.709 138.161,28.936 138.161,30.221 Z" id="insta" sketch:type="MSShapeGroup"></path>
        </g>
    </g>
</svg>