<svg xmlns="http://www.w3.org/2000/svg" viewBox="0 0 519.3 160" enable-background="new 0 0 519.3 160">
    <path fill="none" stroke="#FFFFFF" stroke-width="2.3" stroke-linecap="round" stroke-linejoin="round" stroke-miterlimit="10" d="M5.8 13.5s.1 6.1 8.1 4.5 10.4-7.7 10.4-7.7 1.1-5.2-1.7-5.9c-3-.8-4.9 2.2-4.9 2.2s-2.3 4.7-3.1 8.1-1.7 7-3.2 9.2-4 2.4-4 2.4-4.5-.4-3.8-3.2 4.1-3.1 5-2.9 3.5.6 5.6 1.4c3.2 1.2 3.1 3.2 4.4 3.2 9.8.1 11.8-4.6 11.8-4.6s-3 4.2-5.1 3.4c-1.4-.5-1.4-2.7-.9-3.3.5-.6 3.3-8.1 6.5-7.1 2.6.8-.3 6.6-.3 6.6s-1.5 3.4.1 3.9c2.3.7 5.8-7.6 5.8-7.6l11.2-.9c-4.6 1.4-6.4-2.8-4-6C45.6 6.8 60.6-1 63.3 8.9c0 10.4-12 10.1-14 8.5-1.3-1 .7 10.6.2 6.6s6.1-17.1 6.1-17.1-1.1 14.8 1.7 17.1c0 0 2.7-2.6 4-8.5.6.8 2-.2 2-.2s-1.8 7.5-.9 8.1c1.8 1.1 3-4.9 3-4.9h1s2.9-6.1 5.6-5.4 4.2 4 2.5 7.2C72.8 23.5 71 24.4 69 24s-2.7-3.6-1.9-5.8c0 0 10.1-6 11.4-2.9 0 0-2.6 8.5-.6 9 1.9.5 4.9-9.9 4.9-9.9s-2.2-.7 0 3.4l1.6.9c.9.4 3.2.9 3.9-1.4s.2-4-.5-3.8-3.4 3.1-3.4 7c-.1 3.9 1.4 3.3 2.5 3.2 1.1-.1 3.3-2.8 3.8-6.2l3.9-4.1c-.4.8-2.6 9.6-2.6 9.6s5.2-8.6 6.4-8.5-1 6.5-1 6.5-.9 3.3.8 3.1c1.6-.1 3-2 4.1-5.1l6.6-.4s2.8-3.5 0-4.8-5.8 5.9-5.8 5.9-1.1 4.7 1.2 4.9 4.9-2.1 6.2-3.5c.8-.9 1.9-3.2 1.9-3.2l1 1.1c.9.4 3.2.9 3.9-1.4s.2-4-.5-3.8-3.4 3.1-3.4 7 1.4 3.3 2.5 3.2c1.1-.1 3.3-2.8 3.8-6.2l9.1-.1c-.6 2.4.8 2.5.8 2.5l-2.6-.1 1.3 4.1H126l18.9-5.3s2.2-3.9 0-4.6-5.8.9-5.8 2.7 3.9 4.9 4.8 6.1-2.7 1.3-3.6 1.1c-.7-.2-2.7-1.2-1.6-2.6l14.1-.9s-3 4.2-5.1 3.4c-1.4-.5-1.4-2.7-.9-3.3.5-.6 3.3-8.1 6.5-7.1 2.6.8-.3 6.6-.3 6.6s-1.5 3.4.1 3.9c2.3.7 5.8-7.6 5.8-7.6l5.8 5s8.3-6.8 6.7-14.6c-2.5-2.2-7.7 15.8-5.6 17.2 2.1 1.3 5.5-6.4 5.5-6.4l7.3 2.7s-2.9 4.4-4.9 3.6c-1.4-.5-1.4-2.7-.9-3.3.5-.6 3.3-8.1 6.5-7.1 2.6.8-.3 6.6-.3 6.6s-1.6 3.1 0 3.5c2.3.7 5.3-6.8 5.3-6.8l1.7-1.2s-2.6 8.5-.6 9 4.9-9.9 4.9-9.9-2.2-.7 0 3.4l7.1 2.1s-2.9 4.4-4.9 3.6c-1.4-.5-1.4-2.7-.9-3.3.5-.6 3.3-8.1 6.5-7.1 2.6.8-.3 6.6-.3 6.6s-1.6 3.1 0 3.5c2.3.7 5.3-6.8 5.3-6.8l2.6-3.7c-.4.8-2.7 10.9-2.7 10.9s5.3-9.9 6.4-9.8-1 6.5-1 6.5-.9 3.3.8 3.1c1.6-.1 3-2 4.1-5.1l8.5-2.7s.5-1.8-1-1.9-4.1.8-6.1 5.5 1.2 5 1.2 5 5-.5 8.8-15.5c.7-2.7-4.5 14-3.5 14.7 1.1.7 3.5-3.1 3.5-3.1l.7-2c.9.4 3.2.9 3.9-1.4s.2-4-.5-3.8-3.4 3.1-3.4 7 1.4 3.3 2.5 3.2c1.1-.1 3.3-2.8 3.8-6.2l3.8 4.7-4.1 6.2 20-9.5s2.2-3.9 0-4.6-5.8.9-5.8 2.7 3.9 4.9 4.8 6.1-2.7 1.3-3.6 1.1c-.7-.2-2.7-1.2-1.6-2.6l8.4-2.9c.9.4 3.2.9 3.9-1.4s.2-4-.5-3.8-3.4 3.1-3.4 7 1.4 3.3 2.5 3.2c1.1-.1 3.3-2.8 3.8-6.2l7.8 1.4s2.2-3.9 0-4.6-5.8.9-5.8 2.7 3.9 4.9 4.8 6.1-2.7 1.3-3.6 1.1c-.7-.2-2.7-1.2-1.6-2.6l14.1-3.1s2.9-6.1 5.6-5.4 4.2 4 2.5 7.2c-1.7 3.2-3.5 4.1-5.5 3.7s-2.7-3.6-1.9-5.8l10 3.3s8.3-6.8 6.7-14.6c-2.5-2.2-7.7 15.8-5.6 17.2 2.1 1.3 5.5-6.4 5.5-6.4l3.8-2.8c-1.2 2.6-2.7 7.3-2.3 8.1s1.6.4 1.6.4l3.4-5.5-3.2-6.1 2.1-.2 3.7 3.5s-2.6 8.5-.6 9c1.9.5 4.9-9.9 4.9-9.9s-2.2-.7 0 3.4l1.6 1c.9.4 3.2.9 3.9-1.4s.2-4-.5-3.8-3.4 3.1-3.4 7 1.4 3.3 2.5 3.2c1.1-.1 3.3-2.8 3.8-6.2l7.8 1s2.2-3.9 0-4.6-5.8.9-5.8 2.8 3.9 4.9 4.8 6.1-2.7 1.3-3.6 1.1c-.7-.2-2.7-1.2-1.6-2.6l10.7 1-4.1 6.2 20-9.9s2.2-3.9 0-4.6-5.8.9-5.8 2.8 3.9 4.9 4.8 6.1-2.7 1.3-3.6 1.1c-.7-.2-2.7-1.2-1.6-2.6l14.3-1s-2.9 4.4-4.9 3.6c-1.4-.5-1.4-2.7-.9-3.3.5-.6 3.3-8.1 6.5-7.1 2.6.8-.3 6.6-.3 6.6s-1.6 3.1 0 3.5c2.3.7 5.3-6.8 5.3-6.8l11.4 1.7s2.8-3.5 0-4.8-5.8 5.9-5.8 5.9-1.1 4.7 1.2 4.9c2.3.2 4.9-2.1 6.2-3.5.8-.9 1.9-3.2 1.9-3.2l4.7-2.9s-3.8 6-3.3 7.9 1.6 1.1 1.6 1.1l4.8-6.9s-3.6 6.1-1.6 6.9c2 .9 4.2-5.1 4.2-5.1l3.4-3.5c-1.2 2.6-2.7 7.3-2.3 8.1s1.6.4 1.6.4l3.4-5.5-3.2-6.1 1.6-.3 8.5 6.8s2.2-3.9 0-4.6-5.8.9-5.8 2.7 3.9 4.9 4.8 6.1-2.7 1.3-3.6 1.1c-.7-.2-2.7-1.2-1.6-2.6l10.6-6.3c-1.2 2.6-2.7 7.3-2.3 8.1s1.6.4 1.6.4l3.4-5.5-3.2-6.1 2.1-.2 4.8 1.4c-.4.8-2.6 9.6-2.6 9.6s5.2-8.6 6.4-8.5-1 6.5-1 6.5-.9 3.3.8 3.1c1.6-.1 3-2 4.1-5.1l.9-.2c.9.4 3.2.9 3.9-1.4s.2-4-.5-3.8-3.4 3.1-3.4 7 1.4 3.3 2.5 3.2c1.1-.1 3.3-2.8 3.8-6.2l3.9 4.6-4.1 6.2 20-9.5s2.2-3.9 0-4.6-5.8.9-5.8 2.7 3.9 4.9 4.8 6.1-2.7 1.3-3.6 1.1c-.7-.2-2.7-1.2-1.6-2.6l8.4-2.9c.9.4 3.2.9 3.9-1.4s.2-4-.5-3.8-3.4 3.1-3.4 7 1.4 3.3 2.5 3.2c1.1-.1 3.3-2.8 3.8-6.2l7.8 1.4s2.2-3.9 0-4.6-5.8.9-5.8 2.7 3.9 4.9 4.8 6.1-2.7 1.3-3.6 1.1c-.7-.2-2.7-1.2-1.6-2.6l15.7-6.2s-2.6 8.5-.6 9c1.9.5 4.9-9.9 4.9-9.9s-2.2-.7 0 3.4l3.8-2.7c-1.2 2.6-2.7 7.3-2.3 8.1s1.6.4 1.6.4l3.4-5.5-3.2-6.1 2.1-.2 4.8 1.4c-.4.8-2.6 9.6-2.6 9.6s5.2-8.6 6.4-8.5-1 6.5-1 6.5-.9 3.3.8 3.1c1.6-.1 3-2 4.1-5.1l7.1-.5s2.2-3.9 0-4.6-5.8.9-5.8 2.7 3.9 4.9 4.8 6.1-2.7 1.3-3.6 1.1c-.7-.2-2.7-1.2-1.6-2.6h9.6l-1.9 4.2 3.6-3.1 2.6 3.6-.3-4.7 4.8 4.7-1.5-4.7 10.9 21-204.5-7-184.3 2.7 4.3 15.3c.9.4 3.2.9 3.9-1.4s.2-4-.5-3.8-3.4 3.1-3.4 7 1.4 3.3 2.5 3.2 3.3-2.8 3.8-6.2l6.9-7.6s-5.8 11.4-4.1 14c1.8 2.6 4.9-6.9 4.9-6.9l-6.9-2 6.9-.1-8 2 16.8-2.6 2-1.8-4.3 11.1s6.2-10.4 6.9-8.5-2.4 8.5-2.4 8.5 5.9-8.5 6.8-7.9-2.5 7.8-.8 7.9c1.7 0 4.9-5.9 4.9-5.9l6.6 2.6s-2.9 4.4-4.9 3.6c-1.4-.5-1.4-2.7-.9-3.3.5-.6 3.3-8.1 6.5-7.1 2.6.8-.3 6.6-.3 6.6s-1.6 3.1 0 3.5c2.3.7 5.3-6.8 5.3-6.8l2.6-1.9c-1.2 2.6-2.7 7.3-2.3 8.1s1.6.4 1.6.4l3.4-5.5-3.2-6.1 2.1-.2 4.6 1.4c-.4.8-3 10.1-3 10.1s5.6-9.2 6.7-9.1c1.2.1-1 6.5-1 6.5s-.9 3.3.8 3.1c1.6-.1 3-2 4.1-5.1l6.1-8.7s-5.8 11.4-4.1 14c1.8 2.6 4.9-6.9 4.9-6.9l-6.9-2 6.9-.1 1.5 3.6c.9.4 3.2.9 3.9-1.4s.2-4-.5-3.8-3.4 3.1-3.4 7 1.4 3.3 2.5 3.2 3.3-2.8 3.8-6.2l3.9-4.2c-.4.8-3 10.1-3 10.1s5.6-9.2 6.7-9.1c1.2.1-1 6.5-1 6.5s-.9 3.3.8 3.1c1.6-.1 3-2 4.1-5.1l6.5 1.6s-2.9 4.4-4.9 3.6c-1.4-.5-1.4-2.7-.9-3.3.5-.6 3.3-8.1 6.5-7.1 2.6.8-.3 6.6-.3 6.6s-1.6 3.1 0 3.5c2.3.7 5.3-6.8 5.3-6.8l3-3.7c-.4.8-3 10.1-3 10.1s5.6-9.2 6.7-9.1c1.2.1-1 6.5-1 6.5s-.9 3.3.8 3.1c1.6-.1 3-2 4.1-5.1l6.5-8.7s-6.6 11.4-4.9 14c1.8 2.6 4.9-6.9 4.9-6.9l-6.9-2 6.9-.1 13.8 3.8s2.2-3.9 0-4.6-5.8.9-5.8 2.8 3.9 4.9 4.8 6.1-2.7 1.3-3.6 1.1c-.7-.2-2.7-1.2-1.6-2.6l8.2-2.5s2.9-6.1 5.6-5.4 4.2 4 2.5 7.2c-1.7 3.2-3.5 4.1-5.5 3.7-2-.4-2.7-3.6-1.9-5.8l12.3-5.4c-.4.8-3 10.1-3 10.1s5.6-9.2 6.7-9.1c1.2.1-1 6.5-1 6.5s-.9 3.3.8 3.1 3-2 4.1-5.1l12.3-.4s2.8-3.5 0-4.8c-2.8-1.3-5.8 5.9-5.8 5.9s-1.1 4.7 1.2 4.9c2.3.2 4.9-2.1 6.2-3.5.8-.9 1.9-3.2 1.9-3.2l4.5-8.5.7-.5-5.5 15.2s6.2-8.8 6.6-7.6c.4 1.3-1.4 7.7-1.4 7.7s2.7-.6 5.4-6.8l.2 1.3s2.9-6.1 5.6-5.4 4.2 4 2.5 7.2c-1.7 3.2-3.5 4.1-5.5 3.7-2-.4-2.7-3.6-1.9-5.8h15.4s2.8-3.5 0-4.8c-2.8-1.3-5.8 5.9-5.8 5.9s-1.1 4.7 1.2 4.9c2.3.2 4.9-2.1 6.2-3.5.8-.9 1.9-3.2 1.9-3.2l.1 1.1s2.9-6.1 5.6-5.4 4.2 4 2.5 7.2c-1.7 3.2-3.5 4.1-5.5 3.7-2-.4-2.7-3.6-1.9-5.8l10.4 3.4s8.3-6.8 6.7-14.6c-2.5-2.2-7.7 15.8-5.6 17.2 2.1 1.3 5.5-6.4 5.5-6.4l7.1 2.7s-2.9 4.4-4.9 3.6c-1.4-.5-1.4-2.7-.9-3.3.5-.6 3.3-8.1 6.5-7.1 2.6.8-.3 6.6-.3 6.6s-1.6 3.1 0 3.5c2.3.7 5.3-6.8 5.3-6.8l5.5-6.9s-5.8 11.4-4.1 14c1.8 2.6 4.9-6.9 4.9-6.9l-6.9-2 6.9-.1 15.1-9.6-6 15.1-1.7 4 3.9-1.3.5 14.3L53 89.3l23.8 10.3s-6.9 15.6-5.6 16c9.3 2.9 12.2-4.9 14.1-7.7s0-9.1-6.8-11.2C71.8 94.8 65 101.1 64 104c-1 2.9 3.5 4.4 3.5 4.4l19.2 2.9s2.9.3 3.9-1.7c1.1-2.2.2-4-.5-3.8s-3.4 3.1-3.4 7 1.4 3.3 2.5 3.2c1.1-.1 3.3-2.8 3.8-6.2l-3.8-6 4.5-1.9 6.6 8.9s2.8-3.5 0-4.8c-2.8-1.3-5.8 5.9-5.8 5.9s-1.1 4.7 1.2 4.9c2.3.2 4.9-2.1 6.2-3.5.8-.9 1.9-3.2 1.9-3.2l.6.7s2.9-6.1 5.6-5.4 4.2 4 2.5 7.2c-1.7 3.2-3.5 4.1-5.5 3.7s-2.7-3.6-1.9-5.8l13.5-3.5s-3.8 6-3.3 7.9c.5 2 1.6 1.1 1.6 1.1l4.8-6.9s-3.6 6.1-1.6 6.9c2 .9 4.2-5.1 4.2-5.1l2.7-3.2s-2.6 8.5-.6 9c1.9.5 4.9-9.9 4.9-9.9s-2.2-.7 0 3.4l.1 5.8s3.4-3.7 4.8-9.6c.6.8 1.2.9 1.2.9s-2.2 7.8-1.2 8.4c1.8 1.1 3.3-5.2 3.3-5.2l1.5.5c.9.4 3.2.9 3.9-1.4s.2-4-.5-3.8-3.4 3.1-3.4 7 1.4 3.3 2.5 3.2 3.3-2.8 3.8-6.2l1.5-1.2s8.4-.5 7.1.5c-3.2 2.4-8.1 6.9-8.1 6.9h6.7l8.6-2.4s8.3-6.8 6.7-14.6c-2.5-2.2-7.7 15.8-5.6 17.2 2.1 1.3 5.5-6.4 5.5-6.4l1.6 1.3c.9.4 3.2.9 3.9-1.4s.2-4-.5-3.8-3.4 3.1-3.4 7 1.4 3.3 2.5 3.2 3.3-2.8 3.8-6.2l7.8 1.1s2.2-3.9 0-4.6-5.8.9-5.8 2.8 3.9 4.9 4.8 6.1-2.7 1.3-3.6 1.1c-.7-.2-2.7-1.2-1.6-2.6l19.7-2.7s2.8-3.5 0-4.8c-2.8-1.3-5.8 5.9-5.8 5.9s-1.1 4.7 1.2 4.9 4.9-2.1 6.2-3.5c.8-.9 1.9-3.2 1.9-3.2l4.5-8.5.7-.5-5.2 15.1s6.2-8.8 6.6-7.6-1.4 7.7-1.4 7.7 2.7-.6 5.4-6.8l.2 1.3s2.9-6.1 5.6-5.4 4.2 4 2.5 7.2c-1.7 3.2-3.5 4.1-5.5 3.7-2-.4-2.7-3.6-1.9-5.8h15.4s2.8-3.5 0-4.8c-2.8-1.3-5.8 5.9-5.8 5.9s-1.1 4.7 1.2 4.9 4.9-2.1 6.2-3.5c.8-.9 1.9-3.2 1.9-3.2l.1 1.1s2.9-6.1 5.6-5.4 4.2 4 2.5 7.2c-1.7 3.2-3.5 4.1-5.5 3.7-2-.4-2.7-3.6-1.9-5.8l10.4 3.4s8.3-6.8 6.7-14.6c-2.5-2.2-7.7 15.8-5.6 17.2s5.5-6.4 5.5-6.4l7.1 2.7s-2.9 4.4-4.9 3.6c-1.4-.5-1.4-2.7-.9-3.3s3.3-8.1 6.5-7.1c2.6.8-.3 6.6-.3 6.6s-1.6 3.1 0 3.5c2.3.7 5.3-6.8 5.3-6.8l6-7.7s-6.3 12.2-4.6 14.8 4.9-6.9 4.9-6.9l-6.9-2 6.9-.1 7.8 3.7s2.2-3.9 0-4.6-5.8.9-5.8 2.8 3.9 4.9 4.8 6.1-2.7 1.3-3.6 1.1c-.7-.2-2.7-1.2-1.6-2.6l18.9-6-3.8 4.4 2.5 4 5.9-8.4-5.3 5.2 3.9 3.4 10.6-10.1 2-1.8-4.3 11.1s6.2-10.4 6.9-8.5c.8 1.9-2 8.5-2 8.5s5.5-8.5 6.4-7.9-2 8.2-.3 8.3c1.7 0 4.4-6.4 4.4-6.4l6.8 2.9s-2.9 4.4-4.9 3.6c-1.4-.5-1.4-2.7-.9-3.3.5-.6 3.3-8.1 6.5-7.1 2.6.8-.3 6.6-.3 6.6s-1.6 3.1 0 3.5c2.3.7 5.3-6.8 5.3-6.8l7.8-1s.5-1.8-1-1.9-4.1.8-6.1 5.5 1.2 5 1.2 5 5-.5 8.8-15.5c.7-2.7-4.5 14-3.5 14.7 1.1.7 3.5-3.1 3.5-3.1l.5-2.2c.9.4 3.2.9 3.9-1.4s.2-4-.5-3.8-3.4 3.1-3.4 7 1.4 3.3 2.5 3.2c1.1-.1 3.3-2.8 3.8-6.2l9.7-2.4c-1.2 2.6-2.7 7.3-2.3 8.1s1.6.4 1.6.4l3.4-5.5-3.2-6.1 2.1-.2 4.6 1.6c-.4.8-3 10.1-3 10.1s5.6-9.2 6.7-9.1c1.2.1-1 6.5-1 6.5s-.9 3.3.8 3.1c1.6-.1 3-2 4.1-5.1l14.3-13.7-6 15.9-.4 4.2.1-18.8 17-.3-15.9 10.1h9.4l-3.4 7.6s3.4-3.7 4.8-9.6c.6.8 1.2.9 1.2.9s-2.2 7.8-1.2 8.4c1.8 1.1 3.3-5.2 3.3-5.2s-.6 11.3 6.8 1.9c0 0-2.9 4.4-4.9 3.6-1.4-.5-1.4-2.7-.9-3.3.5-.6 3.3-8.1 6.5-7.1 2.6.8-.3 6.6-.3 6.6s-1.6 3.1 0 3.5c2.3.7 5.3-6.8 5.3-6.8l2.7-3.6c-.4.8-3 10.1-3 10.1s5.6-9.2 6.7-9.1c1.2.1-1 6.5-1 6.5s-.9 3.3.8 3.1c1.6-.1 3-2 4.1-5.1l6.5-.4s2.8-3.5 0-4.8c-2.8-1.3-5.8 5.9-5.8 5.9s-1.1 4.7 1.2 4.9c2.3.2 4.9-2.1 6.2-3.5.8-.9 1.9-3.2 1.9-3.2l.8 1c.9.4 3.2.9 3.9-1.4s.2-4-.5-3.8-3.4 3.1-3.4 7 1.4 3.3 2.5 3.2c1.1-.1 3.3-2.8 3.8-6.2L445 108l1.9 4.2-3.8 4.1 5-8.1 2.6 3.9-3.7 3.7L99 128l26.3 14.4s.5-1.8-1-1.9-4.1.8-6.1 5.5c-1.9 4.8 1.2 5 1.2 5s5-.5 8.8-15.5c.7-2.7-4.5 14-3.5 14.7s3.5-3.1 3.5-3.1l.5-2.2c.9.4 3.2.9 3.9-1.4s.2-4-.5-3.8-3.4 3.1-3.4 7 1.4 3.3 2.5 3.2 3.3-2.8 3.8-6.2l7.7 4.2s8.3-6.8 6.7-14.6c-2.5-2.2-7.7 15.8-5.6 17.2 2.1 1.3 5.5-6.4 5.5-6.4l7.1 2.4s-2.9 4.4-4.9 3.6c-1.4-.5-1.4-2.7-.9-3.3.5-.6 3.3-8.1 6.5-7.1 2.6.8-.3 6.6-.3 6.6s-1.6 3.1 0 3.5c2.3.7 5.3-6.8 5.3-6.8l20.9-8.8-3 7.6 1.4-.1s3.5-10-2.1-11.2c-5.6-1.2-11.1 11.3-11 14.5.1 2.1 1.6 5.8 4.4 6.2 4 .7 10.3-5.5 10.3-5.5l5.3-10.3.7-.5-5.2 15.1s6.2-8.8 6.6-7.6c.4 1.3-1.4 7.7-1.4 7.7s2.7-.6 5.4-6.8v1.5s2.9-6.1 5.6-5.4 4.2 4 2.5 7.2c-1.7 3.2-3.5 4.1-5.5 3.7s-2.7-3.6-1.9-5.8l15.6.2s2.8-3.5 0-4.8-5.8 5.9-5.8 5.9-1.1 4.7 1.2 4.9c2.3.2 4.9-2.1 6.2-3.5.8-.9 1.9-3.2 1.9-3.2l.4.9s2.9-6.1 5.6-5.4 4.2 4 2.5 7.2c-1.7 3.2-3.5 4.1-5.5 3.7s-2.7-3.6-1.9-5.8l10.2 3.2s8.3-6.8 6.7-14.6c-2.5-2.2-7.7 15.8-5.6 17.2 2.1 1.3 5.5-6.4 5.5-6.4l7.1 2.4s-2.9 4.4-4.9 3.6c-1.4-.5-1.4-2.7-.9-3.3.5-.6 3.3-8.1 6.5-7.1 2.6.8-.3 6.6-.3 6.6s-1.6 3.1 0 3.5c2.3.7 5.3-6.8 5.3-6.8l5.8-6.8s-5.8 11.4-4.1 14c1.8 2.6 4.9-6.9 4.9-6.9l-6.9-2 6.9-.1 1.2 4c.9.4 3.2.9 3.9-1.4.8-2.3.2-4-.5-3.8-.8.2-3.4 3.1-3.4 7s1.4 3.3 2.5 3.2c1.1-.1 3.3-2.8 3.8-6.2l.1 6.1s3.4-3.7 4.8-9.6c.6.8 1.2.9 1.2.9s-2.2 7.8-1.2 8.4c1.8 1.1 3.3-5.2 3.3-5.2l3.5-3.2c-1.2 2.6-2.7 7.3-2.3 8.1s1.6.4 1.6.4l3.4-5.5-3.2-6.1 2.1-.2 2.3 7.1c.9.4 3.2.9 3.9-1.4s.2-4-.5-3.8-3.4 3.1-3.4 7 1.4 3.3 2.5 3.2c1.1-.1 3.3-2.8 3.8-6.2l15-1.7s.5-1.8-1-1.9-4.1.8-6.1 5.5c-1.9 4.8 1.2 5 1.2 5s5-.5 8.8-15.5c.7-2.7-4.5 14-3.5 14.7s3.5-3.1 3.5-3.1l.5-1.9c.9.4 3.2.9 3.9-1.4s.2-4-.5-3.8-3.4 3.1-3.4 7 1.4 3.3 2.5 3.2c1.1-.1 3.3-2.8 3.8-6.2l13-2.6c-4.6 1.4-6.4-2.8-4-6 1.9-2.5 16.9-10.3 19.6-.4 0 10.4-12 10.1-14 8.5-1.3-1 .7 10.6.2 6.5s6.1-17.1 6.1-17.1-1.1 14.8 1.8 17.1c0 0 2.7-2.6 4-8.5.6.8 2-.2 2-.2s-1.8 7.5-.9 8.1c1.8 1.1 3-4.9 3-4.9h1s2.9-6.1 5.6-5.4 4.2 4 2.5 7.2c-1.7 3.2-3.5 4.1-5.5 3.7s-2.7-3.6-1.9-5.8c0 0 10.1-6 11.4-2.9 0 0-2.6 8.5-.6 9s4.9-9.9 4.9-9.9-2.2-.7 0 3.4l1.6.9c.9.4 3.2.9 3.9-1.4s.2-4-.5-3.8-3.4 3.1-3.4 7 1.4 3.3 2.5 3.2 3.3-2.8 3.8-6.2l3.9-4.1c-.4.8-2.9 10.7-2.9 10.7s5.5-9.8 6.6-9.7-1 6.5-1 6.5-.9 3.3.8 3.1c1.6-.1 3-2 4.1-5.1l6.6-.4s2.8-3.5 0-4.8-5.8 5.9-5.8 5.9-1.1 4.7 1.2 4.9c2.3.2 4.9-2.1 6.2-3.5.8-.9 1.9-3.2 1.9-3.2l1 1.1c.9.4 3.2.9 3.9-1.4s.2-4-.5-3.8-3.4 3.1-3.4 7 1.4 3.3 2.5 3.2c1.1-.1 3.3-2.8 3.8-6.2l3 3.6-1.9 4.2 3.6-3.1 2.6 3.6-.3-4.7 4.8 4.7-1.5-4.7" clip-path="url(#myClip)" fill="none" stroke-width="10" stroke-linejoin="round"/>
    <defs>
        <clipPath id="myClip" stroke-width="2.3">
            <path d="M24.7 11c-.8 1.7-2.1 3.3-4.1 4.7-1.8 1.2-3.8 2.2-6 2.8-.1.3-.2.7-.3 1.1-.1.4-.3.8-.4 1.2.4.2.9.3 1.3.6.6.3 1.4.8 2.3 1.4.3.2.6.5.9.7.3.3.4.5.4.6 0 .4-.2.6-.6.6-.2 0-.5-.1-.9-.4-.7-.6-1.2-1-1.5-1.1-.7-.4-1.5-.8-2.4-1.2-.6 1.5-1.4 2.6-2.6 3.5-1.1.9-2.3 1.3-3.6 1.3-1.1 0-2.1-.3-2.9-1S3 24.4 3 23.4c0-.5.2-1 .5-1.6.4-.7 1-1.2 1.9-1.6.9-.4 1.9-.6 3.1-.6 1.3 0 2.7.2 4 .7.3-.5.5-1.1.7-1.6-.6 0-1.1.1-1.7.1-1.9 0-3.5-.4-4.6-1.2-1.1-.8-1.7-1.7-1.7-2.8 0-.4.1-.7.3-.8s.4-.3.7-.3c.1 0 .2.1.3.2.1.1.2.2.2.3 0 .1 0 .2-.1.4 0 .2-.1.3-.1.4 0 .6.3 1.2.9 1.7.9.7 2.3 1 4.1 1h1.1c.3-.1.6-.1.8-.1l1.2-5.4c.4-1.4.8-2.7 1.3-3.8.6-1.3 1.2-2.3 1.8-3 .5-.6 1.1-1 1.8-1.3.7-.3 1.4-.4 2.1-.4.8 0 1.4.2 1.9.5s1 .8 1.3 1.5c.3.7.5 1.4.5 2.2 0 .5 0 1-.1 1.4-.1.7-.2 1.2-.5 1.7zM12.1 21.6c-.7-.2-1.3-.4-1.9-.5-.6-.1-1.2-.2-1.7-.2-.8 0-1.5.1-2.2.3-.6.2-1.1.5-1.4.9-.3.4-.4.9-.4 1.3 0 .6.2 1.2.7 1.7.5.5 1.2.7 2.1.7.8 0 1.4-.2 2.1-.5.6-.4 1.2-.9 1.6-1.6.1-.1.2-.4.4-.7.3-.6.5-1.1.7-1.4zM23.9 8.1c0-.9-.2-1.7-.7-2.2-.4-.5-1-.8-1.7-.8-1.3 0-2.5.7-3.5 2.2-.7 1.1-1.4 2.7-2 4.9-.3 1.1-.7 2.8-1.2 5.1 2.5-.8 4.7-2 6.4-3.7 1.8-1.8 2.7-3.6 2.7-5.5zM36.5 17c0 .4-.4 1.4-1.3 2.8-.7 1.2-1.4 2.2-2 2.9-.4.5-.7.8-1.1 1.1-.6.5-1.1.7-1.5.7-.3 0-.6-.1-.8-.4-.2-.3-.3-.6-.3-1.1 0-.3.1-.6.2-1-1 .9-1.6 1.5-1.9 1.7-.8.6-1.5.9-2.2.9-.5 0-.9-.2-1.2-.6-.3-.4-.5-.9-.5-1.6 0-.3 0-.6.1-.8 0-.3.1-.6.2-1 .3-1.1.8-2.2 1.5-3.4.7-1.3 1.5-2.3 2.4-3.2.4-.4.8-.7 1.2-.9.4-.2.8-.3 1.3-.3.7 0 1.2.3 1.6.9.3.5.5 1.1.5 1.9v1.6c0 .3-.1.7-.3 1.1-.5.9-.7 1.5-.7 1.5-.2.4-.3.8-.4 1.1-.2.5-.3 1-.3 1.4 0 .5 0 .7.1.7.2 0 .4-.2.8-.6.4-.4.7-.7.9-1 .4-.6.9-1.3 1.3-2 .5-.9.9-1.6 1.2-2.2.1-.2.2-.4.2-.5.2-.2.4-.3.6-.3.2.1.4.3.4.6zm-5.5.8c.2-.7.4-1.4.4-2.1 0-.5-.1-.9-.2-1.2-.1-.3-.4-.4-.7-.4-.9 0-2 1-3.4 3.1s-2 3.8-2 5.2c0 .3 0 .5.1.8.1.2.3.3.6.3.6 0 1.6-.7 2.8-2.1 1.2-1.4 2-2.6 2.4-3.6zM63.9 11.8c-.4 1.2-1.1 2.2-1.9 3.1-1.1 1.2-2.5 2.1-4.3 2.9S54.1 19 52.4 19h-1l-1 2.9c0 .1-.1.3-.1.6 0 .2-.1.4-.1.6 0 .2 0 .4.1.5.1.2.1.4.1.5-.1.5-.4.7-1 .7-.2 0-.4-.1-.6-.3s-.3-.5-.3-.8c0-.3.1-.6.2-1s.2-.8.3-1.1l1-2.9c-.3-.1-.4-.3-.5-.5-.1-.2-.1-.4-.1-.7 0-.2.2-.3.6-.3.1 0 .2 0 .3.1l1.2-3c.6-1.5 1.2-3.1 1.8-4.6.1-.3.5-1.2 1.1-2.4.2-.4.4-.7.7-.9.3-.2.5-.3.8-.3.2 0 .3.1.5.2s.2.3.2.6c0 .2 0 .4-.1.6-.1.2-.3.5-.5.8-.5.7-1 1.5-1.5 2.5-.3.6-.6 1.4-1 2.3-.7 1.8-1.3 3.3-1.6 4.6.4.1.9.1 1.4.1.5 0 1-.1 1.5-.2 1.8-.4 3.4-1.2 4.9-2.5 1.5-1.3 2.4-2.6 2.8-4.1.1-.5.2-.9.2-1.4 0-1.5-.6-2.6-1.9-3.5-1.3-.9-2.9-1.3-4.9-1.3-.8 0-1.6.1-2.3.2-1.3.2-2.6.6-4 1.2S47 7.5 46 8.4c-.8.6-1.4 1.2-1.8 1.9-.5.7-.7 1.2-.7 1.7 0 .6.2 1.2.5 1.6.6.7 1.7 1.1 3.3 1.1.3 0 .6 0 .9.1.2.1.4.2.4.5s-.1.5-.4.6-.7.1-1.3.1c-1.9 0-3.3-.5-4.1-1.5-.6-.7-.9-1.5-.9-2.5 0-.7.2-1.3.7-2 .3-.5.8-1.1 1.5-1.7.9-.9 2.2-1.7 3.8-2.5 1.6-.8 3.2-1.4 4.8-1.7.4-.1.9-.2 1.6-.3.6-.1 1.3-.1 1.9-.1.7 0 1.4 0 2 .1s1.3.3 1.9.5c1.4.5 2.6 1.2 3.3 2.2.8.9 1.2 2 1.2 3.3-.3.5-.4 1.3-.7 2zM65.9 19.9c-.4 1-.7 1.6-.8 1.9-.4.8-.8 1.5-1.3 1.9-.4.4-.9.7-1.2.7-.3 0-.6-.2-.9-.6-.3-.4-.4-.8-.4-1.4 0-.5.1-1 .2-1.6.1-.6.3-1.5.7-2.6l.5-1.5c-.3 0-.6-.1-.7-.3l-.2.6c-.6 1.9-1.2 3.2-1.5 4.1-.6 1.2-1.1 2.2-1.8 2.9-.4.4-.7.6-1.1.6-.4 0-.6-.2-.6-.6 0-.1.1-.3.3-.5.4-.4.7-.8.9-1 .6-.8 1.2-2 1.9-3.8.6-1.6 1-2.9 1.2-3.9.1-.4.1-.7.3-.9.2-.3.5-.5.8-.5.2 0 .3 0 .4.1.3.2.4.4.4.9 0 .1 0 .2-.1.4.2-.2.5-.3.8-.3.2 0 .4.1.5.2.1.1.2.3.2.5s0 .4-.1.6c-.2.6-.5 1.6-.9 2.8-.3 1.2-.5 2.1-.6 2.5-.1.4-.1.7-.1.8v.5c0 .5.1.8.4.8.1 0 .2-.1.3-.2.1-.1.3-.3.4-.5.1-.2.3-.6.6-1.4.3-.7.6-1.3.7-1.8.1-.3.2-.5.3-.6.1-.1.2-.2.4-.2.3 0 .4.2.4.5v.5c-.1-.1-.1.1-.3.4zM75.9 17.3c0 2.2-.7 4.1-2.2 5.5-1.3 1.3-2.6 1.9-4.1 1.9-1.1 0-1.9-.4-2.5-1.1-.6-.7-.9-1.7-.9-3 0-1.6.6-3.4 1.7-5.3 1.2-1.9 2.3-2.8 3.4-2.6.3-.1.6-.1.9-.1 1.1 0 1.9.4 2.6 1.1.7.9 1.1 2.1 1.1 3.6zm-1.4 0c0-1.2-.3-2-.8-2.6-.4-.5-.9-.7-1.5-.7h-.7s-.3.1-.5.2c-1 .4-1.8 1.3-2.5 2.7-.7 1.4-1.1 2.7-1.1 4 0 .9.2 1.6.7 2.1.4.4.9.6 1.5.6 1.3 0 2.4-.6 3.4-1.9s1.5-2.8 1.5-4.4zM83.2 15.3c0 .3-.1.6-.2.9-.1.3-.2.6-.2.7 0 .1 0 .3.1.5s.1.4.1.5c0 .1-.1.2-.2.3l-.3.3c-.2.4-.3.7-.5.9 0 0-.2.4-.4.9-.4.9-.8 1.7-1.2 2.4-.6 1-1.2 1.7-1.7 2-.2.2-.4.3-.7.3-.4 0-.8-.2-1-.6-.3-.4-.4-1-.4-1.8 0-.3 0-.7.1-1.1l.7-4.2c.2-.9.2-1.3.3-1.4.2-.7.5-1 .9-1s.7.3.7.8c0 .4-.1.9-.3 1.5s-.4 1.4-.6 2.1-.3 1.3-.4 1.6c-.1.7-.2 1.3-.2 1.7 0 .5.1.8.2 1 .1.1.2.2.3.2.1 0 .2 0 .3-.1l.3-.3c.2-.3.6-1 1.1-2 .5-1.1.9-1.9 1.1-2.5l.3-.9v-2.5s0-.5.1-.9.2-.6.4-.8c.2-.2.3-.3.5-.3s.4.1.6.2c.2.2.3.6.3 1.1-.1.2-.1.4-.1.5zM91.4 17.3c0 1.2-.6 2.6-1.7 4.3-1.3 1.9-2.5 2.8-3.7 2.8-.7 0-1.3-.2-1.7-.7-.5-.6-.7-1.5-.7-2.6 0-1.3.3-2.7.8-4.2.6-1.4 1.2-2.5 1.9-3.2.2-.2.5-.4.8-.5.3-.1.5-.2.7-.2.4 0 .7.1.9.4.4.4.6.9.6 1.6 0 1.3-.3 2.4-1 3.3s-1.5 1.4-2.5 1.4c-.2 0-.4 0-.7-.1 0 .2-.1.5-.1.7 0 .3-.1.5-.1.7 0 .6.1 1.1.3 1.5.2.4.5.6.9.6.7 0 1.4-.6 2.3-1.9s1.5-2.5 1.7-3.7c.1-.3.1-.6.2-.7.1-.3.3-.4.5-.4.5.2.6.4.6.9zm-3.3-2.1c0-.5-.2-.7-.5-.7s-.7.4-1.2 1.3c-.4.8-.8 1.7-1 2.6.1.1.2.1.3.1h.3c.6 0 1.1-.4 1.5-1.1.4-.7.6-1.4.6-2.2zM102.5 19.3c-.3.8-.7 1.6-1.2 2.5-.7 1.2-1.3 2-2 2.4-.4.3-.7.4-1.1.4-.2 0-.5-.1-.7-.2-.3-.2-.6-.5-.7-.8s-.2-.8-.2-1.3v-.8c0-.2.1-.5.1-.9.1-.4.2-1 .3-1.7.1-.7.4-1.7.8-2.9 0-.1.1-.2.1-.3 0-.1-.1-.2-.2-.2 0 0-.1 0-.1.1-.1.1-.3.2-.5.4-.6.7-1.2 1.5-1.7 2.2-.9 1.3-1.8 2.9-2.6 4.7-.2.4-.4.7-.6.8-.2.3-.3.3-.5.3-.1 0-.2-.1-.3-.3s-.2-.5-.2-.8c0-.3 0-.6.1-1s.2-1 .4-2c.3-1.2.6-2.1.8-2.7l.6-1.8c.1-.4.2-.7.2-1 0-.3.1-.6.1-1 .1-.3.2-.5.4-.7.2-.2.5-.3.7-.3.2 0 .4.1.5.2.1.1.2.3.2.6 0 .2-.1.5-.2.9-.6 1.5-1.1 3-1.7 4.4l-.4 1.5.8-1.2c.5-.8 1-1.5 1.6-2.3.7-.9 1.3-1.8 1.9-2.4.2-.2.3-.4.5-.5.2-.2.5-.3.7-.3.3 0 .6.1.7.3s.2.5.2.8c0 .2 0 .4-.1.6 0 .2-.1.4-.1.5-.3 1.2-.6 2.3-.8 3.5-.3 1.1-.4 2.1-.4 2.9v.5c0 .4 0 .6.1.8.1.2.2.3.4.3s.3-.1.5-.2l.5-.5c.3-.4.6-1 .9-1.6l.9-2.1c.2-.3.3-.5.5-.6.2-.1.3-.1.5-.1.3 0 .4.2.4.5 0-.1 0 .1-.1.4zM112.7 17.8c0 .2 0 .4-.1.7-.1.3-.3.7-.6 1.3-.8 1.4-1.8 2.6-3 3.6-1.3 1.1-2.7 1.7-3.9 1.7-.9 0-1.6-.3-2.1-.8-.5-.6-.8-1.4-.8-2.4 0-.7.1-1.4.3-2.1.5-1.7 1.2-3.2 2.2-4.4 1.1-1.4 2.3-2.1 3.4-2.1.8 0 1.4.3 1.9 1 .4.6.6 1.3.6 2.1-.3.9-.5 1.5-.6 1.6-.4.9-.8 1.3-1.3 1.3-.2 0-.4-.1-.5-.2-.1-.2-.2-.3-.2-.5s.1-.6.3-1c.2-.4.4-.9.6-1.4v-.4c0-.3 0-.6-.1-.7-.2-.2-.4-.4-.7-.4-.7 0-1.6.7-2.6 2.2-.9 1.3-1.5 2.5-1.8 3.6-.2.6-.2 1.1-.2 1.6 0 .6.1 1.1.4 1.5.2.4.6.6 1.2.6.8 0 1.7-.3 2.6-1 .9-.7 1.8-1.6 2.7-2.8.2-.3.6-1 1.1-2 .3-.6.6-.9.9-.9.1-.3.3-.1.3.3zM120.1 17.3c0 1.2-.6 2.6-1.7 4.3-1.3 1.9-2.5 2.8-3.7 2.8-.7 0-1.3-.2-1.7-.7-.5-.6-.7-1.5-.7-2.6 0-1.3.3-2.7.8-4.2.6-1.4 1.2-2.5 1.9-3.2.2-.2.5-.4.8-.5.3-.1.5-.2.7-.2.4 0 .7.1.9.4.4.4.6.9.6 1.6 0 1.3-.3 2.4-1 3.3s-1.5 1.4-2.5 1.4c-.2 0-.4 0-.7-.1 0 .2-.1.5-.1.7 0 .3-.1.5-.1.7 0 .6.1 1.1.3 1.5.2.4.5.6.9.6.7 0 1.4-.6 2.3-1.9s1.5-2.5 1.7-3.7c.1-.3.1-.6.2-.7.1-.3.3-.4.5-.4.5.2.6.4.6.9zm-3.3-2.1c0-.5-.2-.7-.5-.7s-.7.4-1.2 1.3c-.4.8-.8 1.7-1 2.6.1.1.2.1.3.1h.3c.6 0 1.1-.4 1.5-1.1.4-.7.6-1.4.6-2.2zM128.6 23.6c0 .3-.1.6-.4.8-.3.2-.6.3-1 .3s-.6-.1-.9-.3c-.2-.2-.3-.4-.3-.7 0-.4.1-.6.4-.8.3-.2.6-.3 1-.3s.7.1.9.3c.2.3.3.5.3.7zm1-4c0 .3-.1.5-.3.7-.3.3-.6.4-1.1.4-.5 0-.8-.1-1-.3-.2-.2-.3-.4-.3-.6 0-.3.1-.5.4-.8s.6-.3 1.1-.3c.4 0 .7.1.9.3.3.2.3.4.3.6zM146.5 15.9c0 .6-.1 1.2-.3 1.9-.3.9-.6 1.4-1.1 1.6-.1.1-.3.1-.4.1-.1 0-.2 0-.3-.1-.2-.1-.4-.3-.4-.6 0-.1 0-.3.1-.5 0-.1.1-.2.1-.2.2-.3.3-.6.5-1 .2-.5.3-.9.3-1.3 0-.3-.1-.6-.3-.8-.3-.3-.8-.5-1.5-.5-.5 0-1.1.1-1.6.3-.5.2-1 .5-1.3.9-.2.2-.3.5-.5.7-.1.2-.2.5-.2.8 0 .3 0 .5.1.8.1.3.3.5.5.8.2.3.7.7 1.5 1.2.6.5 1.1.8 1.4 1.1.3.3.6.5.8.8.3.4.4.7.4 1.1 0 .5-.3.9-.9 1.2-.5.2-1.1.3-1.8.3-1.3 0-2.4-.2-3.1-.7-.6-.4-.9-.9-.9-1.4 0-.3.1-.6.3-.9.2-.3.5-.4.7-.4.3 0 .5.1.5.4 0 .2-.1.3-.2.4-.1.1-.2.3-.2.4 0 .3.3.6.8.8.5.2 1.2.4 2.2.4.5 0 .8 0 .9-.1.2-.1.2-.2.2-.3 0-.2-.1-.4-.4-.7-.3-.3-.9-.7-1.7-1.3-.7-.5-1.2-.8-1.5-1.2-.4-.4-.7-.7-.9-1.1s-.2-.8-.2-1.2c0-.3 0-.6.1-.9.1-.2.2-.5.3-.8.3-.6.8-1.1 1.3-1.5.7-.5 1.5-.8 2.5-1l1.1-.1c.8 0 1.5.2 1.9.7 1 .3 1.2 1 1.2 1.9zM158.7 17c0 .4-.4 1.4-1.3 2.8-.7 1.2-1.4 2.2-2 2.9-.4.5-.7.8-1.1 1.1-.6.5-1.1.7-1.5.7-.3 0-.6-.1-.8-.4-.2-.3-.3-.6-.3-1.1 0-.3.1-.6.2-1-1 .9-1.6 1.5-1.9 1.7-.8.6-1.5.9-2.2.9-.5 0-.9-.2-1.2-.6-.3-.4-.5-.9-.5-1.6 0-.3 0-.6.1-.8 0-.3.1-.6.2-1 .3-1.1.8-2.2 1.5-3.4.7-1.3 1.5-2.3 2.4-3.2.4-.4.8-.7 1.2-.9.4-.2.8-.3 1.3-.3.7 0 1.2.3 1.6.9.3.5.5 1.1.5 1.9v1.6c0 .3-.1.7-.3 1.1-.5.9-.7 1.5-.7 1.5-.2.4-.3.8-.4 1.1-.2.5-.3 1-.3 1.4 0 .5 0 .7.1.7.2 0 .4-.2.8-.6.4-.4.7-.7.9-1 .4-.6.9-1.3 1.3-2 .5-.9.9-1.6 1.2-2.2.1-.2.2-.4.2-.5.2-.2.4-.3.6-.3.3.1.4.3.4.6zm-5.5.8c.2-.7.4-1.4.4-2.1 0-.5-.1-.9-.2-1.2-.1-.3-.4-.4-.7-.4-.9 0-2 1-3.4 3.1s-2 3.8-2 5.2c0 .3 0 .5.1.8.1.2.3.3.6.3.6 0 1.6-.7 2.8-2.1 1.2-1.4 2-2.6 2.4-3.6zM172.4 7.8c0 .9-.2 1.9-.5 3-.5 1.6-1.1 3.2-2 4.8-1.2 2.2-2.5 4.1-4 5.5 0 .3-.1.6-.1 1 0 .6.1.9.2 1.1.1.2.2.3.4.3s.5-.1.8-.4c.6-.5 1.2-1.4 1.9-2.6.6-.9 1.1-1.9 1.5-2.8.1-.3.2-.5.3-.5.2-.2.3-.3.5-.3.3 0 .4.2.4.6 0 .2-.1.5-.2.8-.4.8-.8 1.6-1.3 2.4-.6.9-1.1 1.7-1.6 2.4s-1 1.1-1.6 1.4c-.4.2-.8.4-1.2.4-.4 0-.7-.2-.9-.6-.3-.5-.5-1.3-.5-2.3-.2-.1-.4-.3-.4-.5 0-.4.1-.7.3-1 .2-1.6.5-3.2 1-4.9.5-1.7 1-3.4 1.7-4.9.9-2.2 1.9-3.6 2.7-4.2.2-.1.3-.2.5-.3.2-.1.4-.1.5-.1.5 0 .9.1 1.1.4.4.3.5.7.5 1.3zm-1.2.4c0-.5-.1-.8-.3-.8s-.5.3-.9.8c-.5.6-.9 1.6-1.5 2.8-.6 1.5-1.2 2.9-1.6 4.4-.5 1.5-.8 2.9-.9 4.1 1.4-1.7 2.6-3.7 3.7-6.2 1-2.4 1.5-4 1.5-5.1zM184.5 17c0 .4-.4 1.4-1.3 2.8-.7 1.2-1.4 2.2-2 2.9-.4.5-.7.8-1.1 1.1-.6.5-1.1.7-1.5.7-.3 0-.6-.1-.8-.4-.2-.3-.3-.6-.3-1.1 0-.3.1-.6.2-1-1 .9-1.6 1.5-1.9 1.7-.8.6-1.5.9-2.2.9-.5 0-.9-.2-1.2-.6-.3-.4-.5-.9-.5-1.6 0-.3 0-.6.1-.8 0-.3.1-.6.2-1 .3-1.1.8-2.2 1.5-3.4.7-1.3 1.5-2.3 2.4-3.2.4-.4.8-.7 1.2-.9.4-.2.8-.3 1.3-.3.7 0 1.2.3 1.6.9.3.5.5 1.1.5 1.9v1.6c0 .3-.1.7-.3 1.1-.5.9-.7 1.5-.7 1.5-.2.4-.3.8-.4 1.1-.2.5-.3 1-.3 1.4 0 .5 0 .7.1.7.2 0 .4-.2.8-.6.4-.4.7-.7.9-1 .4-.6.9-1.3 1.3-2 .5-.9.9-1.6 1.2-2.2.1-.2.2-.4.2-.5.2-.2.4-.3.6-.3.3.1.4.3.4.6zm-5.5.8c.2-.7.4-1.4.4-2.1 0-.5-.1-.9-.2-1.2-.1-.3-.4-.4-.7-.4-.9 0-2 1-3.4 3.1s-2 3.8-2 5.2c0 .3 0 .5.1.8.1.2.3.3.6.3.6 0 1.6-.7 2.8-2.1 1.2-1.4 2-2.6 2.4-3.6zM190.6 15.3c0 .3-.1.6-.2.9-.1.3-.2.6-.2.7 0 .1 0 .3.1.5s.1.4.1.5c0 .1-.1.2-.2.3l-.3.3c-.2.4-.3.7-.5.9 0 0-.2.4-.4.9-.4.9-.8 1.7-1.2 2.4-.6 1-1.2 1.7-1.7 2-.3.2-.5.2-.8.2-.4 0-.8-.2-1-.6-.3-.4-.4-1-.4-1.8 0-.3 0-.7.1-1.1l.7-4.2c.2-.9.2-1.3.3-1.4.2-.7.5-1 .9-1s.7.3.7.8c0 .4-.1.9-.3 1.5s-.4 1.4-.6 2.1-.3 1.3-.4 1.6c-.1.7-.2 1.3-.2 1.7 0 .5.1.8.2 1 .1.1.2.2.3.2.1 0 .2 0 .3-.1l.3-.3c.2-.3.6-1 1.1-2 .5-1.1.9-1.9 1.1-2.5l.3-.9v-2.5s0-.5.1-.9.2-.6.4-.8c.2-.2.3-.3.5-.3s.4.1.6.2c.2.2.3.6.3 1.1v.6zM203.2 17c0 .4-.4 1.4-1.3 2.8-.7 1.2-1.4 2.2-2 2.9-.4.5-.7.8-1.1 1.1-.6.5-1.1.7-1.5.7-.3 0-.6-.1-.8-.4-.2-.3-.3-.6-.3-1.1 0-.3.1-.6.2-1-1 .9-1.6 1.5-1.9 1.7-.8.6-1.5.9-2.2.9-.5 0-.9-.2-1.2-.6-.3-.4-.5-.9-.5-1.6 0-.3 0-.6.1-.8 0-.3.1-.6.2-1 .3-1.1.8-2.2 1.5-3.4.7-1.3 1.5-2.3 2.4-3.2.4-.4.8-.7 1.2-.9.4-.2.8-.3 1.3-.3.7 0 1.2.3 1.6.9.3.5.5 1.1.5 1.9v1.6c0 .3-.1.7-.3 1.1-.5.9-.7 1.5-.7 1.5-.2.4-.3.8-.4 1.1-.2.5-.3 1-.3 1.4 0 .5 0 .7.1.7.2 0 .4-.2.8-.6.4-.4.7-.7.9-1 .4-.6.9-1.3 1.3-2 .5-.9.9-1.6 1.2-2.2.1-.2.2-.4.2-.5.2-.2.4-.3.6-.3.2.1.4.3.4.6zm-5.5.8c.2-.7.4-1.4.4-2.1 0-.5-.1-.9-.2-1.2-.1-.3-.4-.4-.7-.4-.9 0-2 1-3.4 3.1s-2 3.8-2 5.2c0 .3 0 .5.1.8.1.2.3.3.6.3.6 0 1.6-.7 2.8-2.1 1.2-1.4 2-2.6 2.4-3.6zM213.4 19.3c-.3.8-.7 1.6-1.2 2.5-.7 1.2-1.3 2-2 2.4-.4.3-.7.4-1.1.4-.2 0-.5-.1-.7-.2-.3-.2-.6-.5-.7-.8s-.2-.8-.2-1.3v-.8c0-.2.1-.5.1-.9.1-.4.2-1 .3-1.7.1-.7.4-1.7.8-2.9 0-.1.1-.2.1-.3 0-.1-.1-.2-.2-.2 0 0-.1 0-.1.1-.1.1-.3.2-.5.4-.6.7-1.2 1.5-1.7 2.2-.9 1.3-1.8 2.9-2.6 4.7-.2.4-.4.7-.6.8-.2.1-.3.2-.5.2-.1 0-.2-.1-.3-.3s-.2-.5-.2-.8c0-.3 0-.6.1-1s.2-1 .4-2c.3-1.2.6-2.1.8-2.7l.6-1.8c.1-.4.2-.7.2-1 0-.3.1-.6.1-1 .1-.3.2-.5.4-.7.2-.2.5-.3.7-.3.2 0 .4.1.5.2.1.1.2.3.2.6 0 .2-.1.5-.2.9-.6 1.5-1.1 3-1.7 4.4l-.4 1.5.8-1.2c.5-.8 1-1.5 1.6-2.3.7-.9 1.3-1.8 1.9-2.4.2-.2.3-.4.5-.5.2-.2.5-.3.7-.3.3 0 .6.1.7.3s.2.5.2.8c0 .2 0 .4-.1.6 0 .2-.1.4-.1.5-.3 1.2-.6 2.3-.8 3.5-.3 1.1-.4 2.1-.4 2.9v.5c0 .4 0 .6.1.8.1.2.2.3.4.3s.3-.1.5-.2l.5-.5c.3-.4.6-1 .9-1.6l.9-2.1c.2-.3.3-.5.5-.6.2-.1.3-.1.5-.1.3 0 .4.2.4.5 0 0 0 .2-.1.5zM225 9.7c-1.2 3.3-1.9 5.5-2.3 6.7-.3.9-.6 2.1-1.1 3.8-.1.4-.2.9-.3 1.4-.2.8-.3 1.2-.3 1.4 0 .4.1.7.4.7.1 0 .3-.1.5-.3l.6-.6c.4-.5.7-1 .9-1.4.2-.4.5-.8.7-1.3.1-.1.2-.2.2-.3.1-.1.2-.1.3-.1.1 0 .1 0 .2.1s.1.2.1.4-.1.5-.3.9c-.3.5-.6 1-1 1.6-.4.6-.8 1.1-1.3 1.5-.2.2-.4.4-.6.5-.2.1-.4.2-.7.2-.3 0-.6-.2-.9-.5-.3-.3-.4-.8-.4-1.6 0-.4 0-.7.1-1.1-.3.4-.7.8-1 1.2-.2.3-.5.6-.9.9-.5.4-.9.8-1.4 1-.6.3-1.1.5-1.6.5-.3 0-.6-.1-.8-.2-.3-.2-.5-.4-.7-.7-.2-.3-.3-.6-.4-.9-.1-.3-.1-.6-.1-.9 0-.4 0-.7.1-1.1.1-.4.1-.7.2-1 .4-1.4 1-2.7 1.8-3.9.8-1.2 1.6-2 2.5-2.7.3-.2.7-.4 1-.5.3-.1.6-.2.9-.2.5 0 .8.1 1.2.3.3.2.6.6.8 1.1l.5-1.4.8-2.5.5-1.6.3-.6c.1-.2.3-.3.6-.3.4 0 .7.2.7.7 0 .2 0 .3-.1.5.4.1.4.2.3.3zm-4.5 8.9c.3-.8.5-1.6.5-2.2 0-.6-.1-1-.3-1.3-.2-.3-.5-.5-.8-.5-.3 0-.7.1-1 .3-.2.1-.5.2-.6.4-.6.5-1.2 1.2-1.8 2-.7 1-1.3 2.2-1.6 3.4-.2.7-.3 1.4-.3 2 0 1.1.3 1.7 1 1.7.3 0 .7-.2 1.2-.5.6-.4 1.3-1.1 1.9-2 .7-1.1 1.3-2.2 1.8-3.3zM232.1 17.3c0 1.2-.6 2.6-1.7 4.3-1.3 1.9-2.5 2.8-3.7 2.8-.7 0-1.3-.2-1.7-.7-.5-.6-.7-1.5-.7-2.6 0-1.3.3-2.7.8-4.2.6-1.4 1.2-2.5 1.9-3.2.2-.2.5-.4.8-.5.3-.1.5-.2.7-.2.4 0 .7.1.9.4.4.4.6.9.6 1.6 0 1.3-.3 2.4-1 3.3s-1.5 1.4-2.5 1.4c-.2 0-.4 0-.7-.1 0 .2-.1.5-.1.7 0 .3-.1.5-.1.7 0 .6.1 1.1.3 1.5.2.4.5.6.9.6.7 0 1.4-.6 2.3-1.9s1.5-2.5 1.7-3.7c.1-.3.1-.6.2-.7.1-.3.3-.4.5-.4.5.2.6.4.6.9zm-3.3-2.1c0-.5-.2-.7-.5-.7s-.7.4-1.2 1.3c-.4.8-.8 1.7-1 2.6.1.1.2.1.3.1h.3c.6 0 1.1-.4 1.5-1.1.4-.7.6-1.4.6-2.2zM235.9 22.9c0 .2-.2.5-.5.8-.1.1-.4.3-.7.5l-1.5 1.7c-.1.2-.3.4-.6.8-.2.4-.4.7-.5.8s-.2.3-.2.5c-.2.3-.5.4-.9.4-.2 0-.4 0-.5-.1-.1-.1-.1-.2-.1-.3 0-.1.1-.3.3-.7.8-1.4 1.5-2.4 2-3.2 1-1.3 1.8-1.9 2.4-1.9.1 0 .2 0 .4.1s.4.3.4.6zM252.7 15.9c0 .6-.1 1.2-.3 1.9-.3.9-.6 1.4-1.1 1.6-.1.1-.3.1-.4.1-.1 0-.2 0-.3-.1-.2-.1-.4-.3-.4-.6 0-.1 0-.3.1-.5 0-.1.1-.2.1-.2.2-.3.3-.6.5-1 .2-.5.3-.9.3-1.3 0-.3-.1-.6-.3-.8-.3-.3-.8-.5-1.5-.5-.5 0-1.1.1-1.6.3-.5.2-1 .5-1.3.9-.2.2-.3.5-.5.7-.1.2-.2.5-.2.8 0 .3 0 .5.1.8.1.3.3.5.5.8.2.3.7.7 1.5 1.2.6.5 1.1.8 1.4 1.1.3.3.6.5.8.8.3.4.4.7.4 1.1 0 .5-.3.9-.9 1.2-.5.2-1.1.3-1.8.3-1.3 0-2.4-.2-3.1-.7-.6-.4-.9-.9-.9-1.4 0-.3.1-.6.3-.9.2-.3.5-.4.7-.4.3 0 .5.1.5.4 0 .2-.1.3-.2.4-.1.1-.2.3-.2.4 0 .3.3.6.8.8.5.2 1.2.4 2.2.4.5 0 .8 0 .9-.1.2-.1.2-.2.2-.3 0-.2-.1-.4-.4-.7-.3-.3-.9-.7-1.7-1.3-.7-.5-1.2-.8-1.5-1.2-.4-.4-.7-.7-.9-1.1s-.2-.8-.2-1.2c0-.3 0-.6.1-.9.1-.2.2-.5.3-.8.3-.6.8-1.1 1.3-1.5.7-.5 1.5-.8 2.5-1l1.1-.1c.8 0 1.5.2 1.9.7 1 .3 1.2 1 1.2 1.9zM260.5 17.3c0 1.2-.6 2.6-1.7 4.3-1.3 1.9-2.5 2.8-3.7 2.8-.7 0-1.3-.2-1.7-.7-.5-.6-.7-1.5-.7-2.6 0-1.3.3-2.7.8-4.2.6-1.4 1.2-2.5 1.9-3.2.2-.2.5-.4.8-.5.3-.1.5-.2.7-.2.4 0 .7.1.9.4.4.4.6.9.6 1.6 0 1.3-.3 2.4-1 3.3s-1.5 1.4-2.5 1.4c-.2 0-.4 0-.7-.1 0 .2-.1.5-.1.7 0 .3-.1.5-.1.7 0 .6.1 1.1.3 1.5.2.4.5.6.9.6.7 0 1.4-.6 2.3-1.9s1.5-2.5 1.7-3.7c.1-.3.1-.6.2-.7.1-.3.3-.4.5-.4.4.2.6.4.6.9zm-3.4-2.1c0-.5-.2-.7-.5-.7s-.7.4-1.2 1.3c-.4.8-.8 1.7-1 2.6.1.1.2.1.3.1h.3c.6 0 1.1-.4 1.5-1.1.4-.7.6-1.4.6-2.2zM269.1 15.9c0 .6-.1 1.2-.3 1.9-.3.9-.6 1.4-1.1 1.6-.1.1-.3.1-.4.1-.1 0-.2 0-.3-.1-.2-.1-.4-.3-.4-.6 0-.1 0-.3.1-.5 0-.1.1-.2.1-.2.2-.3.3-.6.5-1 .2-.5.3-.9.3-1.3 0-.3-.1-.6-.3-.8-.3-.3-.8-.5-1.5-.5-.5 0-1.1.1-1.6.3-.5.2-1 .5-1.3.9-.2.2-.3.5-.5.7-.1.2-.2.5-.2.8 0 .3 0 .5.1.8.1.3.3.5.5.8.2.3.7.7 1.5 1.2.6.5 1.1.8 1.4 1.1.3.3.6.5.8.8.3.4.4.7.4 1.1 0 .5-.3.9-.9 1.2-.5.2-1.1.3-1.8.3-1.3 0-2.4-.2-3.1-.7-.6-.4-.9-.9-.9-1.4 0-.3.1-.6.3-.9.2-.3.5-.4.7-.4.3 0 .5.1.5.4 0 .2-.1.3-.2.4-.1.1-.2.3-.2.4 0 .3.3.6.8.8.5.2 1.2.4 2.2.4.5 0 .8 0 .9-.1.2-.1.2-.2.2-.3 0-.2-.1-.4-.4-.7-.3-.3-.9-.7-1.7-1.3-.7-.5-1.2-.8-1.5-1.2-.4-.4-.7-.7-.9-1.1s-.2-.8-.2-1.2c0-.3 0-.6.1-.9.1-.2.2-.5.3-.8.3-.6.8-1.1 1.3-1.5.7-.5 1.5-.8 2.5-1l1.1-.1c.8 0 1.5.2 1.9.7 1 .3 1.2 1 1.2 1.9zM284.8 17.3c0 2.2-.7 4.1-2.2 5.5-1.3 1.3-2.6 1.9-4.1 1.9-1.1 0-1.9-.4-2.5-1.1-.6-.7-.9-1.7-.9-3 0-1.6.6-3.4 1.7-5.3 1.2-1.9 2.3-2.8 3.4-2.6.3-.1.6-.1.9-.1 1.1 0 1.9.4 2.6 1.1.7.9 1.1 2.1 1.1 3.6zm-1.4 0c0-1.2-.3-2-.8-2.6-.4-.5-.9-.7-1.5-.7h-.7s-.3.1-.5.2c-1 .4-1.8 1.3-2.5 2.7-.7 1.4-1.1 2.7-1.1 4 0 .9.2 1.6.7 2.1.4.4.9.6 1.5.6 1.3 0 2.4-.6 3.4-1.9s1.5-2.8 1.5-4.4zM293.8 7.8c0 .9-.2 1.9-.5 3-.5 1.6-1.1 3.2-2 4.8-1.2 2.2-2.5 4.1-4 5.5 0 .3-.1.6-.1 1 0 .6.1.9.2 1.1.1.2.2.3.4.3s.5-.1.8-.4c.6-.5 1.2-1.4 1.9-2.6.6-.9 1.1-1.9 1.5-2.8.1-.3.2-.5.3-.5.2-.2.3-.3.5-.3.3 0 .4.2.4.6 0 .2-.1.5-.2.8-.4.8-.8 1.6-1.3 2.4-.6.9-1.1 1.7-1.6 2.4s-1 1.1-1.6 1.4c-.4.2-.8.4-1.2.4-.4 0-.7-.2-.9-.6-.3-.5-.5-1.3-.5-2.3-.2-.1-.4-.3-.4-.5 0-.4.1-.7.3-1 .2-1.6.5-3.2 1-4.9.5-1.7 1-3.4 1.7-4.9.9-2.2 1.9-3.6 2.7-4.2.2-.1.3-.2.5-.3.2-.1.4-.1.5-.1.5 0 .9.1 1.1.4.4.3.5.7.5 1.3zm-1.2.4c0-.5-.1-.8-.3-.8s-.5.3-.9.8c-.5.6-.9 1.6-1.5 2.8-.6 1.5-1.2 2.9-1.6 4.4-.5 1.5-.8 2.9-.9 4.1 1.4-1.7 2.6-3.7 3.7-6.2 1-2.4 1.5-4 1.5-5.1zM299.7 18.5c-.2.6-.6 1.3-1.1 2.2s-1 1.5-1.5 2.1c-.4.5-.9.9-1.3 1.2s-.7.4-1 .4c-.4 0-.7-.2-.8-.5-.2-.3-.3-.8-.3-1.3 0-.4 0-.8.1-1.2.1-.4.1-.7.2-1.1.3-1.5.8-2.9 1.4-4.2.2-.4.4-.7.6-.9.2-.2.4-.3.7-.3.2 0 .3.1.5.2.1.1.2.3.2.5 0 .1 0 .3-.1.5-.2.3-.3.7-.5.9-.3.6-.6 1.3-.9 2.2-.3.9-.6 1.6-.7 2.3-.1.4-.1.8-.1 1 0 .4.1.6.3.6.2 0 .4-.1.6-.4.5-.6 1.1-1.4 1.6-2.5.4-.8.8-1.5 1.2-2.3.1-.2.2-.3.3-.5s.3-.2.5-.2c.3 0 .4.2.4.5-.2.3-.2.5-.3.8zm-1.5-6.6c0 .4-.1.7-.4 1-.3.3-.5.4-.8.4-.2 0-.4-.1-.6-.3-.2-.2-.3-.4-.3-.7 0-.4.1-.7.3-.9.2-.2.5-.4.9-.4.3 0 .5.1.7.2.1.1.2.4.2.7zM306.5 15.3c0 .3-.1.6-.2.9-.1.3-.2.6-.2.7 0 .1 0 .3.1.5s.1.4.1.5c0 .1-.1.2-.2.3l-.3.3c-.2.4-.3.7-.5.9 0 0-.2.4-.4.9-.4.9-.8 1.7-1.2 2.4-.6 1-1.2 1.7-1.7 2-.3.2-.5.2-.8.2-.4 0-.8-.2-1-.6-.3-.4-.4-1-.4-1.8 0-.3 0-.7.1-1.1l.7-4.2c.2-.9.2-1.3.3-1.4.2-.7.5-1 .9-1s.7.3.7.8c0 .4-.1.9-.3 1.5s-.4 1.4-.6 2.1-.3 1.3-.4 1.6c-.1.7-.2 1.3-.2 1.7 0 .5.1.8.2 1 .1.1.2.2.3.2.1 0 .2 0 .3-.1l.3-.3c.2-.3.6-1 1.1-2 .5-1.1.9-1.9 1.1-2.5l.3-.9v-2.5s0-.5.1-.9.2-.6.4-.8c.2-.2.3-.3.5-.3s.4.1.6.2c.2.2.3.6.3 1.1.1.3.1.5 0 .6zM314.7 17.3c0 1.2-.6 2.6-1.7 4.3-1.3 1.9-2.5 2.8-3.7 2.8-.7 0-1.3-.2-1.7-.7-.5-.6-.7-1.5-.7-2.6 0-1.3.3-2.7.8-4.2.6-1.4 1.2-2.5 1.9-3.2.2-.2.5-.4.8-.5.3-.1.5-.2.7-.2.4 0 .7.1.9.4.4.4.6.9.6 1.6 0 1.3-.3 2.4-1 3.3s-1.5 1.4-2.5 1.4c-.2 0-.4 0-.7-.1 0 .2-.1.5-.1.7 0 .3-.1.5-.1.7 0 .6.1 1.1.3 1.5.2.4.5.6.9.6.7 0 1.4-.6 2.3-1.9s1.5-2.5 1.7-3.7c.1-.3.1-.6.2-.7.1-.3.3-.4.5-.4.5.2.6.4.6.9zm-3.3-2.1c0-.5-.2-.7-.5-.7s-.7.4-1.2 1.3c-.4.8-.8 1.7-1 2.6.1.1.2.1.3.1h.3c.6 0 1.1-.4 1.5-1.1.4-.7.6-1.4.6-2.2zM323.4 15.9c0 .6-.1 1.2-.3 1.9-.3.9-.6 1.4-1.1 1.6-.1.1-.3.1-.4.1-.1 0-.2 0-.3-.1-.2-.1-.4-.3-.4-.6 0-.1 0-.3.1-.5 0-.1.1-.2.1-.2.2-.3.3-.6.5-1 .2-.5.3-.9.3-1.3 0-.3-.1-.6-.3-.8-.3-.3-.8-.5-1.5-.5-.5 0-1.1.1-1.6.3-.5.2-1 .5-1.3.9-.2.2-.3.5-.5.7-.1.2-.2.5-.2.8 0 .3 0 .5.1.8.1.3.3.5.5.8.2.3.7.7 1.5 1.2.6.5 1.1.8 1.4 1.1.3.3.6.5.8.8.3.4.4.7.4 1.1 0 .5-.3.9-.9 1.2-.5.2-1.1.3-1.8.3-1.3 0-2.4-.2-3.1-.7-.6-.4-.9-.9-.9-1.4 0-.3.1-.6.3-.9.2-.3.5-.4.7-.4.3 0 .5.1.5.4 0 .2-.1.3-.2.4-.1.1-.2.3-.2.4 0 .3.3.6.8.8.5.2 1.2.4 2.2.4.5 0 .8 0 .9-.1.2-.1.2-.2.2-.3 0-.2-.1-.4-.4-.7-.3-.3-.9-.7-1.7-1.3-.7-.5-1.2-.8-1.5-1.2-.4-.4-.7-.7-.9-1.1s-.2-.8-.2-1.2c0-.3 0-.6.1-.9.1-.2.2-.5.3-.8.3-.6.8-1.1 1.3-1.5.7-.5 1.5-.8 2.5-1l1.1-.1c.8 0 1.5.2 1.9.7.9.3 1.2 1 1.2 1.9zM327 22.9c0 .2-.2.5-.5.8-.1.1-.4.3-.7.5l-1.5 1.7c-.1.2-.3.4-.6.8-.2.4-.4.7-.5.8s-.2.3-.2.5c-.2.3-.5.4-.9.4-.2 0-.4 0-.5-.1-.1-.1-.1-.2-.1-.3 0-.1.1-.3.3-.7.8-1.4 1.5-2.4 2-3.2 1-1.3 1.8-1.9 2.4-1.9.1 0 .2 0 .4.1s.4.3.4.6zM343.8 15.9c0 .6-.1 1.2-.3 1.9-.3.9-.6 1.4-1.1 1.6-.1.1-.3.1-.4.1-.1 0-.2 0-.3-.1-.2-.1-.4-.3-.4-.6 0-.1 0-.3.1-.5 0-.1.1-.2.1-.2.2-.3.3-.6.5-1 .2-.5.3-.9.3-1.3 0-.3-.1-.6-.3-.8-.3-.3-.8-.5-1.5-.5-.5 0-1.1.1-1.6.3-.5.2-1 .5-1.3.9-.2.2-.3.5-.5.7-.1.2-.2.5-.2.8 0 .3 0 .5.1.8.1.3.3.5.5.8.2.3.7.7 1.5 1.2.6.5 1.1.8 1.4 1.1.3.3.6.5.8.8.3.4.4.7.4 1.1 0 .5-.3.9-.9 1.2-.5.2-1.1.3-1.8.3-1.3 0-2.4-.2-3.1-.7-.6-.4-.9-.9-.9-1.4 0-.3.1-.6.3-.9.2-.3.5-.4.7-.4.3 0 .5.1.5.4 0 .2-.1.3-.2.4-.1.1-.2.3-.2.4 0 .3.3.6.8.8.5.2 1.2.4 2.2.4.5 0 .8 0 .9-.1.2-.1.2-.2.2-.3 0-.2-.1-.4-.4-.7-.3-.3-.9-.7-1.7-1.3-.7-.5-1.2-.8-1.5-1.2-.4-.4-.7-.7-.9-1.1s-.2-.8-.2-1.2c0-.3 0-.6.1-.9.1-.2.2-.5.3-.8.3-.6.8-1.1 1.3-1.5.7-.5 1.5-.8 2.5-1l1.1-.1c.8 0 1.5.2 1.9.7 1 .3 1.2 1 1.2 1.9zM356 17c0 .4-.4 1.4-1.3 2.8-.7 1.2-1.4 2.2-2 2.9-.4.5-.7.8-1.1 1.1-.6.5-1.1.7-1.5.7-.3 0-.6-.1-.8-.4-.2-.3-.3-.6-.3-1.1 0-.3.1-.6.2-1-1 .9-1.6 1.5-1.9 1.7-.8.6-1.5.9-2.2.9-.5 0-.9-.2-1.2-.6-.3-.4-.5-.9-.5-1.6 0-.3 0-.6.1-.8 0-.3.1-.6.2-1 .3-1.1.8-2.2 1.5-3.4.7-1.3 1.5-2.3 2.4-3.2.4-.4.8-.7 1.2-.9.4-.2.8-.3 1.3-.3.7 0 1.2.3 1.6.9.3.5.5 1.1.5 1.9v1.6c0 .3-.1.7-.3 1.1-.5.9-.7 1.5-.7 1.5-.2.4-.3.8-.4 1.1-.2.5-.3 1-.3 1.4 0 .5 0 .7.1.7.2 0 .4-.2.8-.6.4-.4.7-.7.9-1 .4-.6.9-1.3 1.3-2 .5-.9.9-1.6 1.2-2.2.1-.2.2-.4.2-.5.2-.2.4-.3.6-.3.2.1.4.3.4.6zm-5.6.8c.2-.7.4-1.4.4-2.1 0-.5-.1-.9-.2-1.2-.1-.3-.4-.4-.7-.4-.9 0-2 1-3.4 3.1s-2 3.8-2 5.2c0 .3 0 .5.1.8.1.2.3.3.6.3.6 0 1.6-.7 2.8-2.1 1.3-1.4 2.1-2.6 2.4-3.6zM371.3 17.8c0 .2 0 .4-.1.7-.1.3-.3.7-.6 1.3-.8 1.4-1.8 2.6-3 3.6-1.3 1.1-2.7 1.7-3.9 1.7-.9 0-1.6-.3-2.1-.8-.5-.6-.8-1.4-.8-2.4 0-.7.1-1.4.3-2.1.5-1.7 1.2-3.2 2.2-4.4 1.1-1.4 2.3-2.1 3.4-2.1.8 0 1.4.3 1.9 1 .4.6.6 1.3.6 2.1-.3.9-.5 1.5-.6 1.6-.4.9-.8 1.3-1.3 1.3-.2 0-.4-.1-.5-.2-.1-.2-.2-.3-.2-.5s.1-.6.3-1c.2-.4.4-.9.6-1.4v-.4c0-.3 0-.6-.1-.7-.2-.2-.4-.4-.7-.4-.7 0-1.6.7-2.6 2.2-.9 1.3-1.5 2.5-1.8 3.6-.2.6-.2 1.1-.2 1.6 0 .6.1 1.1.4 1.5.2.4.6.6 1.2.6.8 0 1.7-.3 2.6-1 .9-.7 1.8-1.6 2.7-2.8.2-.3.6-1 1.1-2 .3-.6.6-.9.9-.9.1-.3.3-.1.3.3zM381.6 19.2c-.4.8-.9 1.7-1.5 2.6-.7.9-1.3 1.6-1.8 2.1-.2.2-.4.3-.5.4-.2.1-.3.1-.5.1s-.5-.2-.7-.5c-.1-.2-.2-.4-.3-.7s-.1-.6-.1-.9V22c-.6.7-1 1.3-1.4 1.6-.4.4-.8.6-1.1.8-.3.2-.6.2-.8.2-.4 0-.7-.2-1-.5-.1-.2-.2-.4-.3-.8-.1-.3-.1-.6-.1-.9 0-.4 0-.7.1-1 0-.2.1-.5.2-.9.2-.9.7-2 1.2-3.2.6-1.2 1.2-2.1 1.8-2.8l.4-.4c.1-.1.3-.1.5-.1s.4.1.5.2c.2.1.2.3.2.5s-.1.5-.4.9c-.5.7-1 1.5-1.5 2.2-.5.9-.9 1.7-1.2 2.4-.2.4-.3.8-.4 1.2-.1.5-.2.9-.2 1.2 0 .3 0 .5.1.6s.2.2.3.2c.2 0 .4-.1.7-.3.3-.2.6-.6 1-1 .7-.8 1.3-1.7 1.7-2.5.2-.3.5-1.1 1-2.3.1-.3.3-.6.4-.8.2-.3.5-.5.8-.5.2 0 .3.1.5.2s.2.3.2.5c0 .3-.2.7-.5 1.3-.4.6-.8 1.2-1 1.7-.2.5-.4.9-.5 1.4-.1.4-.1.8-.1 1.1 0 .3 0 .5.1.6.1.1.2.2.3.2.1 0 .2-.1.3-.2l.4-.4c.4-.5.8-1 1.2-1.7.1-.2.4-.7.8-1.7.2-.3.3-.5.4-.7.1-.1.3-.2.4-.2.3 0 .5.2.5.5 0 .2 0 .4-.1.6zM387.6 18.5c-.2.6-.6 1.3-1.1 2.2s-1 1.5-1.5 2.1c-.4.5-.9.9-1.3 1.2s-.7.4-1 .4c-.4 0-.7-.2-.8-.5-.2-.3-.3-.8-.3-1.3 0-.4 0-.8.1-1.2.1-.4.1-.7.2-1.1.3-1.5.8-2.9 1.4-4.2.2-.4.4-.7.6-.9.2-.2.4-.3.7-.3.2 0 .3.1.5.2.1.1.2.3.2.5 0 .1 0 .3-.1.5-.2.3-.3.7-.5.9-.3.6-.6 1.3-.9 2.2-.3.9-.6 1.6-.7 2.3-.1.4-.1.8-.1 1 0 .4.1.6.3.6.2 0 .4-.1.6-.4.5-.6 1.1-1.4 1.6-2.5.4-.8.8-1.5 1.2-2.3.1-.2.2-.3.3-.5s.3-.2.5-.2c.3 0 .4.2.4.5-.2.3-.2.5-.3.8zm-1.5-6.6c0 .4-.1.7-.4 1-.3.3-.5.4-.8.4-.2 0-.4-.1-.6-.3-.2-.2-.3-.4-.3-.7 0-.4.1-.7.3-.9.2-.2.5-.4.9-.4.3 0 .5.1.7.2.1.1.2.4.2.7zM396.1 15.9c0 .6-.1 1.2-.3 1.9-.3.9-.6 1.4-1.1 1.6-.1.1-.3.1-.4.1-.1 0-.2 0-.3-.1-.2-.1-.4-.3-.4-.6 0-.1 0-.3.1-.5 0-.1.1-.2.1-.2.2-.3.3-.6.5-1 .2-.5.3-.9.3-1.3 0-.3-.1-.6-.3-.8-.3-.3-.8-.5-1.5-.5-.5 0-1.1.1-1.6.3-.5.2-1 .5-1.3.9-.2.2-.3.5-.5.7-.1.2-.2.5-.2.8 0 .3 0 .5.1.8.1.3.3.5.5.8.2.3.7.7 1.5 1.2.6.5 1.1.8 1.4 1.1.3.3.6.5.8.8.3.4.4.7.4 1.1 0 .5-.3.9-.9 1.2-.5.2-1.1.3-1.8.3-1.3 0-2.4-.2-3.1-.7-.6-.4-.9-.9-.9-1.4 0-.3.1-.6.3-.9.2-.3.5-.4.7-.4.3 0 .5.1.5.4 0 .2-.1.3-.2.4-.1.1-.2.3-.2.4 0 .3.3.6.8.8.5.2 1.2.4 2.2.4.5 0 .8 0 .9-.1.2-.1.2-.2.2-.3 0-.2-.1-.4-.4-.7-.3-.3-.9-.7-1.7-1.3-.7-.5-1.2-.8-1.5-1.2-.4-.4-.7-.7-.9-1.1s-.2-.8-.2-1.2c0-.3 0-.6.1-.9.1-.2.2-.5.3-.8.3-.6.8-1.1 1.3-1.5.7-.5 1.5-.8 2.5-1l1.1-.1c.8 0 1.5.2 1.9.7 1 .3 1.2 1 1.2 1.9zM402 18.5c-.2.6-.6 1.3-1.1 2.2s-1 1.5-1.5 2.1c-.4.5-.9.9-1.3 1.2s-.7.4-1 .4c-.4 0-.7-.2-.8-.5-.2-.3-.3-.8-.3-1.3 0-.4 0-.8.1-1.2.1-.4.1-.7.2-1.1.3-1.5.8-2.9 1.4-4.2.2-.4.4-.7.6-.9.2-.2.4-.3.7-.3.2 0 .3.1.5.2.1.1.2.3.2.5 0 .1 0 .3-.1.5-.2.3-.3.7-.5.9-.3.6-.6 1.3-.9 2.2-.3.9-.6 1.6-.7 2.3-.1.4-.1.8-.1 1 0 .4.1.6.3.6.2 0 .4-.1.6-.4.5-.6 1.1-1.4 1.6-2.5.4-.8.8-1.5 1.2-2.3.1-.2.2-.3.3-.5s.3-.2.5-.2c.3 0 .4.2.4.5-.1.3-.2.5-.3.8zm-1.5-6.6c0 .4-.1.7-.4 1-.3.3-.5.4-.8.4-.2 0-.4-.1-.6-.3-.2-.2-.3-.4-.3-.7 0-.4.1-.7.3-.9.2-.2.5-.4.9-.4.3 0 .5.1.7.2.2.1.2.4.2.7zM413 19.3c-.3.8-.7 1.6-1.2 2.5-.7 1.2-1.3 2-2 2.4-.4.3-.7.4-1.1.4-.2 0-.5-.1-.7-.2-.3-.2-.6-.5-.7-.8s-.2-.8-.2-1.3v-.8c0-.2.1-.5.1-.9.1-.4.2-1 .3-1.7.1-.7.4-1.7.8-2.9 0-.1.1-.2.1-.3 0-.1-.1-.2-.2-.2 0 0-.1 0-.1.1-.1.1-.3.2-.5.4-.6.7-1.2 1.5-1.7 2.2-.9 1.3-1.8 2.9-2.6 4.7-.2.4-.4.7-.6.8-.2.1-.3.2-.5.2-.1 0-.2-.1-.3-.3s-.2-.5-.2-.8c0-.3 0-.6.1-1s.2-1 .4-2c.3-1.2.6-2.1.8-2.7l.6-1.8c.1-.4.2-.7.2-1 0-.3.1-.6.1-1 .1-.3.2-.5.4-.7.2-.2.5-.3.7-.3.2 0 .4.1.5.2.1.1.2.3.2.6 0 .2-.1.5-.2.9-.6 1.5-1.1 3-1.7 4.4l-.4 1.5.8-1.2c.5-.8 1-1.5 1.6-2.3.7-.9 1.3-1.8 1.9-2.4.2-.2.3-.4.5-.5.2-.2.5-.3.7-.3.3 0 .6.1.7.3s.2.5.2.8c0 .2 0 .4-.1.6 0 .2-.1.4-.1.5-.3 1.2-.6 2.3-.8 3.5-.3 1.1-.4 2.1-.4 2.9v.5c0 .4 0 .6.1.8.1.2.2.3.4.3s.3-.1.5-.2l.5-.5c.3-.4.6-1 .9-1.6l.9-2.1c.2-.3.3-.5.5-.6.2-.1.3-.1.5-.1.3 0 .4.2.4.5.1 0 0 .2-.1.5zM420.9 17.3c0 1.2-.6 2.6-1.7 4.3-1.3 1.9-2.5 2.8-3.7 2.8-.7 0-1.3-.2-1.7-.7-.5-.6-.7-1.5-.7-2.6 0-1.3.3-2.7.8-4.2.6-1.4 1.2-2.5 1.9-3.2.2-.2.5-.4.8-.5.3-.1.5-.2.7-.2.4 0 .7.1.9.4.4.4.6.9.6 1.6 0 1.3-.3 2.4-1 3.3s-1.5 1.4-2.5 1.4c-.2 0-.4 0-.7-.1 0 .2-.1.5-.1.7 0 .3-.1.5-.1.7 0 .6.1 1.1.3 1.5.2.4.5.6.9.6.7 0 1.4-.6 2.3-1.9s1.5-2.5 1.7-3.7c.1-.3.1-.6.2-.7.1-.3.3-.4.5-.4.4.2.6.4.6.9zm-3.4-2.1c0-.5-.2-.7-.5-.7s-.7.4-1.2 1.3c-.4.8-.8 1.7-1 2.6.1.1.2.1.3.1h.3c.6 0 1.1-.4 1.5-1.1.4-.7.6-1.4.6-2.2zM424.6 22.9c0 .2-.2.5-.5.8-.1.1-.4.3-.7.5l-1.5 1.7c-.1.2-.3.4-.6.8-.2.4-.4.7-.5.8s-.2.3-.2.5c-.2.3-.5.4-.9.4-.2 0-.4 0-.5-.1-.1-.1-.1-.2-.1-.3 0-.1.1-.3.3-.7.8-1.4 1.5-2.4 2-3.2 1-1.3 1.8-1.9 2.4-1.9.1 0 .2 0 .4.1s.4.3.4.6zM441.4 15.9c0 .6-.1 1.2-.3 1.9-.3.9-.6 1.4-1.1 1.6-.1.1-.3.1-.4.1-.1 0-.2 0-.3-.1-.2-.1-.4-.3-.4-.6 0-.1 0-.3.1-.5 0-.1.1-.2.1-.2.2-.3.3-.6.5-1 .2-.5.3-.9.3-1.3 0-.3-.1-.6-.3-.8-.3-.3-.8-.5-1.5-.5-.5 0-1.1.1-1.6.3-.5.2-1 .5-1.3.9-.2.2-.3.5-.5.7-.1.2-.2.5-.2.8 0 .3 0 .5.1.8.1.3.3.5.5.8.2.3.7.7 1.5 1.2.6.5 1.1.8 1.4 1.1.3.3.6.5.8.8.3.4.4.7.4 1.1 0 .5-.3.9-.9 1.2-.5.2-1.1.3-1.8.3-1.3 0-2.4-.2-3.1-.7-.6-.4-.9-.9-.9-1.4 0-.3.1-.6.3-.9.2-.3.5-.4.7-.4.3 0 .5.1.5.4 0 .2-.1.3-.2.4-.1.1-.2.3-.2.4 0 .3.3.6.8.8.5.2 1.2.4 2.2.4.5 0 .8 0 .9-.1.2-.1.2-.2.2-.3 0-.2-.1-.4-.4-.7-.3-.3-.9-.7-1.7-1.3-.7-.5-1.2-.8-1.5-1.2-.4-.4-.7-.7-.9-1.1s-.2-.8-.2-1.2c0-.3 0-.6.1-.9.1-.2.2-.5.3-.8.3-.6.8-1.1 1.3-1.5.7-.5 1.5-.8 2.5-1l1.1-.1c.8 0 1.5.2 1.9.7 1 .3 1.2 1 1.2 1.9zM449.2 17.3c0 1.2-.6 2.6-1.7 4.3-1.3 1.9-2.5 2.8-3.7 2.8-.7 0-1.3-.2-1.7-.7-.5-.6-.7-1.5-.7-2.6 0-1.3.3-2.7.8-4.2.6-1.4 1.2-2.5 1.9-3.2.2-.2.5-.4.8-.5.3-.1.5-.2.7-.2.4 0 .7.1.9.4.4.4.6.9.6 1.6 0 1.3-.3 2.4-1 3.3s-1.5 1.4-2.5 1.4c-.2 0-.4 0-.7-.1 0 .2-.1.5-.1.7 0 .3-.1.5-.1.7 0 .6.1 1.1.3 1.5.2.4.5.6.9.6.7 0 1.4-.6 2.3-1.9s1.5-2.5 1.7-3.7c.1-.3.1-.6.2-.7.1-.3.3-.4.5-.4.4.2.6.4.6.9zm-3.4-2.1c0-.5-.2-.7-.5-.7s-.7.4-1.2 1.3c-.4.8-.8 1.7-1 2.6.1.1.2.1.3.1h.3c.6 0 1.1-.4 1.5-1.1.4-.7.6-1.4.6-2.2zM457.8 15.9c0 .6-.1 1.2-.3 1.9-.3.9-.6 1.4-1.1 1.6-.1.1-.3.1-.4.1-.1 0-.2 0-.3-.1-.2-.1-.4-.3-.4-.6 0-.1 0-.3.1-.5 0-.1.1-.2.1-.2.2-.3.3-.6.5-1 .2-.5.3-.9.3-1.3 0-.3-.1-.6-.3-.8-.3-.3-.8-.5-1.5-.5-.5 0-1.1.1-1.6.3-.5.2-1 .5-1.3.9-.2.2-.3.5-.5.7-.1.2-.2.5-.2.8 0 .3 0 .5.1.8.1.3.3.5.5.8.2.3.7.7 1.5 1.2.6.5 1.1.8 1.4 1.1.3.3.6.5.8.8.3.4.4.7.4 1.1 0 .5-.3.9-.9 1.2-.5.2-1.1.3-1.8.3-1.3 0-2.4-.2-3.1-.7-.6-.4-.9-.9-.9-1.4 0-.3.1-.6.3-.9.2-.3.5-.4.7-.4.3 0 .5.1.5.4 0 .2-.1.3-.2.4-.1.1-.2.3-.2.4 0 .3.3.6.8.8.5.2 1.2.4 2.2.4.5 0 .8 0 .9-.1.2-.1.2-.2.2-.3 0-.2-.1-.4-.4-.7-.3-.3-.9-.7-1.7-1.3-.7-.5-1.2-.8-1.5-1.2-.4-.4-.7-.7-.9-1.1s-.2-.8-.2-1.2c0-.3 0-.6.1-.9.1-.2.2-.5.3-.8.3-.6.8-1.1 1.3-1.5.7-.5 1.5-.8 2.5-1l1.1-.1c.8 0 1.5.2 1.9.7 1 .3 1.2 1 1.2 1.9zM470.6 15.3c0 .3-.1.6-.2.9-.1.3-.2.6-.2.7 0 .1 0 .3.1.5s.1.4.1.5c0 .1-.1.2-.2.3l-.3.3c-.2.4-.3.7-.5.9 0 0-.2.4-.4.9-.4.9-.8 1.7-1.2 2.4-.6 1-1.2 1.7-1.7 2-.3.2-.5.2-.8.2-.4 0-.8-.2-1-.6-.3-.4-.4-1-.4-1.8 0-.3 0-.7.1-1.1l.7-4.2c.2-.9.2-1.3.3-1.4.2-.7.5-1 .9-1s.7.3.7.8c0 .4-.1.9-.3 1.5s-.4 1.4-.6 2.1-.3 1.3-.4 1.6c-.1.7-.2 1.3-.2 1.7 0 .5.1.8.2 1 .1.1.2.2.3.2.1 0 .2 0 .3-.1l.3-.3c.2-.3.6-1 1.1-2 .5-1.1.9-1.9 1.1-2.5l.3-.9v-2.5s0-.5.1-.9.2-.6.4-.8c.2-.2.3-.3.5-.3s.4.1.6.2c.2.2.3.6.3 1.1v.6zM476.9 18.5c-.2.6-.6 1.3-1.1 2.2s-1 1.5-1.5 2.1c-.4.5-.9.9-1.3 1.2s-.7.4-1 .4c-.4 0-.7-.2-.8-.5-.2-.3-.3-.8-.3-1.3 0-.4 0-.8.1-1.2.1-.4.1-.7.2-1.1.3-1.5.8-2.9 1.4-4.2.2-.4.4-.7.6-.9.2-.2.4-.3.7-.3.2 0 .3.1.5.2.1.1.2.3.2.5 0 .1 0 .3-.1.5-.2.3-.3.7-.5.9-.3.6-.6 1.3-.9 2.2-.3.9-.6 1.6-.7 2.3-.1.4-.1.8-.1 1 0 .4.1.6.3.6.2 0 .4-.1.6-.4.5-.6 1.1-1.4 1.6-2.5.4-.8.8-1.5 1.2-2.3.1-.2.2-.3.3-.5s.3-.2.5-.2c.3 0 .4.2.4.5-.1.3-.2.5-.3.8zm-1.5-6.6c0 .4-.1.7-.4 1-.3.3-.5.4-.8.4-.2 0-.4-.1-.6-.3-.2-.2-.3-.4-.3-.7 0-.4.1-.7.3-.9.2-.2.5-.4.9-.4.3 0 .5.1.7.2.1.1.2.4.2.7zM487.9 19.3c-.3.8-.7 1.6-1.2 2.5-.7 1.2-1.3 2-2 2.4-.4.3-.7.4-1.1.4-.2 0-.5-.1-.7-.2-.3-.2-.6-.5-.7-.8s-.2-.8-.2-1.3v-.8c0-.2.1-.5.1-.9.1-.4.2-1 .3-1.7.1-.7.4-1.7.8-2.9 0-.1.1-.2.1-.3 0-.1-.1-.2-.2-.2 0 0-.1 0-.1.1-.1.1-.3.2-.5.4-.6.7-1.2 1.5-1.7 2.2-.9 1.3-1.8 2.9-2.6 4.7-.2.4-.4.7-.6.8-.2.1-.3.2-.5.2-.1 0-.2-.1-.3-.3s-.2-.5-.2-.8c0-.3 0-.6.1-1s.2-1 .4-2c.3-1.2.6-2.1.8-2.7l.6-1.8c.1-.4.2-.7.2-1 0-.3.1-.6.1-1 .1-.3.2-.5.4-.7.2-.2.5-.3.7-.3.2 0 .4.1.5.2.1.1.2.3.2.6 0 .2-.1.5-.2.9-.6 1.5-1.1 3-1.7 4.4l-.4 1.5.8-1.2c.5-.8 1-1.5 1.6-2.3.7-.9 1.3-1.8 1.9-2.4.2-.2.3-.4.5-.5.2-.2.5-.3.7-.3.3 0 .6.1.7.3s.2.5.2.8c0 .2 0 .4-.1.6 0 .2-.1.4-.1.5-.3 1.2-.6 2.3-.8 3.5-.3 1.1-.4 2.1-.4 2.9v.5c0 .4 0 .6.1.8.1.2.2.3.4.3s.3-.1.5-.2l.5-.5c.3-.4.6-1 .9-1.6l.9-2.1c.2-.3.3-.5.5-.6.2-.1.3-.1.5-.1.3 0 .4.2.4.5.1 0 0 .2-.1.5zM496.4 15.9c0 .6-.1 1.2-.3 1.9-.3.9-.6 1.4-1.1 1.6-.1.1-.3.1-.4.1-.1 0-.2 0-.3-.1-.2-.1-.4-.3-.4-.6 0-.1 0-.3.1-.5 0-.1.1-.2.1-.2.2-.3.3-.6.5-1 .2-.5.3-.9.3-1.3 0-.3-.1-.6-.3-.8-.3-.3-.8-.5-1.5-.5-.5 0-1.1.1-1.6.3-.5.2-1 .5-1.3.9-.2.2-.3.5-.5.7-.1.2-.2.5-.2.8 0 .3 0 .5.1.8.1.3.3.5.5.8.2.3.7.7 1.5 1.2.6.5 1.1.8 1.4 1.1.3.3.6.5.8.8.3.4.4.7.4 1.1 0 .5-.3.9-.9 1.2-.5.2-1.1.3-1.8.3-1.3 0-2.4-.2-3.1-.7-.6-.4-.9-.9-.9-1.4 0-.3.1-.6.3-.9.2-.3.5-.4.7-.4.3 0 .5.1.5.4 0 .2-.1.3-.2.4-.1.1-.2.3-.2.4 0 .3.3.6.8.8.5.2 1.2.4 2.2.4.5 0 .8 0 .9-.1.2-.1.2-.2.2-.3 0-.2-.1-.4-.4-.7-.3-.3-.9-.7-1.7-1.3-.7-.5-1.2-.8-1.5-1.2-.4-.4-.7-.7-.9-1.1s-.2-.8-.2-1.2c0-.3 0-.6.1-.9.1-.2.2-.5.3-.8.3-.6.8-1.1 1.3-1.5.7-.5 1.5-.8 2.5-1l1.1-.1c.8 0 1.5.2 1.9.7 1 .3 1.2 1 1.2 1.9zM499.2 23.6c0 .4-.1.7-.4.9-.3.3-.6.4-1 .4s-.7-.1-.9-.3c-.2-.2-.3-.5-.3-.7 0-.3.1-.6.4-.8.3-.2.6-.4 1-.4s.6.1.8.3c.3.2.4.4.4.6zm4.1-.1c0 .3-.1.6-.4.8-.3.3-.6.4-1 .4-.3 0-.6-.1-.8-.3-.2-.2-.3-.5-.3-.8.1-.2.1-.4.2-.5.2-.3.6-.5 1-.5.5 0 .8.1 1.1.3.1.3.2.4.2.6zm3.7 0c0 .3-.1.5-.3.8-.2.2-.5.4-.9.4-.7 0-1.1-.3-1.1-.9 0-.2.1-.5.3-.7.2-.2.6-.3 1-.3.3 0 .5.1.7.2.2 0 .3.2.3.5zM139.2 51.5c0 1.2-.6 2.6-1.7 4.3-1.3 1.9-2.5 2.8-3.7 2.8-.7 0-1.3-.2-1.7-.7-.5-.6-.7-1.5-.7-2.6 0-1.3.3-2.7.8-4.2.6-1.4 1.2-2.5 1.9-3.2.2-.2.5-.4.8-.5.3-.1.5-.2.7-.2.4 0 .7.1.9.4.4.4.6.9.6 1.6 0 1.3-.3 2.4-1 3.3s-1.5 1.4-2.5 1.4c-.2 0-.4 0-.7-.1 0 .2-.1.5-.1.7 0 .3-.1.5-.1.7 0 .6.1 1.1.3 1.5.2.4.5.6.9.6.7 0 1.4-.6 2.3-1.9s1.5-2.5 1.7-3.7c.1-.3.1-.6.2-.7.1-.3.3-.4.5-.4.4.1.6.4.6.9zm-3.4-2.1c0-.5-.2-.7-.5-.7s-.7.4-1.2 1.3c-.4.8-.8 1.7-1 2.6.1.1.2.1.3.1h.3c.6 0 1.1-.4 1.5-1.1.4-.7.6-1.5.6-2.2zM146.6 51.9c-.4 1.1-.9 2.1-1.4 3-.6 1.1-1.2 2-1.7 2.7-.3.4-.7.7-1 1-.5.4-.9.5-1.2.5-.4 0-.7-.2-.9-.5-.2-.3-.4-.8-.4-1.3 0-.7.1-1.6.4-2.7s.8-2.7 1.6-4.9c-.2 0-.4 0-.8.1h-1.4c-.2 0-.4 0-.5-.1-.2-.1-.3-.3-.3-.5s.1-.3.2-.4c.1-.1.3-.2.4-.2h2.2s.5 0 .7-.1c.5-1.3 1.1-2.6 1.7-4 .4-.8.8-1.1 1.2-1.1.3 0 .5.1.6.2.1.1.2.3.2.4 0 .1-.2.6-.7 1.5-.5.9-.9 1.9-1.4 2.9l1.3-.2c.3 0 .5.1.7.2.2.1.3.3.3.6 0 .2-.1.4-.2.5-.1.1-.3.2-.5.2l-.9-.1h-.6s-.4 0-.7.1c-.6 1.4-1.1 2.6-1.5 3.7-.6 1.6-.9 2.8-.9 3.3 0 .2 0 .4.1.6.1.2.1.3.3.3.2 0 .4 0 .5-.1.2-.1.5-.3.7-.6.6-.8 1.5-2.3 2.6-4.7.1-.3.3-.6.4-.9.1-.3.3-.5.6-.5.2 0 .4.1.4.4 0 .2 0 .3-.1.4.1.2 0 .3 0 .3zM168.5 52.2c-.5 1.1-.9 1.9-1.3 2.4-.4.7-.9 1.5-1.4 2.3-.5.7-.9 1.2-1.4 1.5-.3.2-.6.3-.8.3-.3 0-.6-.2-.9-.5-.3-.4-.5-.9-.5-1.6 0-.6.1-1.3.4-2.2.3-.9.5-1.6.7-2.1.1-.2.1-.4.2-.6v-.4l-.2-.1c-.1 0-.5.4-1.2 1.3-.5.7-1 1.3-1.5 2 0 0-.6 1-1.9 2.9-.5.7-.8 1.1-1.1 1.1-.1 0-.3-.1-.4-.3-.1-.2-.2-.5-.2-.8 0-.2 0-.5.1-.8.3-.9.7-1.7 1-2.7.3-.9.6-1.6.7-2.2.2-.5.2-.9.2-1 0-.2-.1-.3-.2-.3s-.3.1-.4.2-.4.3-.6.6c-.8 1-1.6 2-2.3 3-.6.9-1.1 1.7-1.5 2.5-.2.5-.4.9-.7 1.3-.3.5-.6.7-.9.7-.2 0-.3-.1-.4-.3-.1-.2-.2-.4-.2-.7 0-.3.1-.7.2-1.2s.4-1.2.8-2.3l1.4-3.4.4-.9c.1-.2.1-.3.1-.5 0-.3.1-.6.1-.8 0-.2.1-.5.2-.7.1-.3.3-.6.6-.9.3-.3.6-.5.8-.5.2 0 .3.1.5.2s.2.4.2.8c0 .3-.2.9-.6 1.7-.8 1.7-1.5 3.3-2.1 4.8.4-.6.8-1.1 1.1-1.5.1-.2.6-.8 1.4-1.8.6-.8 1.1-1.3 1.5-1.6.4-.3.8-.4 1.2-.4.3 0 .5.1.7.3.2.2.3.5.3 1s-.1 1.1-.4 2c-.1.5-.3 1.1-.6 1.8 1.1-1.5 1.8-2.4 2-2.7 1-1.3 1.9-2 2.6-2 .3 0 .5.1.6.2.1.1.2.3.2.6 0 .2 0 .5-.1.8-.2.7-.4 1.6-.8 2.8-.2.6-.3 1.2-.5 1.9-.1.3-.1.6-.1.9v.5c0 .2.1.3.3.5.2.1.3.1.5 0 .1-.1.3-.3.4-.6.2-.3.5-1 1.1-2.2.3-.6.8-1.5 1.5-2.6.1-.2.3-.4.4-.5s.3-.2.5-.2c.3 0 .5.2.5.5 0 0-.1.2-.2.5zM180.8 51.1c0 .4-.4 1.4-1.3 2.8-.7 1.2-1.4 2.2-2 2.9-.4.5-.7.8-1.1 1.1-.6.5-1.1.7-1.5.7-.3 0-.6-.1-.8-.4-.2-.3-.3-.6-.3-1.1 0-.3.1-.6.2-1-1 .9-1.6 1.5-1.9 1.7-.8.6-1.5.9-2.2.9-.5 0-.9-.2-1.2-.6-.3-.4-.5-.9-.5-1.6 0-.3 0-.6.1-.8 0-.3.1-.6.2-1 .3-1.1.8-2.2 1.5-3.4.7-1.3 1.5-2.3 2.4-3.2.4-.4.8-.7 1.2-.9.4-.2.8-.3 1.3-.3.7 0 1.2.3 1.6.9.3.5.5 1.1.5 1.9v1.6c0 .3-.1.7-.3 1.1-.5.9-.7 1.5-.7 1.5-.2.4-.3.8-.4 1.1-.2.5-.3 1-.3 1.4 0 .5 0 .7.1.7.2 0 .4-.2.8-.6.4-.4.7-.7.9-1 .4-.6.9-1.3 1.3-2 .5-.9.9-1.6 1.2-2.2.1-.2.2-.4.2-.5.2-.2.4-.3.6-.3.2.2.4.3.4.6zm-5.6.8c.2-.7.4-1.4.4-2.1 0-.5-.1-.9-.2-1.2-.1-.3-.4-.4-.7-.4-.9 0-2 1-3.4 3.1s-2 3.8-2 5.2c0 .3 0 .5.1.8.1.2.3.3.6.3.6 0 1.6-.7 2.8-2.1 1.3-1.4 2.1-2.6 2.4-3.6zM186 52.6c-.2.6-.6 1.3-1.1 2.2s-1 1.5-1.5 2.1c-.4.5-.9.9-1.3 1.2s-.7.4-1 .4c-.4 0-.7-.2-.8-.5-.2-.3-.3-.8-.3-1.3 0-.4 0-.8.1-1.2.1-.4.1-.7.2-1.1.3-1.5.8-2.9 1.4-4.2.2-.4.4-.7.6-.9.2-.2.4-.3.7-.3.2 0 .3.1.5.2.1.1.2.3.2.5 0 .1 0 .3-.1.5-.2.3-.3.7-.5.9-.3.6-.6 1.3-.9 2.2-.3.9-.6 1.6-.7 2.3-.1.4-.1.8-.1 1 0 .4.1.6.3.6.2 0 .4-.1.6-.4.5-.6 1.1-1.4 1.6-2.5.4-.8.8-1.5 1.2-2.3.1-.2.2-.3.3-.5s.3-.2.5-.2c.3 0 .4.2.4.5-.2.3-.2.6-.3.8zm-1.5-6.6c0 .4-.1.7-.4 1-.3.3-.5.4-.8.4-.2 0-.4-.1-.6-.3-.2-.2-.3-.4-.3-.7 0-.4.1-.7.3-.9.2-.2.5-.4.9-.4.3 0 .5.1.7.2.1.2.2.4.2.7zM196.9 53.4c-.3.8-.7 1.6-1.2 2.5-.7 1.2-1.3 2-2 2.4-.4.3-.7.4-1.1.4-.2 0-.5-.1-.7-.2-.3-.2-.6-.5-.7-.8s-.2-.8-.2-1.3v-.8c0-.2.1-.5.1-.9.1-.4.2-1 .3-1.7.1-.7.4-1.7.8-2.9 0-.1.1-.2.1-.3 0-.1-.1-.2-.2-.2 0 0-.1 0-.1.1-.1.1-.3.2-.5.4-.6.7-1.2 1.5-1.7 2.2-.9 1.3-1.8 2.9-2.6 4.7-.2.4-.4.7-.6.8-.2.1-.3.2-.5.2-.1 0-.2-.1-.3-.3s-.2-.5-.2-.8c0-.3 0-.6.1-1s.2-1 .4-2c.3-1.2.6-2.1.8-2.7l.6-1.8c.1-.4.2-.7.2-1 0-.3.1-.6.1-1 .1-.3.2-.5.4-.7.2-.2.5-.3.7-.3.2 0 .4.1.5.2.1.1.2.3.2.6 0 .2-.1.5-.2.9-.6 1.5-1.1 3-1.7 4.4l-.4 1.5.8-1.2c.5-.8 1-1.5 1.6-2.3.7-.9 1.3-1.8 1.9-2.4.2-.2.3-.4.5-.5.2-.2.5-.3.7-.3.3 0 .6.1.7.3s.2.5.2.8c0 .2 0 .4-.1.6 0 .2-.1.4-.1.5-.3 1.2-.6 2.3-.8 3.5-.3 1.1-.4 2.1-.4 2.9v.5c0 .4 0 .6.1.8.1.2.2.3.4.3s.3-.1.5-.2l.5-.5c.3-.4.6-1 .9-1.6l.9-2.1c.2-.3.3-.5.5-.6.2-.1.3-.1.5-.1.3 0 .4.2.4.5.1 0 0 .3-.1.5zM204.3 51.9c-.4 1.1-.9 2.1-1.4 3-.6 1.1-1.2 2-1.7 2.7-.3.4-.7.7-1 1-.5.4-.9.5-1.2.5-.4 0-.7-.2-.9-.5-.2-.3-.4-.8-.4-1.3 0-.7.1-1.6.4-2.7s.8-2.7 1.6-4.9c-.2 0-.4 0-.8.1h-1.4c-.2 0-.4 0-.5-.1-.2-.1-.3-.3-.3-.5s.1-.3.2-.4c.1-.1.3-.2.4-.2h2.2s.5 0 .7-.1c.5-1.3 1.1-2.6 1.7-4 .4-.8.8-1.1 1.2-1.1.3 0 .5.1.6.2.1.1.2.3.2.4 0 .1-.2.6-.7 1.5-.5.9-.9 1.9-1.4 2.9l1.3-.2c.3 0 .5.1.7.2.2.1.3.3.3.6 0 .2-.1.4-.2.5-.1.1-.3.2-.5.2l-.9-.1h-.6s-.4 0-.7.1c-.6 1.4-1.1 2.6-1.5 3.7-.6 1.6-.9 2.8-.9 3.3 0 .2 0 .4.1.6.1.2.1.3.3.3.2 0 .4 0 .5-.1.2-.1.5-.3.7-.6.6-.8 1.5-2.3 2.6-4.7.1-.3.3-.6.4-.9.1-.3.3-.5.6-.5.2 0 .4.1.4.4 0 .2 0 .3-.1.4v.3zM212.1 51.5c0 1.2-.6 2.6-1.7 4.3-1.3 1.9-2.5 2.8-3.7 2.8-.7 0-1.3-.2-1.7-.7-.5-.6-.7-1.5-.7-2.6 0-1.3.3-2.7.8-4.2.6-1.4 1.2-2.5 1.9-3.2.2-.2.5-.4.8-.5.3-.1.5-.2.7-.2.4 0 .7.1.9.4.4.4.6.9.6 1.6 0 1.3-.3 2.4-1 3.3s-1.5 1.4-2.5 1.4c-.2 0-.4 0-.7-.1 0 .2-.1.5-.1.7 0 .3-.1.5-.1.7 0 .6.1 1.1.3 1.5.2.4.5.6.9.6.7 0 1.4-.6 2.3-1.9s1.5-2.5 1.7-3.7c.1-.3.1-.6.2-.7.1-.3.3-.4.5-.4.4.1.6.4.6.9zm-3.3-2.1c0-.5-.2-.7-.5-.7s-.7.4-1.2 1.3c-.4.8-.8 1.7-1 2.6.1.1.2.1.3.1h.3c.6 0 1.1-.4 1.5-1.1.3-.7.6-1.5.6-2.2zM223.2 53.4c-.3.8-.7 1.6-1.2 2.5-.7 1.2-1.3 2-2 2.4-.4.3-.7.4-1.1.4-.2 0-.5-.1-.7-.2-.3-.2-.6-.5-.7-.8s-.2-.8-.2-1.3v-.8c0-.2.1-.5.1-.9.1-.4.2-1 .3-1.7.1-.7.4-1.7.8-2.9 0-.1.1-.2.1-.3 0-.1-.1-.2-.2-.2 0 0-.1 0-.1.1-.1.1-.3.2-.5.4-.6.7-1.2 1.5-1.7 2.2-.9 1.3-1.8 2.9-2.6 4.7-.2.4-.4.7-.6.8-.2.1-.3.2-.5.2-.1 0-.2-.1-.3-.3s-.2-.5-.2-.8c0-.3 0-.6.1-1s.2-1 .4-2c.3-1.2.6-2.1.8-2.7l.6-1.8c.1-.4.2-.7.2-1 0-.3.1-.6.1-1 .1-.3.2-.5.4-.7.2-.2.5-.3.7-.3.2 0 .4.1.5.2.1.1.2.3.2.6 0 .2-.1.5-.2.9-.6 1.5-1.1 3-1.7 4.4l-.4 1.5.8-1.2c.5-.8 1-1.5 1.6-2.3.7-.9 1.3-1.8 1.9-2.4.2-.2.3-.4.5-.5.2-.2.5-.3.7-.3.3 0 .6.1.7.3s.2.5.2.8c0 .2 0 .4-.1.6 0 .2-.1.4-.1.5-.3 1.2-.6 2.3-.8 3.5-.3 1.1-.4 2.1-.4 2.9v.5c0 .4 0 .6.1.8.1.2.2.3.4.3s.3-.1.5-.2l.5-.5c.3-.4.6-1 .9-1.6l.9-2.1c.2-.3.3-.5.5-.6.2-.1.3-.1.5-.1.3 0 .4.2.4.5 0 0 0 .3-.1.5zM235.4 51.1c0 .4-.4 1.4-1.3 2.8-.7 1.2-1.4 2.2-2 2.9-.4.5-.7.8-1.1 1.1-.6.5-1.1.7-1.5.7-.3 0-.6-.1-.8-.4-.2-.3-.3-.6-.3-1.1 0-.3.1-.6.2-1-1 .9-1.6 1.5-1.9 1.7-.8.6-1.5.9-2.2.9-.5 0-.9-.2-1.2-.6-.3-.4-.5-.9-.5-1.6 0-.3 0-.6.1-.8 0-.3.1-.6.2-1 .3-1.1.8-2.2 1.5-3.4.7-1.3 1.5-2.3 2.4-3.2.4-.4.8-.7 1.2-.9.4-.2.8-.3 1.3-.3.7 0 1.2.3 1.6.9.3.5.5 1.1.5 1.9v1.6c0 .3-.1.7-.3 1.1-.5.9-.7 1.5-.7 1.5-.2.4-.3.8-.4 1.1-.2.5-.3 1-.3 1.4 0 .5 0 .7.1.7.2 0 .4-.2.8-.6.4-.4.7-.7.9-1 .4-.6.9-1.3 1.3-2 .5-.9.9-1.6 1.2-2.2.1-.2.2-.4.2-.5.2-.2.4-.3.6-.3.3.2.4.3.4.6zm-5.5.8c.2-.7.4-1.4.4-2.1 0-.5-.1-.9-.2-1.2-.1-.3-.4-.4-.7-.4-.9 0-2 1-3.4 3.1s-2 3.8-2 5.2c0 .3 0 .5.1.8.1.2.3.3.6.3.6 0 1.6-.7 2.8-2.1 1.2-1.4 2-2.6 2.4-3.6zM245.6 53.4c-.3.8-.7 1.6-1.2 2.5-.7 1.2-1.3 2-2 2.4-.4.3-.7.4-1.1.4-.2 0-.5-.1-.7-.2-.3-.2-.6-.5-.7-.8s-.2-.8-.2-1.3v-.8c0-.2.1-.5.1-.9.1-.4.2-1 .3-1.7.1-.7.4-1.7.8-2.9 0-.1.1-.2.1-.3 0-.1-.1-.2-.2-.2 0 0-.1 0-.1.1-.1.1-.3.2-.5.4-.6.7-1.2 1.5-1.7 2.2-.9 1.3-1.8 2.9-2.6 4.7-.2.4-.4.7-.6.8-.2.1-.3.2-.5.2-.1 0-.2-.1-.3-.3s-.2-.5-.2-.8c0-.3 0-.6.1-1s.2-1 .4-2c.3-1.2.6-2.1.8-2.7l.6-1.8c.1-.4.2-.7.2-1 0-.3.1-.6.1-1 .1-.3.2-.5.4-.7.2-.2.5-.3.7-.3.2 0 .4.1.5.2.1.1.2.3.2.6 0 .2-.1.5-.2.9-.6 1.5-1.1 3-1.7 4.4L236 54l1-1c.5-.8 1-1.5 1.6-2.3.7-.9 1.3-1.8 1.9-2.4.2-.2.3-.4.5-.5.2-.2.5-.3.7-.3.3 0 .6.1.7.3s.2.5.2.8c0 .2 0 .4-.1.6 0 .2-.1.4-.1.5-.3 1.2-.6 2.3-.8 3.5-.3 1.1-.4 2.1-.4 2.9v.5c0 .4 0 .6.1.8.1.2.2.3.4.3s.3-.1.5-.2l.5-.5c.3-.4.6-1 .9-1.6l.9-2.1c.2-.3.3-.5.5-.6.2-.1.3-.1.5-.1.3 0 .4.2.4.5-.2-.2-.2.1-.3.3zM252.9 51.9c-.4 1.1-.9 2.1-1.4 3-.6 1.1-1.2 2-1.7 2.7-.3.4-.7.7-1 1-.5.4-.9.5-1.2.5-.4 0-.7-.2-.9-.5-.2-.3-.4-.8-.4-1.3 0-.7.1-1.6.4-2.7s.8-2.7 1.6-4.9c-.2 0-.4 0-.8.1h-1.4c-.2 0-.4 0-.5-.1-.2-.1-.3-.3-.3-.5s.1-.3.2-.4c.1-.1.3-.2.4-.2h2.2s.5 0 .7-.1c.5-1.3 1.1-2.6 1.7-4 .4-.8.8-1.1 1.2-1.1.3 0 .5.1.6.2.1.1.2.3.2.4 0 .1-.2.6-.7 1.5-.5.9-.9 1.9-1.4 2.9l1.3-.2c.3 0 .5.1.7.2.2.1.3.3.3.6 0 .2-.1.4-.2.5-.1.1-.3.2-.5.2l-.9-.1h-.6s-.4 0-.7.1c-.6 1.4-1.1 2.6-1.5 3.7-.6 1.6-.9 2.8-.9 3.3 0 .2 0 .4.1.6.1.2.1.3.3.3.2 0 .4 0 .5-.1.2-.1.5-.3.7-.6.6-.8 1.5-2.3 2.6-4.7.1-.3.3-.6.4-.9.1-.3.3-.5.6-.5.2 0 .4.1.4.4 0 .2 0 .3-.1.4.1.2.1.3 0 .3zM267.4 50c0 .6-.1 1.2-.3 1.9-.3.9-.6 1.4-1.1 1.6-.1.1-.3.1-.4.1-.1 0-.2 0-.3-.1-.2-.1-.4-.3-.4-.6 0-.1 0-.3.1-.5 0-.1.1-.2.1-.2.2-.3.3-.6.5-1 .2-.5.3-.9.3-1.3 0-.3-.1-.6-.3-.8-.3-.3-.8-.5-1.5-.5-.5 0-1.1.1-1.6.3-.5.2-1 .5-1.3.9-.2.2-.3.5-.5.7-.1.2-.2.5-.2.8 0 .3 0 .5.1.8.1.3.3.5.5.8.2.3.7.7 1.5 1.2.6.5 1.1.8 1.4 1.1.3.3.6.5.8.8.3.4.4.7.4 1.1 0 .5-.3.9-.9 1.2-.5.2-1.1.3-1.8.3-1.3 0-2.4-.2-3.1-.7-.6-.4-.9-.9-.9-1.4 0-.3.1-.6.3-.9.2-.3.5-.4.7-.4.3 0 .5.1.5.4 0 .2-.1.3-.2.4-.1.1-.2.3-.2.4 0 .3.3.6.8.8.5.2 1.2.4 2.2.4.5 0 .8 0 .9-.1.2-.1.2-.2.2-.3 0-.2-.1-.4-.4-.7-.3-.3-.9-.7-1.7-1.3-.7-.5-1.2-.8-1.5-1.2-.4-.4-.7-.7-.9-1.1s-.2-.8-.2-1.2c0-.3 0-.6.1-.9.1-.2.2-.5.3-.8.3-.6.8-1.1 1.3-1.5.7-.5 1.5-.8 2.5-1l1.1-.1c.8 0 1.5.2 1.9.7 1 .4 1.2 1 1.2 1.9zM277.1 51.4c0 2.2-.7 4.1-2.2 5.5-1.3 1.3-2.6 1.9-4.1 1.9-1.1 0-1.9-.4-2.5-1.1-.6-.7-.9-1.7-.9-3 0-1.6.6-3.4 1.7-5.3 1.2-1.9 2.3-2.8 3.4-2.6.3-.1.6-.1.9-.1 1.1 0 1.9.4 2.6 1.1.8.9 1.1 2.1 1.1 3.6zm-1.3 0c0-1.2-.3-2-.8-2.6-.4-.5-.9-.7-1.5-.7h-.7s-.3.1-.5.2c-1 .4-1.8 1.3-2.5 2.7-.7 1.4-1.1 2.7-1.1 4 0 .9.2 1.6.7 2.1.4.4.9.6 1.5.6 1.3 0 2.4-.6 3.4-1.9s1.5-2.8 1.5-4.4zM288.6 53.4c-.3.8-.7 1.6-1.2 2.5-.7 1.2-1.3 2-2 2.4-.4.3-.7.4-1.1.4-.2 0-.5-.1-.7-.2-.3-.2-.6-.5-.7-.8s-.2-.8-.2-1.3v-.8c0-.2.1-.5.1-.9.1-.4.2-1 .3-1.7.1-.7.4-1.7.8-2.9 0-.1.1-.2.1-.3 0-.1-.1-.2-.2-.2 0 0-.1 0-.1.1-.1.1-.3.2-.5.4-.6.7-1.2 1.5-1.7 2.2-.9 1.3-1.8 2.9-2.6 4.7-.2.4-.4.7-.6.8-.2.1-.3.2-.5.2-.1 0-.2-.1-.3-.3s-.2-.5-.2-.8c0-.3 0-.6.1-1s.2-1 .4-2c.3-1.2.6-2.1.8-2.7l.6-1.8c.1-.4.2-.7.2-1 0-.3.1-.6.1-1 .1-.3.2-.5.4-.7.2-.2.5-.3.7-.3.2 0 .4.1.5.2.1.1.2.3.2.6 0 .2-.1.5-.2.9-.6 1.5-1.1 3-1.7 4.4L279 54l1-1c.5-.8 1-1.5 1.6-2.3.7-.9 1.3-1.8 1.9-2.4.2-.2.3-.4.5-.5.2-.2.5-.3.7-.3.3 0 .6.1.7.3.1.2.2.5.2.8 0 .2 0 .4-.1.6 0 .2-.1.4-.1.5-.3 1.2-.6 2.3-.8 3.5-.3 1.1-.4 2.1-.4 2.9v.5c0 .4 0 .6.1.8.1.2.2.3.4.3s.3-.1.5-.2l.5-.5c.3-.4.6-1 .9-1.6l.9-2.1c.2-.3.3-.5.5-.6.2-.1.3-.1.5-.1.3 0 .4.2.4.5-.2-.2-.2.1-.3.3zM304.7 51.9c0 .2 0 .4-.1.7-.1.3-.3.7-.6 1.3-.8 1.4-1.8 2.6-3 3.6-1.3 1.1-2.7 1.7-3.9 1.7-.9 0-1.6-.3-2.1-.8-.5-.6-.8-1.4-.8-2.4 0-.7.1-1.4.3-2.1.5-1.7 1.2-3.2 2.2-4.4 1.1-1.4 2.3-2.1 3.4-2.1.8 0 1.4.3 1.9 1 .4.6.6 1.3.6 2.1-.3.9-.5 1.5-.6 1.6-.4.9-.8 1.3-1.3 1.3-.2 0-.4-.1-.5-.2-.1-.2-.2-.3-.2-.5s.1-.6.3-1c.2-.4.4-.9.6-1.4v-.4c0-.3 0-.6-.1-.7-.2-.2-.4-.4-.7-.4-.7 0-1.6.7-2.6 2.2-.9 1.3-1.5 2.5-1.8 3.6-.2.6-.2 1.1-.2 1.6 0 .6.1 1.1.4 1.5.2.4.6.6 1.2.6.8 0 1.7-.3 2.6-1 .9-.7 1.8-1.6 2.7-2.8.2-.3.6-1 1.1-2 .3-.6.6-.9.9-.9.2-.3.3-.1.3.3zM314.9 50.9c0 .2 0 .3-.1.5 0 .2-.2.5-.4.9-.5 1.2-1 2.3-1.5 3.2-.8 1.5-1.6 2.5-2.3 3-.3.3-.7.4-1 .4-.3 0-.5-.1-.7-.4-.2-.2-.3-.5-.3-.9 0-.3.1-.8.3-1.6.3-1 .5-2 .7-2.8 0 0 .1-.3.2-.8s.2-.7.2-.8l-.1-.2-.3.3c-.2.3-.6.8-1.1 1.5-1.2 1.7-2 2.9-2.4 3.6-.7 1.1-1.3 1.6-1.7 1.6-.1 0-.2-.1-.3-.2-.1-.1-.2-.3-.2-.6 0-.2.1-.6.3-1.2.2-.7.4-1.2.5-1.7.1-.5.7-2.2 1.6-5.1.3-1 .7-2 1.1-3.1.2-.7.4-1.2.5-1.6.1-.9.2-1.5.3-1.8 0-.2.3-.5.7-.9.3-.2.6-.3.8-.3.3 0 .5.2.5.6 0 .1 0 .3-.1.6s-.2.7-.5 1.3c-.3.8-.6 1.5-.8 2-.1.3-.4 1.3-1.1 2.9-.4 1.2-.7 2-.8 2.3l-.9 3.1.7-1.1c1.1-1.6 2-2.7 2.6-3.3.5-.5.9-.8 1.3-.8.2 0 .4.1.5.2.1.2.2.4.2.7 0 .3 0 .6-.1 1.1s-.3 1.4-.7 2.8l-.3.9-.3 1.5v.2c0 .1 0 .1.1.1 0 0 0 .1.1.1s.3-.1.4-.2.4-.5.7-.9c.4-.7.8-1.5 1.2-2.3.3-.6.7-1.4 1.1-2.5.1-.2.2-.4.3-.7.1-.2.3-.4.6-.4.4.4.5.5.5.8zM324.3 51.4c0 2.2-.7 4.1-2.2 5.5-1.3 1.3-2.6 1.9-4.1 1.9-1.1 0-1.9-.4-2.5-1.1-.6-.7-.9-1.7-.9-3 0-1.6.6-3.4 1.7-5.3 1.2-1.9 2.3-2.8 3.4-2.6.3-.1.6-.1.9-.1 1.1 0 1.9.4 2.6 1.1.8.9 1.1 2.1 1.1 3.6zm-1.3 0c0-1.2-.3-2-.8-2.6-.4-.5-.9-.7-1.5-.7h-.7s-.3.1-.5.2c-1 .4-1.8 1.3-2.5 2.7-.7 1.4-1.1 2.7-1.1 4 0 .9.2 1.6.7 2.1.4.4.9.6 1.5.6 1.3 0 2.4-.6 3.4-1.9s1.5-2.8 1.5-4.4zM335 51.9c0 .2 0 .4-.1.7-.1.3-.3.7-.6 1.3-.8 1.4-1.8 2.6-3 3.6-1.3 1.1-2.7 1.7-3.9 1.7-.9 0-1.6-.3-2.1-.8-.5-.6-.8-1.4-.8-2.4 0-.7.1-1.4.3-2.1.5-1.7 1.2-3.2 2.2-4.4 1.1-1.4 2.3-2.1 3.4-2.1.8 0 1.4.3 1.9 1 .4.6.6 1.3.6 2.1-.3.9-.5 1.5-.6 1.6-.4.9-.8 1.3-1.3 1.3-.2 0-.4-.1-.5-.2-.1-.2-.2-.3-.2-.5s.1-.6.3-1c.2-.4.4-.9.6-1.4v-.4c0-.3 0-.6-.1-.7-.2-.2-.4-.4-.7-.4-.7 0-1.6.7-2.6 2.2-.9 1.3-1.5 2.5-1.8 3.6-.2.6-.2 1.1-.2 1.6 0 .6.1 1.1.4 1.5.2.4.6.6 1.2.6.8 0 1.7-.3 2.6-1 .9-.7 1.8-1.6 2.7-2.8.2-.3.6-1 1.1-2 .3-.6.6-.9.9-.9.1-.3.3-.1.3.3zM344.4 51.4c0 2.2-.7 4.1-2.2 5.5-1.3 1.3-2.6 1.9-4.1 1.9-1.1 0-1.9-.4-2.5-1.1-.6-.7-.9-1.7-.9-3 0-1.6.6-3.4 1.7-5.3 1.2-1.9 2.3-2.8 3.4-2.6.3-.1.6-.1.9-.1 1.1 0 1.9.4 2.6 1.1.7.9 1.1 2.1 1.1 3.6zm-1.3 0c0-1.2-.3-2-.8-2.6-.4-.5-.9-.7-1.5-.7h-.7s-.3.1-.5.2c-1 .4-1.8 1.3-2.5 2.7-.7 1.4-1.1 2.7-1.1 4 0 .9.2 1.6.7 2.1.4.4.9.6 1.5.6 1.3 0 2.4-.6 3.4-1.9s1.5-2.8 1.5-4.4zM353.4 41.9c0 .9-.2 1.9-.5 3-.5 1.6-1.1 3.2-2 4.8-1.2 2.2-2.5 4.1-4 5.5 0 .3-.1.6-.1 1 0 .6.1.9.2 1.1.1.2.2.3.4.3s.5-.1.8-.4c.6-.5 1.2-1.4 1.9-2.6.6-.9 1.1-1.9 1.5-2.8.1-.3.2-.5.3-.5.2-.2.3-.3.5-.3.3 0 .4.2.4.6 0 .2-.1.5-.2.8-.4.8-.8 1.6-1.3 2.4-.6.9-1.1 1.7-1.6 2.4s-1 1.1-1.6 1.4c-.4.2-.8.4-1.2.4-.4 0-.7-.2-.9-.6-.3-.5-.5-1.3-.5-2.3-.2-.1-.4-.3-.4-.5 0-.4.1-.7.3-1 .2-1.6.5-3.2 1-4.9.5-1.7 1-3.4 1.7-4.9.9-2.2 1.9-3.6 2.7-4.2.2-.1.3-.2.5-.3.2-.1.4-.1.5-.1.5 0 .9.1 1.1.4.4.3.5.8.5 1.3zm-1.2.4c0-.5-.1-.8-.3-.8s-.5.3-.9.8c-.5.6-.9 1.6-1.5 2.8-.6 1.5-1.2 2.9-1.6 4.4-.5 1.5-.8 2.9-.9 4.1 1.4-1.7 2.6-3.7 3.7-6.2 1-2.3 1.5-4 1.5-5.1zM365.5 51.1c0 .4-.4 1.4-1.3 2.8-.7 1.2-1.4 2.2-2 2.9-.4.5-.7.8-1.1 1.1-.6.5-1.1.7-1.5.7-.3 0-.6-.1-.8-.4-.2-.3-.3-.6-.3-1.1 0-.3.1-.6.2-1-1 .9-1.6 1.5-1.9 1.7-.8.6-1.5.9-2.2.9-.5 0-.9-.2-1.2-.6-.3-.4-.5-.9-.5-1.6 0-.3 0-.6.1-.8 0-.3.1-.6.2-1 .3-1.1.8-2.2 1.5-3.4.7-1.3 1.5-2.3 2.4-3.2.4-.4.8-.7 1.2-.9.4-.2.8-.3 1.3-.3.7 0 1.2.3 1.6.9.3.5.5 1.1.5 1.9v1.6c0 .3-.1.7-.3 1.1-.5.9-.7 1.5-.7 1.5-.2.4-.3.8-.4 1.1-.2.5-.3 1-.3 1.4 0 .5 0 .7.1.7.2 0 .4-.2.8-.6.4-.4.7-.7.9-1 .4-.6.9-1.3 1.3-2 .5-.9.9-1.6 1.2-2.2.1-.2.2-.4.2-.5.2-.2.4-.3.6-.3.3.2.4.3.4.6zm-5.5.8c.2-.7.4-1.4.4-2.1 0-.5-.1-.9-.2-1.2-.1-.3-.4-.4-.7-.4-.9 0-2 1-3.4 3.1s-2 3.8-2 5.2c0 .3 0 .5.1.8.1.2.3.3.6.3.6 0 1.6-.7 2.8-2.1 1.2-1.4 2-2.6 2.4-3.6zM372 51.9c-.4 1.1-.9 2.1-1.4 3-.6 1.1-1.2 2-1.7 2.7-.3.4-.7.7-1 1-.5.4-.9.5-1.2.5-.4 0-.7-.2-.9-.5-.2-.3-.4-.8-.4-1.3 0-.7.1-1.6.4-2.7s.8-2.7 1.6-4.9c-.2 0-.4 0-.8.1h-1.4c-.2 0-.4 0-.5-.1-.2-.1-.3-.3-.3-.5s.1-.3.2-.4c.1-.1.3-.2.4-.2h2.2s.5 0 .7-.1c.5-1.3 1.1-2.6 1.7-4 .4-.8.8-1.1 1.2-1.1.3 0 .5.1.6.2.1.1.2.3.2.4 0 .1-.2.6-.7 1.5-.5.9-.9 1.9-1.4 2.9l1.3-.2c.3 0 .5.1.7.2.2.1.3.3.3.6 0 .2-.1.4-.2.5-.1.1-.3.2-.5.2l-.9-.1h-.6s-.4 0-.7.1c-.6 1.4-1.1 2.6-1.5 3.7-.6 1.6-.9 2.8-.9 3.3 0 .2 0 .4.1.6.1.2.1.3.3.3.2 0 .4 0 .5-.1.2-.1.5-.3.7-.6.6-.8 1.5-2.3 2.6-4.7.1-.3.3-.6.4-.9.1-.3.3-.5.6-.5.2 0 .4.1.4.4 0 .2 0 .3-.1.4.1.2.1.3 0 .3zM381.4 57.7c0 1.1-.5 1.7-1.5 1.7-.4 0-.7-.1-1-.4-.2-.2-.3-.5-.3-.8 0-.4.2-.8.5-1.2.3-.4.7-.6 1.1-.6.3 0 .6.1.8.3.3.2.4.6.4 1zm5.3-17.5c0 .3-.1.7-.2 1.1-.1.5-.4 1.2-.8 2.2-.4 1-.9 2.2-1.5 3.4-1.1 2.5-1.8 4.3-2 5.4 0 .2-.1.5-.2 1.1-.1.6-.2.9-.4 1.1-.2.2-.4.2-.6.2-.3 0-.5-.1-.6-.2s-.2-.4-.2-.7v-.6c0-.1.1-.4.2-.8.4-1.5.9-3 1.4-4.3.7-1.5 1.2-2.6 1.5-3.4.3-.8.7-1.9 1.2-3.4.3-1 .6-1.6.9-1.9.2-.2.4-.2.5-.2.2 0 .3.1.5.2.2.2.3.5.3.8zM86 103.2c.1.6.2 1.3.2 2 0 .6 0 1.1-.1 1.7-.1.5-.3 1.2-.6 1.9-.8 2-2.1 3.8-4 5.3-1.7 1.3-3.5 2.2-5.4 2.6-.4.1-.8.2-1.2.2s-.8.1-1.1.1c-1.1 0-2-.2-2.7-.5s-1-.8-1-1.2c0-.2.1-.4.2-.7.2-.6.3-1 .4-1.3.3-1.4.7-2.8 1.3-4.2.3-.9.7-1.9 1.3-3.2.7-1.5 1.1-2.5 1.4-3 .4-.9.7-1.6.9-2.2.2-.6.3-1 .4-1.2.2-.4.6-.6 1-.6.3 0 .5.1.6.3s.2.4.2.7c0 .2-.2.6-.5 1.1-.2.3-.4.6-.6 1-.7 1.6-1.5 3.3-2.3 5.3-.9 2.2-1.6 4-2 5.5-.1.5-.2.9-.3 1.2s-.1.6-.1.9c0 .3.1.6.3.7.3.2.9.3 1.7.3 1 0 2-.2 3-.5 1.4-.5 2.7-1.3 4-2.3 1.6-1.3 2.7-2.9 3.3-4.6.3-1 .5-2 .5-3 0-2.2-.7-4-2.2-5.5-1.6-1.6-3.6-2.3-6.2-2.3s-5.2.8-7.8 2.5c-2.5 1.7-3.8 3.4-3.8 5.2 0 .3 0 .6.1.9.2.5.4.9.9 1.2.4.2.8.4 1.4.6.3.1.5.1.7.3.2.1.3.3.3.6 0 .1 0 .1-.1.2-.2.2-.4.2-.7.2l-.5-.1c-1.1-.3-2-.7-2.7-1.4-.7-.7-1-1.5-1-2.3 0-.9.3-1.9 1-2.9.8-1.3 2-2.4 3.5-3.4 1.6-1.1 3.3-1.9 5.1-2.3 1.2-.3 2.5-.5 3.7-.5.5 0 1 0 1.5.1.5 0 .9.1 1.3.2 1.6.4 2.9 1.1 4.1 2.2 1.4.7 2.2 2.3 2.6 4.2zM104.3 110c0 .2 0 .4-.1.7-.1.3-.3.7-.6 1.3-.8 1.4-1.8 2.6-3 3.6-1.3 1.1-2.7 1.7-3.9 1.7-.9 0-1.6-.3-2.1-.8-.5-.6-.8-1.4-.8-2.4 0-.7.1-1.4.3-2.1.5-1.7 1.2-3.2 2.2-4.4 1.1-1.4 2.3-2.1 3.4-2.1.8 0 1.4.3 1.9 1 .4.6.6 1.3.6 2.1-.3.9-.5 1.5-.6 1.6-.4.9-.8 1.3-1.3 1.3-.2 0-.4-.1-.5-.2-.1-.2-.2-.3-.2-.5s.1-.6.3-1c.2-.4.4-.9.6-1.4v-.4c0-.3 0-.6-.1-.7-.2-.2-.4-.4-.7-.4-.7 0-1.6.7-2.6 2.2-.9 1.3-1.5 2.5-1.8 3.6-.2.6-.2 1.1-.2 1.6 0 .6.1 1.1.4 1.5.2.4.6.6 1.2.6.8 0 1.7-.3 2.6-1 .9-.7 1.8-1.6 2.7-2.8.2-.3.6-1 1.1-2 .3-.6.6-.9.9-.9.1-.3.3-.1.3.3zM113.7 109.6c0 2.2-.7 4.1-2.2 5.5-1.3 1.3-2.6 1.9-4.1 1.9-1.1 0-1.9-.4-2.5-1.1-.6-.7-.9-1.7-.9-3 0-1.6.6-3.4 1.7-5.3 1.2-1.9 2.3-2.8 3.4-2.6.3-.1.6-.1.9-.1 1.1 0 1.9.4 2.6 1.1.7.9 1.1 2 1.1 3.6zm-1.4 0c0-1.2-.3-2-.8-2.6-.4-.5-.9-.7-1.5-.7h-.7s-.3.1-.5.2c-1 .4-1.8 1.3-2.5 2.7-.7 1.4-1.1 2.7-1.1 4 0 .9.2 1.6.7 2.1.4.4.9.6 1.5.6 1.3 0 2.4-.6 3.4-1.9s1.5-2.8 1.5-4.4zM124.8 111.5c-.4.8-.9 1.7-1.5 2.6-.7.9-1.3 1.6-1.8 2.1-.2.2-.4.3-.5.4-.2.1-.3.1-.5.1s-.5-.2-.7-.5c-.1-.2-.2-.4-.3-.7s-.1-.6-.1-.9v-.3c-.6.7-1 1.3-1.4 1.6-.4.4-.8.6-1.1.8-.3.2-.6.2-.8.2-.4 0-.7-.2-1-.5-.1-.2-.2-.4-.3-.8-.1-.3-.1-.6-.1-.9 0-.4 0-.7.1-1 0-.2.1-.5.2-.9.2-.9.7-2 1.2-3.2.6-1.2 1.2-2.1 1.8-2.8l.4-.4c.1-.1.3-.1.5-.1s.4.1.5.2c.2.1.2.3.2.5s-.1.5-.4.9c-.5.7-1 1.5-1.5 2.2-.5.9-.9 1.7-1.2 2.4-.2.4-.3.8-.4 1.2-.1.5-.2.9-.2 1.2 0 .3 0 .5.1.6s.2.2.3.2c.2 0 .4-.1.7-.3.3-.2.6-.6 1-1 .7-.8 1.3-1.7 1.7-2.5.2-.3.5-1.1 1-2.3.1-.3.3-.6.4-.8.2-.3.5-.5.8-.5.2 0 .3.1.5.2s.2.3.2.5c0 .3-.2.7-.5 1.3-.4.6-.8 1.2-1 1.7-.2.5-.4.9-.5 1.4-.1.4-.1.8-.1 1.1 0 .3 0 .5.1.6.1.1.2.2.3.2.1 0 .2-.1.3-.2l.4-.4c.4-.5.8-1 1.2-1.7.1-.2.4-.7.8-1.7.2-.3.3-.5.4-.7.1-.1.3-.2.4-.2.3 0 .5.2.5.5 0 .2 0 .4-.1.6zM131.7 107.6c0 .3-.1.6-.2.9-.1.3-.2.6-.2.7 0 .1 0 .3.1.5s.1.4.1.5c0 .1-.1.2-.2.3l-.3.3c-.2.4-.3.7-.5.9 0 0-.2.4-.4.9-.4.9-.8 1.7-1.2 2.4-.6 1-1.2 1.7-1.7 2-.3.2-.5.2-.8.2-.4 0-.8-.2-1-.6-.3-.4-.4-1-.4-1.8 0-.3 0-.7.1-1.1l.7-4.2c.2-.9.2-1.3.3-1.4.2-.7.5-1 .9-1s.7.3.7.8c0 .4-.1.9-.3 1.5l-.6 2.1s-.3 1.3-.4 1.6c-.1.7-.2 1.3-.2 1.7 0 .5.1.8.2 1 .1.1.2.2.3.2.1 0 .2 0 .3-.1l.3-.3c.2-.3.6-1 1.1-2 .5-1.1.9-1.9 1.1-2.5l.3-.9v-2.5s0-.5.1-.9.2-.6.4-.8c.2-.2.3-.3.5-.3s.4.1.6.2c.2.2.3.6.3 1.1v.6zM139.8 112.2c-.4 1-.7 1.6-.8 1.9-.4.8-.8 1.5-1.3 1.9-.4.4-.9.7-1.2.7-.3 0-.6-.2-.9-.6-.3-.4-.4-.8-.4-1.4 0-.5.1-1 .2-1.6.1-.6.3-1.5.7-2.6l.5-1.5c-.3 0-.6-.1-.7-.3l-.2.6c-.6 1.9-1.2 3.2-1.5 4.1-.6 1.2-1.1 2.2-1.8 2.9-.4.4-.7.6-1.1.6-.4 0-.6-.2-.6-.6 0-.1.1-.3.3-.5.4-.4.7-.8.9-1 .6-.8 1.2-2 1.9-3.8.6-1.6 1-2.9 1.2-3.9.1-.4.1-.7.3-.9.2-.3.5-.5.8-.5.2 0 .3 0 .4.1.3.2.4.4.4.9 0 .1 0 .2-.1.4.2-.2.5-.3.8-.3.2 0 .4.1.5.2.1.1.2.3.2.5s0 .4-.1.6c-.2.6-.5 1.6-.9 2.8-.3 1.2-.5 2.1-.6 2.5-.1.4-.1.7-.1.8v.5c0 .5.1.8.4.8.1 0 .2-.1.3-.2.1-.1.3-.3.4-.5.1-.2.3-.6.6-1.4.3-.7.6-1.3.7-1.8.1-.3.2-.5.3-.6.1-.1.2-.2.4-.2.3 0 .4.2.4.5v.5c-.1-.1-.2.1-.3.4zM93.7 109.6c0 1.2-.6 2.6-1.7 4.3-1.3 1.9-2.5 2.8-3.7 2.8-.7 0-1.3-.2-1.7-.7-.5-.6-.7-1.5-.7-2.6 0-1.3.3-2.7.8-4.2.6-1.4 1.2-2.5 1.9-3.2.2-.2.5-.4.8-.5.3-.1.5-.2.7-.2.4 0 .7.1.9.4.4.4.6.9.6 1.6 0 1.3-.3 2.4-1 3.3s-1.5 1.4-2.5 1.4c-.2 0-.4 0-.7-.1 0 .2-.1.5-.1.7 0 .3-.1.5-.1.7 0 .6.1 1.1.3 1.5.2.4.5.6.9.6.7 0 1.4-.6 2.3-1.9s1.5-2.5 1.7-3.7c.1-.3.1-.6.2-.7.1-.3.3-.4.5-.4.5.2.6.4.6.9zm-3.3-2.1c0-.5-.2-.7-.5-.7s-.7.4-1.2 1.3c-.4.8-.8 1.7-1 2.6.1.1.2.1.3.1h.3c.6 0 1.1-.4 1.5-1.1.4-.7.6-1.4.6-2.2zM147.7 109.6c0 1.2-.6 2.6-1.7 4.3-1.3 1.9-2.5 2.8-3.7 2.8-.7 0-1.3-.2-1.7-.7-.5-.6-.7-1.5-.7-2.6 0-1.3.3-2.7.8-4.2.6-1.4 1.2-2.5 1.9-3.2.2-.2.5-.4.8-.5.3-.1.5-.2.7-.2.4 0 .7.1.9.4.4.4.6.9.6 1.6 0 1.3-.3 2.4-1 3.3s-1.5 1.4-2.5 1.4c-.2 0-.4 0-.7-.1 0 .2-.1.5-.1.7 0 .3-.1.5-.1.7 0 .6.1 1.1.3 1.5.2.4.5.6.9.6.7 0 1.4-.6 2.3-1.9s1.5-2.5 1.7-3.7c.1-.3.1-.6.2-.7.1-.3.3-.4.5-.4.5.2.6.4.6.9zm-3.3-2.1c0-.5-.2-.7-.5-.7s-.7.4-1.2 1.3c-.4.8-.8 1.7-1 2.6.1.1.2.1.3.1h.3c.6 0 1.1-.4 1.5-1.1.4-.7.6-1.4.6-2.2zM156.1 109.7c-.2.4-.8.9-1.7 1.5-1.5 1-2.8 2-4 2.9-.4.3-.7.6-.9.8-.1.1-.2.3-.3.4.1 0 .1.1.2.1h.2l1.1-.1c.4 0 .8-.1 1.1-.1.3 0 .7-.1 1-.1.5 0 .8.1 1.1.2.3.1.4.2.5.3.1.1.1.3.1.4 0 .2-.1.4-.2.5s-.3.1-.4.1c-.3 0-.5-.1-.7-.2-.2-.1-.4-.2-.9-.2-.6 0-1.4.1-2.2.2s-1.3.2-1.4.2c-.5 0-.8-.1-1.1-.3-.2-.2-.4-.4-.4-.7 0-.2.1-.4.2-.6.1-.2.3-.4.5-.6.7-.8 1.7-1.6 3-2.5 1.6-1.1 2.8-2 3.5-2.6.1-.1.2-.2.2-.4s-.1-.2-.3-.2c-.2 0-.4 0-.8.1s-.7.1-.9.1c-.2 0-.8.1-1.8.2-.6.1-1 .1-1.3.1-.5 0-.8-.1-1-.3-.2-.2-.3-.4-.3-.6 0-.3.1-.5.3-.6.2-.1.5-.2.8-.2h.3c.2 0 .3.1.4.1h1.6c.5 0 1-.1 1.5-.1.5-.1 1.1-.1 1.6-.1.3 0 .6 0 .8.1.3.1.5.2.6.5.2.2.2.5.2.7 0 .5-.1.7-.2 1zM170.6 100.1c0 .9-.2 1.9-.5 3-.5 1.6-1.1 3.2-2 4.8-1.2 2.2-2.5 4.1-4 5.5 0 .3-.1.6-.1 1 0 .6.1.9.2 1.1.1.2.2.3.4.3s.5-.1.8-.4c.6-.5 1.2-1.4 1.9-2.6.6-.9 1.1-1.9 1.5-2.8.1-.3.2-.5.3-.5.2-.2.3-.3.5-.3.3 0 .4.2.4.6 0 .2-.1.5-.2.8-.4.8-.8 1.6-1.3 2.4-.6.9-1.1 1.7-1.6 2.4s-1 1.1-1.6 1.4c-.4.2-.8.4-1.2.4-.4 0-.7-.2-.9-.6-.3-.5-.5-1.3-.5-2.3-.2-.1-.4-.3-.4-.5 0-.4.1-.7.3-1 .2-1.6.5-3.2 1-4.9.5-1.7 1-3.4 1.7-4.9.9-2.2 1.9-3.6 2.7-4.2.2-.1.3-.2.5-.3.2-.1.4-.1.5-.1.5 0 .9.1 1.1.4.4.3.5.7.5 1.3zm-1.2.4c0-.5-.1-.8-.3-.8s-.5.3-.9.8c-.5.6-.9 1.6-1.5 2.8-.6 1.5-1.2 2.9-1.6 4.4-.5 1.5-.8 2.9-.9 4.1 1.4-1.7 2.6-3.7 3.7-6.2 1-2.4 1.5-4.1 1.5-5.1zM178.3 109.6c0 1.2-.6 2.6-1.7 4.3-1.3 1.9-2.5 2.8-3.7 2.8-.7 0-1.3-.2-1.7-.7-.5-.6-.7-1.5-.7-2.6 0-1.3.3-2.7.8-4.2.6-1.4 1.2-2.5 1.9-3.2.2-.2.5-.4.8-.5.3-.1.5-.2.7-.2.4 0 .7.1.9.4.4.4.6.9.6 1.6 0 1.3-.3 2.4-1 3.3s-1.5 1.4-2.5 1.4c-.2 0-.4 0-.7-.1 0 .2-.1.5-.1.7 0 .3-.1.5-.1.7 0 .6.1 1.1.3 1.5.2.4.5.6.9.6.7 0 1.4-.6 2.3-1.9s1.5-2.5 1.7-3.7c.1-.3.1-.6.2-.7.1-.3.3-.4.5-.4.4.2.6.4.6.9zm-3.4-2.1c0-.5-.2-.7-.5-.7s-.7.4-1.2 1.3c-.4.8-.8 1.7-1 2.6.1.1.2.1.3.1h.3c.6 0 1.1-.4 1.5-1.1.4-.7.6-1.4.6-2.2zM186.9 108.2c0 .6-.1 1.2-.3 1.9-.3.9-.6 1.4-1.1 1.6-.1.1-.3.1-.4.1-.1 0-.2 0-.3-.1-.2-.1-.4-.3-.4-.6 0-.1 0-.3.1-.5 0-.1.1-.2.1-.2.2-.3.3-.6.5-1 .2-.5.3-.9.3-1.3 0-.3-.1-.6-.3-.8-.3-.3-.8-.5-1.5-.5-.5 0-1.1.1-1.6.3-.5.2-1 .5-1.3.9-.2.2-.3.5-.5.7-.1.2-.2.5-.2.8 0 .3 0 .5.1.8.1.3.3.5.5.8.2.3.7.7 1.5 1.2.6.5 1.1.8 1.4 1.1.3.3.6.5.8.8.3.4.4.7.4 1.1 0 .5-.3.9-.9 1.2-.5.2-1.1.3-1.8.3-1.3 0-2.4-.2-3.1-.7-.6-.4-.9-.9-.9-1.4 0-.3.1-.6.3-.9.2-.3.5-.4.7-.4.3 0 .5.1.5.4 0 .2-.1.3-.2.4-.1.1-.2.3-.2.4 0 .3.3.6.8.8.5.2 1.2.4 2.2.4.5 0 .8 0 .9-.1.2-.1.2-.2.2-.3 0-.2-.1-.4-.4-.7-.3-.3-.9-.7-1.7-1.3-.7-.5-1.2-.8-1.5-1.2-.4-.4-.7-.7-.9-1.1s-.2-.8-.2-1.2c0-.3 0-.6.1-.9.1-.2.2-.5.3-.8.3-.6.8-1.1 1.3-1.5.7-.5 1.5-.8 2.5-1l1.1-.1c.8 0 1.5.2 1.9.7 1 .3 1.2 1 1.2 1.9zM203 110c0 .2 0 .4-.1.7-.1.3-.3.7-.6 1.3-.8 1.4-1.8 2.6-3 3.6-1.3 1.1-2.7 1.7-3.9 1.7-.9 0-1.6-.3-2.1-.8-.5-.6-.8-1.4-.8-2.4 0-.7.1-1.4.3-2.1.5-1.7 1.2-3.2 2.2-4.4 1.1-1.4 2.3-2.1 3.4-2.1.8 0 1.4.3 1.9 1 .4.6.6 1.3.6 2.1-.3.9-.5 1.5-.6 1.6-.4.9-.8 1.3-1.3 1.3-.2 0-.4-.1-.5-.2-.1-.2-.2-.3-.2-.5s.1-.6.3-1c.2-.4.4-.9.6-1.4v-.4c0-.3 0-.6-.1-.7-.2-.2-.4-.4-.7-.4-.7 0-1.6.7-2.6 2.2-.9 1.3-1.5 2.5-1.8 3.6-.2.6-.2 1.1-.2 1.6 0 .6.1 1.1.4 1.5.2.4.6.6 1.2.6.8 0 1.7-.3 2.6-1 .9-.7 1.8-1.6 2.7-2.8.2-.3.6-1 1.1-2 .3-.6.6-.9.9-.9.1-.3.3-.1.3.3zM213.2 109c0 .2 0 .3-.1.5 0 .2-.2.5-.4.9-.5 1.2-1 2.3-1.5 3.2-.8 1.5-1.6 2.5-2.3 3-.3.3-.7.4-1 .4-.3 0-.5-.1-.7-.4-.2-.2-.3-.5-.3-.9 0-.3.1-.8.3-1.6.3-1 .5-2 .7-2.8 0 0 .1-.3.2-.8s.2-.7.2-.8l-.1-.2-.3.3c-.2.3-.6.8-1.1 1.5-1.2 1.7-2 2.9-2.4 3.6-.7 1.1-1.3 1.6-1.7 1.6-.1 0-.2-.1-.3-.2-.1-.1-.2-.3-.2-.6 0-.2.1-.6.3-1.2.2-.7.4-1.2.5-1.7.1-.5.7-2.2 1.6-5.1.3-1 .7-2 1.1-3.1.2-.7.4-1.2.5-1.6.1-.9.2-1.5.3-1.8 0-.2.3-.5.7-.9.3-.2.6-.3.8-.3.3 0 .5.2.5.6 0 .1 0 .3-.1.6s-.2.7-.5 1.3c-.3.8-.6 1.5-.8 2-.1.3-.4 1.3-1.1 2.9-.4 1.2-.7 2-.8 2.3l-.9 3.1.7-1.1c1.1-1.6 2-2.7 2.6-3.3.5-.5.9-.8 1.3-.8.2 0 .4.1.5.2.1.2.2.4.2.7 0 .3 0 .6-.1 1.1s-.3 1.4-.7 2.8l-.3.9-.3 1.5v.2c0 .1 0 .1.1.1 0 0 0 .1.1.1s.3-.1.4-.2.4-.5.7-.9c.4-.7.8-1.5 1.2-2.3.3-.6.7-1.4 1.1-2.5.1-.2.2-.4.3-.7.1-.2.3-.4.6-.4.4.4.5.5.5.8zM222.6 109.6c0 2.2-.7 4.1-2.2 5.5-1.3 1.3-2.6 1.9-4.1 1.9-1.1 0-1.9-.4-2.5-1.1-.6-.7-.9-1.7-.9-3 0-1.6.6-3.4 1.7-5.3 1.2-1.9 2.3-2.8 3.4-2.6.3-.1.6-.1.9-.1 1.1 0 1.9.4 2.6 1.1.7.9 1.1 2 1.1 3.6zm-1.3 0c0-1.2-.3-2-.8-2.6-.4-.5-.9-.7-1.5-.7h-.7s-.3.1-.5.2c-1 .4-1.8 1.3-2.5 2.7-.7 1.4-1.1 2.7-1.1 4 0 .9.2 1.6.7 2.1.4.4.9.6 1.5.6 1.3 0 2.4-.6 3.4-1.9s1.5-2.8 1.5-4.4zM233.3 110c0 .2 0 .4-.1.7-.1.3-.3.7-.6 1.3-.8 1.4-1.8 2.6-3 3.6-1.3 1.1-2.7 1.7-3.9 1.7-.9 0-1.6-.3-2.1-.8-.5-.6-.8-1.4-.8-2.4 0-.7.1-1.4.3-2.1.5-1.7 1.2-3.2 2.2-4.4 1.1-1.4 2.3-2.1 3.4-2.1.8 0 1.4.3 1.9 1 .4.6.6 1.3.6 2.1-.3.9-.5 1.5-.6 1.6-.4.9-.8 1.3-1.3 1.3-.2 0-.4-.1-.5-.2-.1-.2-.2-.3-.2-.5s.1-.6.3-1c.2-.4.4-.9.6-1.4v-.4c0-.3 0-.6-.1-.7-.2-.2-.4-.4-.7-.4-.7 0-1.6.7-2.6 2.2-.9 1.3-1.5 2.5-1.8 3.6-.2.6-.2 1.1-.2 1.6 0 .6.1 1.1.4 1.5.2.4.6.6 1.2.6.8 0 1.7-.3 2.6-1 .9-.7 1.8-1.6 2.7-2.8.2-.3.6-1 1.1-2 .3-.6.6-.9.9-.9.1-.3.3-.1.3.3zM242.7 109.6c0 2.2-.7 4.1-2.2 5.5-1.3 1.3-2.6 1.9-4.1 1.9-1.1 0-1.9-.4-2.5-1.1-.6-.7-.9-1.7-.9-3 0-1.6.6-3.4 1.7-5.3 1.2-1.9 2.3-2.8 3.4-2.6.3-.1.6-.1.9-.1 1.1 0 1.9.4 2.6 1.1.7.9 1.1 2 1.1 3.6zm-1.4 0c0-1.2-.3-2-.8-2.6-.4-.5-.9-.7-1.5-.7h-.7s-.3.1-.5.2c-1 .4-1.8 1.3-2.5 2.7-.7 1.4-1.1 2.7-1.1 4 0 .9.2 1.6.7 2.1.4.4.9.6 1.5.6 1.3 0 2.4-.6 3.4-1.9s1.5-2.8 1.5-4.4zM251.7 100.1c0 .9-.2 1.9-.5 3-.5 1.6-1.1 3.2-2 4.8-1.2 2.2-2.5 4.1-4 5.5 0 .3-.1.6-.1 1 0 .6.1.9.2 1.1.1.2.2.3.4.3s.5-.1.8-.4c.6-.5 1.2-1.4 1.9-2.6.6-.9 1.1-1.9 1.5-2.8.1-.3.2-.5.3-.5.2-.2.3-.3.5-.3.3 0 .4.2.4.6 0 .2-.1.5-.2.8-.4.8-.8 1.6-1.3 2.4-.6.9-1.1 1.7-1.6 2.4s-1 1.1-1.6 1.4c-.4.2-.8.4-1.2.4-.4 0-.7-.2-.9-.6-.3-.5-.5-1.3-.5-2.3-.2-.1-.4-.3-.4-.5 0-.4.1-.7.3-1 .2-1.6.5-3.2 1-4.9.5-1.7 1-3.4 1.7-4.9.9-2.2 1.9-3.6 2.7-4.2.2-.1.3-.2.5-.3.2-.1.4-.1.5-.1.5 0 .9.1 1.1.4.4.3.5.7.5 1.3zm-1.2.4c0-.5-.1-.8-.3-.8s-.5.3-.9.8c-.5.6-.9 1.6-1.5 2.8-.6 1.5-1.2 2.9-1.6 4.4-.5 1.5-.8 2.9-.9 4.1 1.4-1.7 2.6-3.7 3.7-6.2 1-2.4 1.5-4.1 1.5-5.1zM263.8 109.3c0 .4-.4 1.4-1.3 2.8-.7 1.2-1.4 2.2-2 2.9-.4.5-.7.8-1.1 1.1-.6.5-1.1.7-1.5.7-.3 0-.6-.1-.8-.4-.2-.3-.3-.6-.3-1.1 0-.3.1-.6.2-1-1 .9-1.6 1.5-1.9 1.7-.8.6-1.5.9-2.2.9-.5 0-.9-.2-1.2-.6-.3-.4-.5-.9-.5-1.6 0-.3 0-.6.1-.8 0-.3.1-.6.2-1 .3-1.1.8-2.2 1.5-3.4.7-1.3 1.5-2.3 2.4-3.2.4-.4.8-.7 1.2-.9.4-.2.8-.3 1.3-.3.7 0 1.2.3 1.6.9.3.5.5 1.1.5 1.9v1.6c0 .3-.1.7-.3 1.1-.5.9-.7 1.5-.7 1.5-.2.4-.3.8-.4 1.1-.2.5-.3 1-.3 1.4 0 .5 0 .7.1.7.2 0 .4-.2.8-.6.4-.4.7-.7.9-1 .4-.6.9-1.3 1.3-2 .5-.9.9-1.6 1.2-2.2.1-.2.2-.4.2-.5.2-.2.4-.3.6-.3.2.1.4.3.4.6zm-5.5.7c.2-.7.4-1.4.4-2.1 0-.5-.1-.9-.2-1.2-.1-.3-.4-.4-.7-.4-.9 0-2 1-3.4 3.1s-2 3.8-2 5.2c0 .3 0 .5.1.8.1.2.3.3.6.3.6 0 1.6-.7 2.8-2.1 1.2-1.4 2-2.6 2.4-3.6zM270.3 110.1c-.4 1.1-.9 2.1-1.4 3-.6 1.1-1.2 2-1.7 2.7-.3.4-.7.7-1 1-.5.4-.9.5-1.2.5-.4 0-.7-.2-.9-.5-.2-.3-.4-.8-.4-1.3 0-.7.1-1.6.4-2.7s.8-2.7 1.6-4.9c-.2 0-.4 0-.8.1h-1.4c-.2 0-.4 0-.5-.1-.2-.1-.3-.3-.3-.5s.1-.3.2-.4c.1-.1.3-.2.4-.2h2.2s.5 0 .7-.1c.5-1.3 1.1-2.6 1.7-4 .4-.8.8-1.1 1.2-1.1.3 0 .5.1.6.2.1.1.2.3.2.4 0 .1-.2.6-.7 1.5-.5.9-.9 1.9-1.4 2.9l1.3-.2c.3 0 .5.1.7.2.2.1.3.3.3.6 0 .2-.1.4-.2.5-.1.1-.3.2-.5.2l-.9-.1h-.6s-.4 0-.7.1c-.6 1.4-1.1 2.6-1.5 3.7-.6 1.6-.9 2.8-.9 3.3 0 .2 0 .4.1.6.1.2.1.3.3.3.2 0 .4 0 .5-.1.2-.1.5-.3.7-.6.6-.8 1.5-2.3 2.6-4.7.1-.3.3-.6.4-.9.1-.3.3-.5.6-.5.2 0 .4.1.4.4 0 .2 0 .3-.1.4.1.2 0 .2 0 .3zM278.9 108.2c0 .6-.1 1.2-.3 1.9-.3.9-.6 1.4-1.1 1.6-.1.1-.3.1-.4.1-.1 0-.2 0-.3-.1-.2-.1-.4-.3-.4-.6 0-.1 0-.3.1-.5 0-.1.1-.2.1-.2.2-.3.3-.6.5-1 .2-.5.3-.9.3-1.3 0-.3-.1-.6-.3-.8-.3-.3-.8-.5-1.5-.5-.5 0-1.1.1-1.6.3-.5.2-1 .5-1.3.9-.2.2-.3.5-.5.7-.1.2-.2.5-.2.8 0 .3 0 .5.1.8.1.3.3.5.5.8.2.3.7.7 1.5 1.2.6.5 1.1.8 1.4 1.1.3.3.6.5.8.8.3.4.4.7.4 1.1 0 .5-.3.9-.9 1.2-.5.2-1.1.3-1.8.3-1.3 0-2.4-.2-3.1-.7-.6-.4-.9-.9-.9-1.4 0-.3.1-.6.3-.9.2-.3.5-.4.7-.4.3 0 .5.1.5.4 0 .2-.1.3-.2.4-.1.1-.2.3-.2.4 0 .3.3.6.8.8.5.2 1.2.4 2.2.4.5 0 .8 0 .9-.1.2-.1.2-.2.2-.3 0-.2-.1-.4-.4-.7-.3-.3-.9-.7-1.7-1.3-.7-.5-1.2-.8-1.5-1.2-.4-.4-.7-.7-.9-1.1s-.2-.8-.2-1.2c0-.3 0-.6.1-.9.1-.2.2-.5.3-.8.3-.6.8-1.1 1.3-1.5.7-.5 1.5-.8 2.5-1l1.1-.1c.8 0 1.5.2 1.9.7.9.3 1.2 1 1.2 1.9zM290 108.9c0 .3-.4.8-1.2 1.5-.6.5-.9.9-1.2 1.2l-.7.9.1.3c.2.5.5.9.9 1.4.2.3.5.6.8.9.1.2.2.4.2.5 0 .2-.1.4-.3.5-.1.1-.3.2-.5.2s-.4-.1-.7-.3l-.3-.3c-.2-.3-.6-.7-1-1.3-.4-.6-.7-1.1-.8-1.5-.1-.2-.1-.3-.1-.3 0-.1.2-.4.5-.9s.8-1.1 1.4-1.8c.6-.7 1.2-1.1 1.6-1.4.2-.1.4-.2.6-.2.6 0 .7.2.7.6zm4.3.3c-.2.2-.3.4-.5.5-.1.1-.4.3-.9.7-.2.2-.5.4-.7.6-.4.3-.7.6-.9.9l-.6.6.2.4c.4.6.7 1.1 1 1.5.3.4.5.6.7.8s.2.4.2.6c0 .2-.1.3-.2.5s-.4.2-.6.2c-.2 0-.5-.1-.7-.3-.3-.2-.6-.7-1.1-1.4-.3-.5-.6-1.1-.9-1.7l-.2-.5c0-.1 0-.2.1-.3.1-.1.2-.4.5-.7.5-.6 1.1-1.2 1.8-1.8.8-.7 1.5-1.2 2-1.5.1 0 .2-.1.3-.1h.3c.4 0 .6.2.6.5-.1 0-.2.2-.4.5zM317.4 110.3c-.5 1.1-.9 1.9-1.3 2.4-.4.7-.9 1.5-1.4 2.3-.5.7-.9 1.2-1.4 1.5-.3.2-.6.3-.8.3-.3 0-.6-.2-.9-.5-.3-.4-.5-.9-.5-1.6 0-.6.1-1.3.4-2.2.3-.9.5-1.6.7-2.1.1-.2.1-.4.2-.6v-.4l-.2-.1c-.1 0-.5.4-1.2 1.3-.5.7-1 1.3-1.5 2 0 0-.6 1-1.9 2.9-.5.7-.8 1.1-1.1 1.1-.1 0-.3-.1-.4-.3-.1-.2-.2-.5-.2-.8 0-.2 0-.5.1-.8.3-.9.7-1.7 1-2.7.3-.9.6-1.6.7-2.2.2-.5.2-.9.2-1 0-.2-.1-.3-.2-.3s-.3.1-.4.2-.4.3-.6.6c-.8 1-1.6 2-2.3 3-.6.9-1.1 1.7-1.5 2.5-.2.5-.4.9-.7 1.3-.3.5-.6.7-.9.7-.2 0-.3-.1-.4-.3-.1-.2-.2-.4-.2-.7 0-.3.1-.7.2-1.2s.4-1.2.8-2.3l1.4-3.4.4-.9c.1-.2.1-.3.1-.5 0-.3.1-.6.1-.8 0-.2.1-.5.2-.7.1-.3.3-.6.6-.9.3-.3.6-.5.8-.5.2 0 .3.1.5.2s.2.4.2.8c0 .3-.2.9-.6 1.7-.8 1.7-1.5 3.3-2.1 4.8.4-.6.8-1.1 1.1-1.5.1-.2.6-.8 1.4-1.8.6-.8 1.1-1.3 1.5-1.6.4-.3.8-.4 1.2-.4.3 0 .5.1.7.3.2.2.3.5.3 1s-.1 1.1-.4 2c-.1.5-.3 1.1-.6 1.8 1.1-1.5 1.8-2.4 2-2.7 1-1.3 1.9-2 2.6-2 .3 0 .5.1.6.2.1.1.2.3.2.6 0 .2 0 .5-.1.8-.2.7-.4 1.6-.8 2.8-.2.6-.3 1.2-.5 1.9-.1.3-.1.6-.1.9v.5c0 .2.1.3.3.5.2.1.3.1.5 0 .1-.1.3-.3.4-.6.2-.3.5-1 1.1-2.2.3-.6.8-1.5 1.5-2.6.1-.2.3-.4.4-.5s.3-.2.5-.2c.3 0 .5.2.5.5 0 .1-.1.3-.2.5zM329.7 109.3c0 .4-.4 1.4-1.3 2.8-.7 1.2-1.4 2.2-2 2.9-.4.5-.7.8-1.1 1.1-.6.5-1.1.7-1.5.7-.3 0-.6-.1-.8-.4-.2-.3-.3-.6-.3-1.1 0-.3.1-.6.2-1-1 .9-1.6 1.5-1.9 1.7-.8.6-1.5.9-2.2.9-.5 0-.9-.2-1.2-.6-.3-.4-.5-.9-.5-1.6 0-.3 0-.6.1-.8 0-.3.1-.6.2-1 .3-1.1.8-2.2 1.5-3.4.7-1.3 1.5-2.3 2.4-3.2.4-.4.8-.7 1.2-.9.4-.2.8-.3 1.3-.3.7 0 1.2.3 1.6.9.3.5.5 1.1.5 1.9v1.6c0 .3-.1.7-.3 1.1-.5.9-.7 1.5-.7 1.5-.2.4-.3.8-.4 1.1-.2.5-.3 1-.3 1.4 0 .5 0 .7.1.7.2 0 .4-.2.8-.6.4-.4.7-.7.9-1 .4-.6.9-1.3 1.3-2 .5-.9.9-1.6 1.2-2.2.1-.2.2-.4.2-.5.2-.2.4-.3.6-.3.3.1.4.3.4.6zm-5.5.7c.2-.7.4-1.4.4-2.1 0-.5-.1-.9-.2-1.2-.1-.3-.4-.4-.7-.4-.9 0-2 1-3.4 3.1s-2 3.8-2 5.2c0 .3 0 .5.1.8.1.2.3.3.6.3.6 0 1.6-.7 2.8-2.1 1.2-1.4 2-2.6 2.4-3.6zM340.6 101.9c-1.2 3.3-1.9 5.5-2.3 6.7-.3.9-.6 2.1-1.1 3.8-.1.4-.2.9-.3 1.4-.2.8-.3 1.2-.3 1.4 0 .4.1.7.4.7.1 0 .3-.1.5-.3l.6-.6c.4-.5.7-1 .9-1.4.2-.4.5-.8.7-1.3.1-.1.2-.2.2-.3.1-.1.2-.1.3-.1.1 0 .1 0 .2.1s.1.2.1.4-.1.5-.3.9c-.3.5-.6 1-1 1.6-.4.6-.8 1.1-1.3 1.5-.2.2-.4.4-.6.5-.2.1-.4.2-.7.2-.3 0-.6-.2-.9-.5-.3-.3-.4-.8-.4-1.6 0-.4 0-.7.1-1.1-.3.4-.7.8-1 1.2-.2.3-.5.6-.9.9-.5.4-.9.8-1.4 1-.6.3-1.1.5-1.6.5-.3 0-.6-.1-.8-.2-.3-.2-.5-.4-.7-.7-.2-.3-.3-.6-.4-.9-.1-.3-.1-.6-.1-.9 0-.4 0-.7.1-1.1.1-.4.1-.7.2-1 .4-1.4 1-2.7 1.8-3.9.8-1.2 1.6-2 2.5-2.7.3-.2.7-.4 1-.5.3-.1.6-.2.9-.2.5 0 .8.1 1.2.3.3.2.6.6.8 1.1l.5-1.4.8-2.5.5-1.6.3-.6c.1-.2.3-.3.6-.3.4 0 .7.2.7.7 0 .2 0 .3-.1.5.3.2.3.3.3.3zm-4.6 9c.3-.8.5-1.6.5-2.2 0-.6-.1-1-.3-1.3-.2-.3-.5-.5-.8-.5-.3 0-.7.1-1 .3-.2.1-.5.2-.6.4-.6.5-1.2 1.2-1.8 2-.7 1-1.3 2.2-1.6 3.4-.2.7-.3 1.4-.3 2 0 1.1.3 1.7 1 1.7.3 0 .7-.2 1.2-.5.6-.4 1.3-1.1 1.9-2 .7-1.2 1.4-2.2 1.8-3.3zM347.7 109.6c0 1.2-.6 2.6-1.7 4.3-1.3 1.9-2.5 2.8-3.7 2.8-.7 0-1.3-.2-1.7-.7-.5-.6-.7-1.5-.7-2.6 0-1.3.3-2.7.8-4.2.6-1.4 1.2-2.5 1.9-3.2.2-.2.5-.4.8-.5.3-.1.5-.2.7-.2.4 0 .7.1.9.4.4.4.6.9.6 1.6 0 1.3-.3 2.4-1 3.3s-1.5 1.4-2.5 1.4c-.2 0-.4 0-.7-.1 0 .2-.1.5-.1.7 0 .3-.1.5-.1.7 0 .6.1 1.1.3 1.5.2.4.5.6.9.6.7 0 1.4-.6 2.3-1.9s1.5-2.5 1.7-3.7c.1-.3.1-.6.2-.7.1-.3.3-.4.5-.4.4.2.6.4.6.9zm-3.4-2.1c0-.5-.2-.7-.5-.7s-.7.4-1.2 1.3c-.4.8-.8 1.7-1 2.6.1.1.2.1.3.1h.3c.6 0 1.1-.4 1.5-1.1.4-.7.6-1.4.6-2.2zM359.7 110.8c-.2.6-.6 1.3-1.1 2.2s-1 1.5-1.5 2.1c-.4.5-.9.9-1.3 1.2s-.7.4-1 .4c-.4 0-.7-.2-.8-.5-.2-.3-.3-.8-.3-1.3 0-.4 0-.8.1-1.2.1-.4.1-.7.2-1.1.3-1.5.8-2.9 1.4-4.2.2-.4.4-.7.6-.9.2-.2.4-.3.7-.3.2 0 .3.1.5.2.1.1.2.3.2.5 0 .1 0 .3-.1.5-.2.3-.3.7-.5.9-.3.6-.6 1.3-.9 2.2-.3.9-.6 1.6-.7 2.3-.1.4-.1.8-.1 1 0 .4.1.6.3.6.2 0 .4-.1.6-.4.5-.6 1.1-1.4 1.6-2.5.4-.8.8-1.5 1.2-2.3.1-.2.2-.3.3-.5s.3-.2.5-.2c.3 0 .4.2.4.5-.2.3-.2.5-.3.8zm-1.5-6.6c0 .4-.1.7-.4 1-.3.3-.5.4-.8.4-.2 0-.4-.1-.6-.3-.2-.2-.3-.4-.3-.7 0-.4.1-.7.3-.9.2-.2.5-.4.9-.4.3 0 .5.1.7.2.1.1.2.3.2.7zM370.7 111.6c-.3.8-.7 1.6-1.2 2.5-.7 1.2-1.3 2-2 2.4-.4.3-.7.4-1.1.4-.2 0-.5-.1-.7-.2-.3-.2-.6-.5-.7-.8s-.2-.8-.2-1.3v-.8c0-.2.1-.5.1-.9.1-.4.2-1 .3-1.7.1-.7.4-1.7.8-2.9 0-.1.1-.2.1-.3 0-.1-.1-.2-.2-.2 0 0-.1 0-.1.1-.1.1-.3.2-.5.4-.6.7-1.2 1.5-1.7 2.2-.9 1.3-1.8 2.9-2.6 4.7-.2.4-.4.7-.6.8-.2.1-.3.2-.5.2-.1 0-.2-.1-.3-.3s-.2-.5-.2-.8c0-.3 0-.6.1-1s.2-1 .4-2c.3-1.2.6-2.1.8-2.7l.6-1.8c.1-.4.2-.7.2-1 0-.3.1-.6.1-1 .1-.3.2-.5.4-.7.2-.2.5-.3.7-.3.2 0 .4.1.5.2.1.1.2.3.2.6 0 .2-.1.5-.2.9-.6 1.5-1.1 3-1.7 4.4l-.4 1.5.8-1.2c.5-.8 1-1.5 1.6-2.3.7-.9 1.3-1.8 1.9-2.4.2-.2.3-.4.5-.5.2-.2.5-.3.7-.3.3 0 .6.1.7.3s.2.5.2.8c0 .2 0 .4-.1.6 0 .2-.1.4-.1.5-.3 1.2-.6 2.3-.8 3.5-.3 1.1-.4 2.1-.4 2.9v.5c0 .4 0 .6.1.8.1.2.2.3.4.3s.3-.1.5-.2l.5-.5c.3-.4.6-1 .9-1.6l.9-2.1c.2-.3.3-.5.5-.6.2-.1.3-.1.5-.1.3 0 .4.2.4.5 0 0 0 .2-.1.5zM395.7 99c0 .1-.1.2-.2.4s-.2.2-.4.2c-.4 0-.9-.1-1.3-.2s-.8-.2-1.3-.2-1.1-.1-1.8-.1h-.7c-.2 0-1.1 0-2.7.1-.6 0-1.4.1-2.2.1-.3.6-.9 1.9-1.6 3.8-1 2.3-1.6 3.9-1.9 4.6 1.2-.2 2.6-.2 4-.2h.8c.9 0 1.6.1 2 .2s.7.4.7.8c0 .2-.1.4-.2.5-.2.2-.3.3-.5.3s-.5-.1-.7-.4c-.2 0-.3-.1-.5-.1h-.8c-.8 0-1.7 0-2.6.1-.2 0-1.1.1-2.6.4-.8 1.8-1.3 3.3-1.6 4.5-.2.8-.3 1.5-.3 1.9 0 .2 0 .3.1.4.1.2.1.4.1.7 0 .2-.1.4-.2.5-.1.1-.4.2-.7.2-.4 0-.6-.1-.8-.4-.2-.2-.2-.5-.2-.9 0-.5.1-1.1.3-1.8.3-1.2.8-2.9 1.6-5 .8-2.2 2.1-5.6 4-10.2-.3 0-.8 0-1.5.1s-1.2.1-1.5.1h-.7c-.3 0-.6-.1-.9-.2-.2-.1-.4-.3-.4-.6 0-.2 0-.4.1-.5.2-.3.5-.4 1-.4.2 0 .5 0 .7.1h1.8c.6 0 1.2-.1 1.8-.1.3-.2.6-.3.8-.3h.3c.1 0 .2.1.4.3.2 0 .9 0 2.1-.1 1.2 0 2.2-.1 3.1-.1h1.4c1.1 0 2 .1 2.7.2.6.5 1 .8 1 1.3zM394.1 112.2c-.4 1-.7 1.6-.8 1.9-.4.8-.8 1.5-1.3 1.9-.4.4-.9.7-1.2.7-.3 0-.6-.2-.9-.6-.3-.4-.4-.8-.4-1.4 0-.5.1-1 .2-1.6.1-.6.3-1.5.7-2.6l.5-1.5c-.3 0-.6-.1-.7-.3l-.2.6c-.6 1.9-1.2 3.2-1.5 4.1-.6 1.2-1.1 2.2-1.8 2.9-.4.4-.7.6-1.1.6-.4 0-.6-.2-.6-.6 0-.1.1-.3.3-.5.4-.4.7-.8.9-1 .6-.8 1.2-2 1.9-3.8.6-1.6 1-2.9 1.2-3.9.1-.4.1-.7.3-.9.2-.3.5-.5.8-.5.2 0 .3 0 .4.1.3.2.4.4.4.9 0 .1 0 .2-.1.4.2-.2.5-.3.8-.3.2 0 .4.1.5.2.1.1.2.3.2.5s0 .4-.1.6c-.2.6-.5 1.6-.9 2.8-.3 1.2-.5 2.1-.6 2.5-.1.4-.1.7-.1.8v.5c0 .5.1.8.4.8.1 0 .2-.1.3-.2.1-.1.3-.3.4-.5.1-.2.3-.6.6-1.4.3-.7.6-1.3.7-1.8.1-.3.2-.5.3-.6.1-.1.2-.2.4-.2.3 0 .4.2.4.5v.5c-.1-.1-.2.1-.3.4zM406.5 109.3c0 .4-.4 1.4-1.3 2.8-.7 1.2-1.4 2.2-2 2.9-.4.5-.7.8-1.1 1.1-.6.5-1.1.7-1.5.7-.3 0-.6-.1-.8-.4-.2-.3-.3-.6-.3-1.1 0-.3.1-.6.2-1-1 .9-1.6 1.5-1.9 1.7-.8.6-1.5.9-2.2.9-.5 0-.9-.2-1.2-.6-.3-.4-.5-.9-.5-1.6 0-.3 0-.6.1-.8 0-.3.1-.6.2-1 .3-1.1.8-2.2 1.5-3.4.7-1.3 1.5-2.3 2.4-3.2.4-.4.8-.7 1.2-.9.4-.2.8-.3 1.3-.3.7 0 1.2.3 1.6.9.3.5.5 1.1.5 1.9v1.6c0 .3-.1.7-.3 1.1-.5.9-.7 1.5-.7 1.5-.2.4-.3.8-.4 1.1-.2.5-.3 1-.3 1.4 0 .5 0 .7.1.7.2 0 .4-.2.8-.6.4-.4.7-.7.9-1 .4-.6.9-1.3 1.3-2 .5-.9.9-1.6 1.2-2.2.1-.2.2-.4.2-.5.2-.2.4-.3.6-.3.2.1.4.3.4.6zm-5.5.7c.2-.7.4-1.4.4-2.1 0-.5-.1-.9-.2-1.2-.1-.3-.4-.4-.7-.4-.9 0-2 1-3.4 3.1s-2 3.8-2 5.2c0 .3 0 .5.1.8.1.2.3.3.6.3.6 0 1.6-.7 2.8-2.1 1.2-1.4 2-2.6 2.4-3.6zM416.7 111.6c-.3.8-.7 1.6-1.2 2.5-.7 1.2-1.3 2-2 2.4-.4.3-.7.4-1.1.4-.2 0-.5-.1-.7-.2-.3-.2-.6-.5-.7-.8s-.2-.8-.2-1.3v-.8c0-.2.1-.5.1-.9.1-.4.2-1 .3-1.7.1-.7.4-1.7.8-2.9 0-.1.1-.2.1-.3 0-.1-.1-.2-.2-.2 0 0-.1 0-.1.1-.1.1-.3.2-.5.4-.6.7-1.2 1.5-1.7 2.2-.9 1.3-1.8 2.9-2.6 4.7-.2.4-.4.7-.6.8-.2.1-.3.2-.5.2-.1 0-.2-.1-.3-.3s-.2-.5-.2-.8c0-.3 0-.6.1-1s.2-1 .4-2c.3-1.2.6-2.1.8-2.7l.6-1.8c.1-.4.2-.7.2-1 0-.3.1-.6.1-1 .1-.3.2-.5.4-.7.2-.2.5-.3.7-.3.2 0 .4.1.5.2.1.1.2.3.2.6 0 .2-.1.5-.2.9-.6 1.5-1.1 3-1.7 4.4l-.4 1.5.8-1.2c.5-.8 1-1.5 1.6-2.3.7-.9 1.3-1.8 1.9-2.4.2-.2.3-.4.5-.5.2-.2.5-.3.7-.3.3 0 .6.1.7.3s.2.5.2.8c0 .2 0 .4-.1.6 0 .2-.1.4-.1.5-.3 1.2-.6 2.3-.8 3.5-.3 1.1-.4 2.1-.4 2.9v.5c0 .4 0 .6.1.8.1.2.2.3.4.3s.3-.1.5-.2l.5-.5c.3-.4.6-1 .9-1.6l.9-2.1c.2-.3.3-.5.5-.6.2-.1.3-.1.5-.1.3 0 .4.2.4.5 0 0 0 .2-.1.5zM426.9 110c0 .2 0 .4-.1.7-.1.3-.3.7-.6 1.3-.8 1.4-1.8 2.6-3 3.6-1.3 1.1-2.7 1.7-3.9 1.7-.9 0-1.6-.3-2.1-.8-.5-.6-.8-1.4-.8-2.4 0-.7.1-1.4.3-2.1.5-1.7 1.2-3.2 2.2-4.4 1.1-1.4 2.3-2.1 3.4-2.1.8 0 1.4.3 1.9 1 .4.6.6 1.3.6 2.1-.3.9-.5 1.5-.6 1.6-.4.9-.8 1.3-1.3 1.3-.2 0-.4-.1-.5-.2-.1-.2-.2-.3-.2-.5s.1-.6.3-1c.2-.4.4-.9.6-1.4v-.4c0-.3 0-.6-.1-.7-.2-.2-.4-.4-.7-.4-.7 0-1.6.7-2.6 2.2-.9 1.3-1.5 2.5-1.8 3.6-.2.6-.2 1.1-.2 1.6 0 .6.1 1.1.4 1.5.2.4.6.6 1.2.6.8 0 1.7-.3 2.6-1 .9-.7 1.8-1.6 2.7-2.8.2-.3.6-1 1.1-2 .3-.6.6-.9.9-.9.1-.3.3-.1.3.3zM434.3 109.6c0 1.2-.6 2.6-1.7 4.3-1.3 1.9-2.5 2.8-3.7 2.8-.7 0-1.3-.2-1.7-.7-.5-.6-.7-1.5-.7-2.6 0-1.3.3-2.7.8-4.2.6-1.4 1.2-2.5 1.9-3.2.2-.2.5-.4.8-.5.3-.1.5-.2.7-.2.4 0 .7.1.9.4.4.4.6.9.6 1.6 0 1.3-.3 2.4-1 3.3s-1.5 1.4-2.5 1.4c-.2 0-.4 0-.7-.1 0 .2-.1.5-.1.7 0 .3-.1.5-.1.7 0 .6.1 1.1.3 1.5.2.4.5.6.9.6.7 0 1.4-.6 2.3-1.9s1.5-2.5 1.7-3.7c.1-.3.1-.6.2-.7.1-.3.3-.4.5-.4.4.2.6.4.6.9zm-3.4-2.1c0-.5-.2-.7-.5-.7s-.7.4-1.2 1.3c-.4.8-.8 1.7-1 2.6.1.1.2.1.3.1h.3c.6 0 1.1-.4 1.5-1.1.4-.7.6-1.4.6-2.2zM447.9 111.9c0 .1 0 .2-.1.3-.1.1-.2.4-.5.7-.5.6-1.1 1.2-1.8 1.8-.8.7-1.5 1.2-2 1.5-.1 0-.2.1-.3.1-.1 0-.2.1-.3.1-.2 0-.3-.1-.4-.2-.1-.1-.2-.2-.2-.4s.1-.3.2-.5.4-.4.9-.8c.4-.3.8-.6 1.2-1 .4-.3.7-.6 1.1-1l.6-.6-.2-.4c-.4-.6-.7-1.1-1-1.5-.3-.4-.5-.6-.6-.7-.2-.2-.3-.4-.3-.6 0-.2.1-.3.2-.5.2-.2.4-.2.6-.2.2 0 .5.1.7.3.3.2.6.7 1.1 1.4.3.5.6 1.1.9 1.7l.2.5zm3.6-.5c.1.2.1.3.1.3 0 .1-.2.4-.5.9s-.7 1-1.2 1.5l-1 1c-.4.3-.6.5-.7.6-.3.2-.5.3-.7.3-.2 0-.3 0-.4-.1-.1-.1-.2-.2-.2-.4s.1-.4.3-.6l.5-.5c.2-.2.5-.4.7-.7l.9-.9.7-.9-.3-.5c-.3-.5-.5-.9-.6-1.1-.1-.2-.3-.4-.6-.7 0 0-.1-.1-.2-.3-.2-.2-.3-.4-.3-.6 0-.2.1-.4.2-.5.2-.1.3-.2.5-.2s.4.1.7.3l.3.3c.2.3.6.7 1 1.3.4.6.6 1.1.8 1.5zM128.8 136.1c-1.2 3.3-1.9 5.5-2.3 6.7-.3.9-.6 2.1-1.1 3.8-.1.4-.2.9-.3 1.4-.2.8-.3 1.2-.3 1.4 0 .4.1.7.4.7.1 0 .3-.1.5-.3l.6-.6c.4-.5.7-1 .9-1.4.2-.4.5-.8.7-1.3.1-.1.2-.2.2-.3.1-.1.2-.1.3-.1.1 0 .1 0 .2.1s.1.2.1.4-.1.5-.3.9c-.3.5-.6 1-1 1.6-.4.6-.8 1.1-1.3 1.5-.2.2-.4.4-.6.5-.2.1-.4.2-.7.2-.3 0-.6-.2-.9-.5-.3-.3-.4-.8-.4-1.6 0-.4 0-.7.1-1.1-.3.4-.7.8-1 1.2-.2.3-.5.6-.9.9-.5.4-.9.8-1.4 1-.6.3-1.1.5-1.6.5-.3 0-.6-.1-.8-.2-.3-.2-.5-.4-.7-.7-.2-.3-.3-.6-.4-.9-.1-.3-.1-.6-.1-.9 0-.4 0-.7.1-1.1.1-.4.1-.7.2-1 .4-1.4 1-2.7 1.8-3.9.8-1.2 1.6-2 2.5-2.7.3-.2.7-.4 1-.5.3-.1.6-.2.9-.2.5 0 .8.1 1.2.3.3.2.6.6.8 1.1l.5-1.4.8-2.5.5-1.6.3-.6c.1-.2.3-.3.6-.3.4 0 .7.2.7.7 0 .2 0 .3-.1.5.3.1.3.2.3.3zm-4.6 8.9c.3-.8.5-1.6.5-2.2 0-.6-.1-1-.3-1.3-.2-.3-.5-.5-.8-.5-.3 0-.7.1-1 .3-.2.1-.5.2-.6.4-.6.5-1.2 1.2-1.8 2-.7 1-1.3 2.2-1.6 3.4-.2.7-.3 1.4-.3 2 0 1.1.3 1.7 1 1.7.3 0 .7-.2 1.2-.5.6-.4 1.3-1.1 1.9-2 .7-1.1 1.4-2.2 1.8-3.3zM135.9 143.7c0 1.2-.6 2.6-1.7 4.3-1.3 1.9-2.5 2.8-3.7 2.8-.7 0-1.3-.2-1.7-.7-.5-.6-.7-1.5-.7-2.6 0-1.3.3-2.7.8-4.2.6-1.4 1.2-2.5 1.9-3.2.2-.2.5-.4.8-.5.3-.1.5-.2.7-.2.4 0 .7.1.9.4.4.4.6.9.6 1.6 0 1.3-.3 2.4-1 3.3s-1.5 1.4-2.5 1.4c-.2 0-.4 0-.7-.1 0 .2-.1.5-.1.7 0 .3-.1.5-.1.7 0 .6.1 1.1.3 1.5.2.4.5.6.9.6.7 0 1.4-.6 2.3-1.9s1.5-2.5 1.7-3.7c.1-.3.1-.6.2-.7.1-.3.3-.4.5-.4.4.2.6.4.6.9zm-3.4-2c0-.5-.2-.7-.5-.7s-.7.4-1.2 1.3c-.4.8-.8 1.7-1 2.6.1.1.2.1.3.1h.3c.6 0 1.1-.4 1.5-1.1.4-.7.6-1.5.6-2.2zM150.4 134.2c0 .9-.2 1.9-.5 3-.5 1.6-1.1 3.2-2 4.8-1.2 2.2-2.5 4.1-4 5.5 0 .3-.1.6-.1 1 0 .6.1.9.2 1.1.1.2.2.3.4.3s.5-.1.8-.4c.6-.5 1.2-1.4 1.9-2.6.6-.9 1.1-1.9 1.5-2.8.1-.3.2-.5.3-.5.2-.2.3-.3.5-.3.3 0 .4.2.4.6 0 .2-.1.5-.2.8-.4.8-.8 1.6-1.3 2.4-.6.9-1.1 1.7-1.6 2.4s-1 1.1-1.6 1.4c-.4.2-.8.4-1.2.4-.4 0-.7-.2-.9-.6-.3-.5-.5-1.3-.5-2.3-.2-.1-.4-.3-.4-.5 0-.4.1-.7.3-1 .2-1.6.5-3.2 1-4.9.5-1.7 1-3.4 1.7-4.9.9-2.2 1.9-3.6 2.7-4.2.2-.1.3-.2.5-.3.2-.1.4-.1.5-.1.5 0 .9.1 1.1.4.4.3.5.7.5 1.3zm-1.1.4c0-.5-.1-.8-.3-.8s-.5.3-.9.8c-.5.6-.9 1.6-1.5 2.8-.6 1.5-1.2 2.9-1.6 4.4-.5 1.5-.8 2.9-.9 4.1 1.4-1.7 2.6-3.7 3.7-6.2 1-2.3 1.5-4 1.5-5.1zM162.5 143.4c0 .4-.4 1.4-1.3 2.8-.7 1.2-1.4 2.2-2 2.9-.4.5-.7.8-1.1 1.1-.6.5-1.1.7-1.5.7-.3 0-.6-.1-.8-.4-.2-.3-.3-.6-.3-1.1 0-.3.1-.6.2-1-1 .9-1.6 1.5-1.9 1.7-.8.6-1.5.9-2.2.9-.5 0-.9-.2-1.2-.6-.3-.4-.5-.9-.5-1.6 0-.3 0-.6.1-.8 0-.3.1-.6.2-1 .3-1.1.8-2.2 1.5-3.4.7-1.3 1.5-2.3 2.4-3.2.4-.4.8-.7 1.2-.9.4-.2.8-.3 1.3-.3.7 0 1.2.3 1.6.9.3.5.5 1.1.5 1.9v1.6c0 .3-.1.7-.3 1.1-.5.9-.7 1.5-.7 1.5-.2.4-.3.8-.4 1.1-.2.5-.3 1-.3 1.4 0 .5 0 .7.1.7.2 0 .4-.2.8-.6.4-.4.7-.7.9-1 .4-.6.9-1.3 1.3-2 .5-.9.9-1.6 1.2-2.2.1-.2.2-.4.2-.5.2-.2.4-.3.6-.3.3.1.4.3.4.6zm-5.5.8c.2-.7.4-1.4.4-2.1 0-.5-.1-.9-.2-1.2-.1-.3-.4-.4-.7-.4-.9 0-2 1-3.4 3.1s-2 3.8-2 5.2c0 .3 0 .5.1.8.1.2.3.3.6.3.6 0 1.6-.7 2.8-2.1 1.2-1.4 2.1-2.6 2.4-3.6zM183 134.3c.3.3.4.5.4.7 0 .2-.1.4-.2.6-.2.4-.3.7-.4.9-.1.2-.2.6-.3 1.1-.1.6-.2 1-.3 1.4-.1.4-.1.8-.2 1.3s-.3 1-.6 1.5c-.2.3-.4.5-.6.7-.2.2-.4.3-.6.3-.6 0-.8-.4-.8-1.3 0-.5.4-1.6 1.2-3.3.4-1 .7-1.6.8-2 .1-.4.2-.8.2-1.2 0-1-.2-1.9-.7-2.6-.5-.9-1.2-1.3-2.2-1.3-2.1 0-4.3 1.6-6.4 4.7-2.1 3.2-3.2 6.3-3.2 9.6 0 1.9.4 3.3 1.3 4.2.7.7 1.7 1.1 2.9 1.1 1.4 0 2.8-.4 4.2-1.3 1-.6 2.1-1.7 3.5-3.1.2-.2.4-.4.5-.6.3-.3.6-.5.8-.5.4 0 .6.2.6.7 0 .4-.5 1-1.5 1.9-1.3 1.2-2.4 2.1-3.2 2.6-1.7 1.1-3.4 1.6-5.1 1.6-1.6 0-2.8-.5-3.8-1.5-1.1-1.1-1.6-2.8-1.6-5 0-3.6 1.2-7.2 3.6-10.6 2.4-3.5 4.9-5.2 7.5-5.2 1.3 0 2.3.4 2.9 1.2s1.1 2 1.3 3.4zM194.5 143.2c0 .2 0 .3-.1.5 0 .2-.2.5-.4.9-.5 1.2-1 2.3-1.5 3.2-.8 1.5-1.6 2.5-2.3 3-.3.3-.7.4-1 .4-.3 0-.5-.1-.7-.4-.2-.2-.3-.5-.3-.9 0-.3.1-.8.3-1.6.3-1 .5-2 .7-2.8 0 0 .1-.3.2-.8s.2-.7.2-.8l-.1-.2-.3.3c-.2.3-.6.8-1.1 1.5-1.2 1.7-2 2.9-2.4 3.6-.7 1.1-1.3 1.6-1.7 1.6-.1 0-.2-.1-.3-.2-.1-.1-.2-.3-.2-.6 0-.2.1-.6.3-1.2.2-.7.4-1.2.5-1.7.1-.5.7-2.2 1.6-5.1.3-1 .7-2 1.1-3.1.2-.7.4-1.2.5-1.6.1-.9.2-1.5.3-1.8 0-.2.3-.5.7-.9.3-.2.6-.3.8-.3.3 0 .5.2.5.6 0 .1 0 .3-.1.6s-.2.7-.5 1.3c-.3.8-.6 1.5-.8 2-.1.3-.4 1.3-1.1 2.9-.4 1.2-.7 2-.8 2.3l-.9 3.1.7-1.1c1.1-1.6 2-2.7 2.6-3.3.5-.5.9-.8 1.3-.8.2 0 .4.1.5.2.1.2.2.4.2.7 0 .3 0 .6-.1 1.1s-.3 1.4-.7 2.8l-.3.9-.3 1.5v.2c0 .1 0 .1.1.1 0 0 0 .1.1.1s.3-.1.4-.2.4-.5.7-.9c.4-.7.8-1.5 1.2-2.3.3-.6.7-1.4 1.1-2.5.1-.2.2-.4.3-.7.1-.2.3-.4.6-.4.4.3.5.5.5.8zM203.9 143.7c0 2.2-.7 4.1-2.2 5.5-1.3 1.3-2.6 1.9-4.1 1.9-1.1 0-1.9-.4-2.5-1.1-.6-.7-.9-1.7-.9-3 0-1.6.6-3.4 1.7-5.3 1.2-1.9 2.3-2.8 3.4-2.6.3-.1.6-.1.9-.1 1.1 0 1.9.4 2.6 1.1.8.9 1.1 2.1 1.1 3.6zm-1.3 0c0-1.2-.3-2-.8-2.6-.4-.5-.9-.7-1.5-.7h-.7s-.3.1-.5.2c-1 .4-1.8 1.3-2.5 2.7-.7 1.4-1.1 2.7-1.1 4 0 .9.2 1.6.7 2.1.4.4.9.6 1.5.6 1.3 0 2.4-.6 3.4-1.9s1.5-2.8 1.5-4.4zM214.6 144.2c0 .2 0 .4-.1.7-.1.3-.3.7-.6 1.3-.8 1.4-1.8 2.6-3 3.6-1.3 1.1-2.7 1.7-3.9 1.7-.9 0-1.6-.3-2.1-.8-.5-.6-.8-1.4-.8-2.4 0-.7.1-1.4.3-2.1.5-1.7 1.2-3.2 2.2-4.4 1.1-1.4 2.3-2.1 3.4-2.1.8 0 1.4.3 1.9 1 .4.6.6 1.3.6 2.1-.3.9-.5 1.5-.6 1.6-.4.9-.8 1.3-1.3 1.3-.2 0-.4-.1-.5-.2-.1-.2-.2-.3-.2-.5s.1-.6.3-1c.2-.4.4-.9.6-1.4v-.4c0-.3 0-.6-.1-.7-.2-.2-.4-.4-.7-.4-.7 0-1.6.7-2.6 2.2-.9 1.3-1.5 2.5-1.8 3.6-.2.6-.2 1.1-.2 1.6 0 .6.1 1.1.4 1.5.2.4.6.6 1.2.6.8 0 1.7-.3 2.6-1 .9-.7 1.8-1.6 2.7-2.8.2-.3.6-1 1.1-2 .3-.6.6-.9.9-.9.1-.3.3-.1.3.3zM224 143.7c0 2.2-.7 4.1-2.2 5.5-1.3 1.3-2.6 1.9-4.1 1.9-1.1 0-1.9-.4-2.5-1.1-.6-.7-.9-1.7-.9-3 0-1.6.6-3.4 1.7-5.3 1.2-1.9 2.3-2.8 3.4-2.6.3-.1.6-.1.9-.1 1.1 0 1.9.4 2.6 1.1.8.9 1.1 2.1 1.1 3.6zm-1.3 0c0-1.2-.3-2-.8-2.6-.4-.5-.9-.7-1.5-.7h-.7s-.3.1-.5.2c-1 .4-1.8 1.3-2.5 2.7-.7 1.4-1.1 2.7-1.1 4 0 .9.2 1.6.7 2.1.4.4.9.6 1.5.6 1.3 0 2.4-.6 3.4-1.9s1.5-2.8 1.5-4.4zM233 134.2c0 .9-.2 1.9-.5 3-.5 1.6-1.1 3.2-2 4.8-1.2 2.2-2.5 4.1-4 5.5 0 .3-.1.6-.1 1 0 .6.1.9.2 1.1.1.2.2.3.4.3s.5-.1.8-.4c.6-.5 1.2-1.4 1.9-2.6.6-.9 1.1-1.9 1.5-2.8.1-.3.2-.5.3-.5.2-.2.3-.3.5-.3.3 0 .4.2.4.6 0 .2-.1.5-.2.8-.4.8-.8 1.6-1.3 2.4-.6.9-1.1 1.7-1.6 2.4s-1 1.1-1.6 1.4c-.4.2-.8.4-1.2.4-.4 0-.7-.2-.9-.6-.3-.5-.5-1.3-.5-2.3-.2-.1-.4-.3-.4-.5 0-.4.1-.7.3-1 .2-1.6.5-3.2 1-4.9.5-1.7 1-3.4 1.7-4.9.9-2.2 1.9-3.6 2.7-4.2.2-.1.3-.2.5-.3.2-.1.4-.1.5-.1.5 0 .9.1 1.1.4.4.3.5.7.5 1.3zm-1.1.4c0-.5-.1-.8-.3-.8s-.5.3-.9.8c-.5.6-.9 1.6-1.5 2.8-.6 1.5-1.2 2.9-1.6 4.4-.5 1.5-.8 2.9-.9 4.1 1.4-1.7 2.6-3.7 3.7-6.2 1-2.3 1.5-4 1.5-5.1zM245.1 143.4c0 .4-.4 1.4-1.3 2.8-.7 1.2-1.4 2.2-2 2.9-.4.5-.7.8-1.1 1.1-.6.5-1.1.7-1.5.7-.3 0-.6-.1-.8-.4-.2-.3-.3-.6-.3-1.1 0-.3.1-.6.2-1-1 .9-1.6 1.5-1.9 1.7-.8.6-1.5.9-2.2.9-.5 0-.9-.2-1.2-.6-.3-.4-.5-.9-.5-1.6 0-.3 0-.6.1-.8 0-.3.1-.6.2-1 .3-1.1.8-2.2 1.5-3.4.7-1.3 1.5-2.3 2.4-3.2.4-.4.8-.7 1.2-.9.4-.2.8-.3 1.3-.3.7 0 1.2.3 1.6.9.3.5.5 1.1.5 1.9v1.6c0 .3-.1.7-.3 1.1-.5.9-.7 1.5-.7 1.5-.2.4-.3.8-.4 1.1-.2.5-.3 1-.3 1.4 0 .5 0 .7.1.7.2 0 .4-.2.8-.6.4-.4.7-.7.9-1 .4-.6.9-1.3 1.3-2 .5-.9.9-1.6 1.2-2.2.1-.2.2-.4.2-.5.2-.2.4-.3.6-.3.3.1.4.3.4.6zm-5.5.8c.2-.7.4-1.4.4-2.1 0-.5-.1-.9-.2-1.2-.1-.3-.4-.4-.7-.4-.9 0-2 1-3.4 3.1s-2 3.8-2 5.2c0 .3 0 .5.1.8.1.2.3.3.6.3.6 0 1.6-.7 2.8-2.1 1.2-1.4 2-2.6 2.4-3.6zM251.7 144.2c-.4 1.1-.9 2.1-1.4 3-.6 1.1-1.2 2-1.7 2.7-.3.4-.7.7-1 1-.5.4-.9.5-1.2.5-.4 0-.7-.2-.9-.5-.2-.3-.4-.8-.4-1.3 0-.7.1-1.6.4-2.7s.8-2.7 1.6-4.9c-.2 0-.4 0-.8.1h-1.4c-.2 0-.4 0-.5-.1-.2-.1-.3-.3-.3-.5s.1-.3.2-.4c.1-.1.3-.2.4-.2h2.2s.5 0 .7-.1c.5-1.3 1.1-2.6 1.7-4 .4-.8.8-1.1 1.2-1.1.3 0 .5.1.6.2.1.1.2.3.2.4 0 .1-.2.6-.7 1.5-.5.9-.9 1.9-1.4 2.9l1.3-.2c.3 0 .5.1.7.2.2.1.3.3.3.6 0 .2-.1.4-.2.5-.1.1-.3.2-.5.2l-.9-.1h-.6s-.4 0-.7.1c-.6 1.4-1.1 2.6-1.5 3.7-.6 1.6-.9 2.8-.9 3.3 0 .2 0 .4.1.6.1.2.1.3.3.3.2 0 .4 0 .5-.1.2-.1.5-.3.7-.6.6-.8 1.5-2.3 2.6-4.7.1-.3.3-.6.4-.9.1-.3.3-.5.6-.5.2 0 .4.1.4.4 0 .2 0 .3-.1.4v.3zM259.5 143.7c0 1.2-.6 2.6-1.7 4.3-1.3 1.9-2.5 2.8-3.7 2.8-.7 0-1.3-.2-1.7-.7-.5-.6-.7-1.5-.7-2.6 0-1.3.3-2.7.8-4.2.6-1.4 1.2-2.5 1.9-3.2.2-.2.5-.4.8-.5.3-.1.5-.2.7-.2.4 0 .7.1.9.4.4.4.6.9.6 1.6 0 1.3-.3 2.4-1 3.3-.7.9-1.5 1.4-2.5 1.4-.2 0-.4 0-.7-.1 0 .2-.1.5-.1.7 0 .3-.1.5-.1.7 0 .6.1 1.1.3 1.5.2.4.5.6.9.6.7 0 1.4-.6 2.3-1.9.9-1.2 1.5-2.5 1.7-3.7.1-.3.1-.6.2-.7.1-.3.3-.4.5-.4.4.2.6.4.6.9zm-3.4-2c0-.5-.2-.7-.5-.7s-.7.4-1.2 1.3c-.4.8-.8 1.7-1 2.6.1.1.2.1.3.1h.3c.6 0 1.1-.4 1.5-1.1.4-.7.6-1.5.6-2.2zM267.3 146.3c-.4 1-.7 1.6-.8 1.9-.4.8-.8 1.5-1.3 1.9-.4.4-.9.7-1.2.7-.3 0-.6-.2-.9-.6-.3-.4-.4-.8-.4-1.4 0-.5.1-1 .2-1.6.1-.6.3-1.5.7-2.6l.5-1.5c-.3 0-.6-.1-.7-.3l-.2.6c-.6 1.9-1.2 3.2-1.5 4.1-.6 1.2-1.1 2.2-1.8 2.9-.4.4-.7.6-1.1.6-.4 0-.6-.2-.6-.6 0-.1.1-.3.3-.5.4-.4.7-.8.9-1 .6-.8 1.2-2 1.9-3.8.6-1.6 1-2.9 1.2-3.9.1-.4.1-.7.3-.9.2-.3.5-.5.8-.5.2 0 .3 0 .4.1.3.2.4.4.4.9 0 .1 0 .2-.1.4.2-.2.5-.3.8-.3.2 0 .4.1.5.2.1.1.2.3.2.5s0 .4-.1.6c-.2.6-.5 1.6-.9 2.8-.3 1.2-.5 2.1-.6 2.5-.1.4-.1.7-.1.8v.5c0 .5.1.8.4.8.1 0 .2-.1.3-.2.1-.1.3-.3.4-.5.1-.2.3-.6.6-1.4.3-.7.6-1.3.7-1.8.1-.3.2-.5.3-.6.1-.1.2-.2.4-.2.3 0 .4.2.4.5v.5c-.1-.1-.2.1-.3.4zM273.4 144.9c-.2.6-.6 1.3-1.1 2.2s-1 1.5-1.5 2.1c-.4.5-.9.9-1.3 1.2s-.7.4-1 .4c-.4 0-.7-.2-.8-.5-.2-.3-.3-.8-.3-1.3 0-.4 0-.8.1-1.2.1-.4.1-.7.2-1.1.3-1.5.8-2.9 1.4-4.2.2-.4.4-.7.6-.9.2-.2.4-.3.7-.3.2 0 .3.1.5.2.1.1.2.3.2.5 0 .1 0 .3-.1.5-.2.3-.3.7-.5.9-.3.6-.6 1.3-.9 2.2-.3.9-.6 1.6-.7 2.3-.1.4-.1.8-.1 1 0 .4.1.6.3.6.2 0 .4-.1.6-.4.5-.6 1.1-1.4 1.6-2.5.4-.8.8-1.5 1.2-2.3.1-.2.2-.3.3-.5s.3-.2.5-.2c.3 0 .4.2.4.5-.1.3-.2.6-.3.8zm-1.5-6.6c0 .4-.1.7-.4 1-.3.3-.5.4-.8.4-.2 0-.4-.1-.6-.3-.2-.2-.3-.4-.3-.7 0-.4.1-.7.3-.9.2-.2.5-.4.9-.4.3 0 .5.1.7.2.1.2.2.4.2.7zM281.3 143.7c0 1.2-.6 2.6-1.7 4.3-1.3 1.9-2.5 2.8-3.7 2.8-.7 0-1.3-.2-1.7-.7-.5-.6-.7-1.5-.7-2.6 0-1.3.3-2.7.8-4.2.6-1.4 1.2-2.5 1.9-3.2.2-.2.5-.4.8-.5.3-.1.5-.2.7-.2.4 0 .7.1.9.4.4.4.6.9.6 1.6 0 1.3-.3 2.4-1 3.3s-1.5 1.4-2.5 1.4c-.2 0-.4 0-.7-.1 0 .2-.1.5-.1.7 0 .3-.1.5-.1.7 0 .6.1 1.1.3 1.5.2.4.5.6.9.6.7 0 1.4-.6 2.3-1.9s1.5-2.5 1.7-3.7c.1-.3.1-.6.2-.7.1-.3.3-.4.5-.4.4.2.6.4.6.9zm-3.4-2c0-.5-.2-.7-.5-.7s-.7.4-1.2 1.3c-.4.8-.8 1.7-1 2.6.1.1.2.1.3.1h.3c.6 0 1.1-.4 1.5-1.1.4-.7.6-1.5.6-2.2zM298.9 136.1c-1.2 3.3-1.9 5.5-2.3 6.7-.3.9-.6 2.1-1.1 3.8-.1.4-.2.9-.3 1.4-.2.8-.3 1.2-.3 1.4 0 .4.1.7.4.7.1 0 .3-.1.5-.3l.6-.6c.4-.5.7-1 .9-1.4.2-.4.5-.8.7-1.3.1-.1.2-.2.2-.3.1-.1.2-.1.3-.1.1 0 .1 0 .2.1s.1.2.1.4-.1.5-.3.9c-.3.5-.6 1-1 1.6-.4.6-.8 1.1-1.3 1.5-.2.2-.4.4-.6.5-.2.1-.4.2-.7.2-.3 0-.6-.2-.9-.5-.3-.3-.4-.8-.4-1.6 0-.4 0-.7.1-1.1-.3.4-.7.8-1 1.2-.2.3-.5.6-.9.9-.5.4-.9.8-1.4 1-.6.3-1.1.5-1.6.5-.3 0-.6-.1-.8-.2-.3-.2-.5-.4-.7-.7-.2-.3-.3-.6-.4-.9-.1-.3-.1-.6-.1-.9 0-.4 0-.7.1-1.1.1-.4.1-.7.2-1 .4-1.4 1-2.7 1.8-3.9.8-1.2 1.6-2 2.5-2.7.3-.2.7-.4 1-.5.3-.1.6-.2.9-.2.5 0 .8.1 1.2.3.3.2.6.6.8 1.1l.5-1.4.8-2.5.5-1.6.3-.6c.1-.2.3-.3.6-.3.4 0 .7.2.7.7 0 .2 0 .3-.1.5.4.1.3.2.3.3zm-4.6 8.9c.3-.8.5-1.6.5-2.2 0-.6-.1-1-.3-1.3-.2-.3-.5-.5-.8-.5-.3 0-.7.1-1 .3-.2.1-.5.2-.6.4-.6.5-1.2 1.2-1.8 2-.7 1-1.3 2.2-1.6 3.4-.2.7-.3 1.4-.3 2 0 1.1.3 1.7 1 1.7.3 0 .7-.2 1.2-.5.6-.4 1.3-1.1 1.9-2 .8-1.1 1.4-2.2 1.8-3.3zM306 143.7c0 1.2-.6 2.6-1.7 4.3-1.3 1.9-2.5 2.8-3.7 2.8-.7 0-1.3-.2-1.7-.7-.5-.6-.7-1.5-.7-2.6 0-1.3.3-2.7.8-4.2.6-1.4 1.2-2.5 1.9-3.2.2-.2.5-.4.8-.5.3-.1.5-.2.7-.2.4 0 .7.1.9.4.4.4.6.9.6 1.6 0 1.3-.3 2.4-1 3.3s-1.5 1.4-2.5 1.4c-.2 0-.4 0-.7-.1 0 .2-.1.5-.1.7 0 .3-.1.5-.1.7 0 .6.1 1.1.3 1.5.2.4.5.6.9.6.7 0 1.4-.6 2.3-1.9s1.5-2.5 1.7-3.7c.1-.3.1-.6.2-.7.1-.3.3-.4.5-.4.5.2.6.4.6.9zm-3.3-2c0-.5-.2-.7-.5-.7s-.7.4-1.2 1.3c-.4.8-.8 1.7-1 2.6.1.1.2.1.3.1h.3c.6 0 1.1-.4 1.5-1.1.4-.7.6-1.5.6-2.2zM334.3 138.3c-.4 1.1-1.1 2.2-1.9 3.1-1.1 1.2-2.5 2.1-4.3 2.9s-3.5 1.2-5.3 1.2h-1l-1 2.9c0 .1-.1.3-.1.6 0 .2-.1.4-.1.6 0 .2 0 .4.1.5.1.2.1.4.1.5-.1.5-.4.7-1 .7-.2 0-.4-.1-.6-.3s-.3-.5-.3-.8c0-.3.1-.6.2-1s.2-.8.3-1.1l1-2.9c-.3-.1-.4-.3-.5-.5-.1-.2-.1-.4-.1-.7 0-.2.2-.3.6-.3.1 0 .2 0 .3.1l1.2-3c.6-1.5 1.2-3.1 1.8-4.6.1-.3.5-1.2 1.1-2.4.2-.4.4-.7.7-.9.3-.2.5-.3.8-.3.2 0 .3.1.5.2s.2.3.2.6c0 .2 0 .4-.1.6-.1.2-.3.5-.5.8-.5.7-1 1.5-1.5 2.5-.3.6-.6 1.4-1 2.3-.7 1.8-1.3 3.3-1.6 4.6.4.1.9.1 1.4.1.5 0 1-.1 1.5-.2 1.8-.4 3.4-1.2 4.9-2.5 1.5-1.3 2.4-2.6 2.8-4.1.1-.5.2-.9.2-1.4 0-1.5-.6-2.6-1.9-3.5-1.3-.9-2.9-1.3-4.9-1.3-.8 0-1.6.1-2.3.2-1.3.2-2.6.6-4 1.2s-2.6 1.3-3.6 2.2c-.8.6-1.4 1.2-1.8 1.9-.5.7-.7 1.2-.7 1.7 0 .6.2 1.2.5 1.6.6.7 1.7 1.1 3.3 1.1.3 0 .6 0 .9.1.2.1.4.2.4.5s-.1.5-.4.6-.7.1-1.3.1c-1.9 0-3.3-.5-4.1-1.5-.6-.7-.9-1.5-.9-2.5 0-.7.2-1.3.7-2 .3-.5.8-1.1 1.5-1.7.9-.9 2.2-1.7 3.8-2.5 1.6-.8 3.2-1.4 4.8-1.7.4-.1.9-.2 1.6-.3.6-.1 1.3-.1 1.9-.1.7 0 1.4 0 2 .1s1.3.3 1.9.5c1.4.5 2.6 1.2 3.3 2.2.8.9 1.2 2 1.2 3.3-.3.4-.4 1.2-.7 2zM336.4 146.3c-.4 1-.7 1.6-.8 1.9-.4.8-.8 1.5-1.3 1.9-.4.4-.9.7-1.2.7-.3 0-.6-.2-.9-.6-.3-.4-.4-.8-.4-1.4 0-.5.1-1 .2-1.6.1-.6.3-1.5.7-2.6l.5-1.5c-.3 0-.6-.1-.7-.3l-.2.6c-.6 1.9-1.2 3.2-1.5 4.1-.6 1.2-1.1 2.2-1.8 2.9-.4.4-.7.6-1.1.6-.4 0-.6-.2-.6-.6 0-.1.1-.3.3-.5.4-.4.7-.8.9-1 .6-.8 1.2-2 1.9-3.8.6-1.6 1-2.9 1.2-3.9.1-.4.1-.7.3-.9.2-.3.5-.5.8-.5.2 0 .3 0 .4.1.3.2.4.4.4.9 0 .1 0 .2-.1.4.2-.2.5-.3.8-.3.2 0 .4.1.5.2.1.1.2.3.2.5s0 .4-.1.6c-.2.6-.5 1.6-.9 2.8-.3 1.2-.5 2.1-.6 2.5-.1.4-.1.7-.1.8v.5c0 .5.1.8.4.8.1 0 .2-.1.3-.2.1-.1.3-.3.4-.5.1-.2.3-.6.6-1.4.3-.7.6-1.3.7-1.8.1-.3.2-.5.3-.6.1-.1.2-.2.4-.2.3 0 .4.2.4.5v.5c-.1-.1-.2.1-.3.4zM346.3 143.7c0 2.2-.7 4.1-2.2 5.5-1.3 1.3-2.6 1.9-4.1 1.9-1.1 0-1.9-.4-2.5-1.1-.6-.7-.9-1.7-.9-3 0-1.6.6-3.4 1.7-5.3 1.2-1.9 2.3-2.8 3.4-2.6.3-.1.6-.1.9-.1 1.1 0 1.9.4 2.6 1.1.8.9 1.1 2.1 1.1 3.6zm-1.3 0c0-1.2-.3-2-.8-2.6-.4-.5-.9-.7-1.5-.7h-.7s-.3.1-.5.2c-1 .4-1.8 1.3-2.5 2.7-.7 1.4-1.1 2.7-1.1 4 0 .9.2 1.6.7 2.1.4.4.9.6 1.5.6 1.3 0 2.4-.6 3.4-1.9s1.5-2.8 1.5-4.4zM353.7 141.7c0 .3-.1.6-.2.9-.1.3-.2.6-.2.7 0 .1 0 .3.1.5s.1.4.1.5c0 .1-.1.2-.2.3l-.3.3c-.2.4-.3.7-.5.9 0 0-.2.4-.4.9-.4.9-.8 1.7-1.2 2.4-.6 1-1.2 1.7-1.7 2-.3.2-.5.2-.8.2-.4 0-.8-.2-1-.6-.3-.4-.4-1-.4-1.8 0-.3 0-.7.1-1.1l.7-4.2c.2-.9.2-1.3.3-1.4.2-.7.5-1 .9-1s.7.3.7.8c0 .4-.1.9-.3 1.5s-.4 1.4-.6 2.1-.3 1.3-.4 1.6c-.1.7-.2 1.3-.2 1.7 0 .5.1.8.2 1 .1.1.2.2.3.2.1 0 .2 0 .3-.1l.3-.3c.2-.3.6-1 1.1-2 .5-1.1.9-1.9 1.1-2.5l.3-.9v-2.5s0-.5.1-.9.2-.6.4-.8c.2-.2.3-.3.5-.3s.4.1.6.2c.2.2.3.6.3 1.1v.6zM361.8 143.7c0 1.2-.6 2.6-1.7 4.3-1.3 1.9-2.5 2.8-3.7 2.8-.7 0-1.3-.2-1.7-.7-.5-.6-.7-1.5-.7-2.6 0-1.3.3-2.7.8-4.2.6-1.4 1.2-2.5 1.9-3.2.2-.2.5-.4.8-.5.3-.1.5-.2.7-.2.4 0 .7.1.9.4.4.4.6.9.6 1.6 0 1.3-.3 2.4-1 3.3s-1.5 1.4-2.5 1.4c-.2 0-.4 0-.7-.1 0 .2-.1.5-.1.7 0 .3-.1.5-.1.7 0 .6.1 1.1.3 1.5.2.4.5.6.9.6.7 0 1.4-.6 2.3-1.9s1.5-2.5 1.7-3.7c.1-.3.1-.6.2-.7.1-.3.3-.4.5-.4.5.2.6.4.6.9zm-3.3-2c0-.5-.2-.7-.5-.7s-.7.4-1.2 1.3c-.4.8-.8 1.7-1 2.6.1.1.2.1.3.1h.3c.6 0 1.1-.4 1.5-1.1.4-.7.6-1.5.6-2.2zM372.9 145.7c-.3.8-.7 1.6-1.2 2.5-.7 1.2-1.3 2-2 2.4-.4.3-.7.4-1.1.4-.2 0-.5-.1-.7-.2-.3-.2-.6-.5-.7-.8s-.2-.8-.2-1.3v-.8c0-.2.1-.5.1-.9.1-.4.2-1 .3-1.7.1-.7.4-1.7.8-2.9 0-.1.1-.2.1-.3 0-.1-.1-.2-.2-.2 0 0-.1 0-.1.1-.1.1-.3.2-.5.4-.6.7-1.2 1.5-1.7 2.2-.9 1.3-1.8 2.9-2.6 4.7-.2.4-.4.7-.6.8-.2.1-.3.2-.5.2-.1 0-.2-.1-.3-.3s-.2-.5-.2-.8c0-.3 0-.6.1-1s.2-1 .4-2c.3-1.2.6-2.1.8-2.7l.6-1.8c.1-.4.2-.7.2-1 0-.3.1-.6.1-1 .1-.3.2-.5.4-.7.2-.2.5-.3.7-.3.2 0 .4.1.5.2.1.1.2.3.2.6 0 .2-.1.5-.2.9-.6 1.5-1.1 3-1.7 4.4l-.4 1.5.8-1.2c.5-.8 1-1.5 1.6-2.3.7-.9 1.3-1.8 1.9-2.4.2-.2.3-.4.5-.5.2-.2.5-.3.7-.3.3 0 .6.1.7.3s.2.5.2.8c0 .2 0 .4-.1.6 0 .2-.1.4-.1.5-.3 1.2-.6 2.3-.8 3.5-.3 1.1-.4 2.1-.4 2.9v.5c0 .4 0 .6.1.8.1.2.2.3.4.3s.3-.1.5-.2l.5-.5c.3-.4.6-1 .9-1.6l.9-2.1c.2-.3.3-.5.5-.6.2-.1.3-.1.5-.1.3 0 .4.2.4.5.1 0 0 .2-.1.5zM383.2 144.2c0 .2 0 .4-.1.7-.1.3-.3.7-.6 1.3-.8 1.4-1.8 2.6-3 3.6-1.3 1.1-2.7 1.7-3.9 1.7-.9 0-1.6-.3-2.1-.8-.5-.6-.8-1.4-.8-2.4 0-.7.1-1.4.3-2.1.5-1.7 1.2-3.2 2.2-4.4 1.1-1.4 2.3-2.1 3.4-2.1.8 0 1.4.3 1.9 1 .4.6.6 1.3.6 2.1-.3.9-.5 1.5-.6 1.6-.4.9-.8 1.3-1.3 1.3-.2 0-.4-.1-.5-.2-.1-.2-.2-.3-.2-.5s.1-.6.3-1c.2-.4.4-.9.6-1.4v-.4c0-.3 0-.6-.1-.7-.2-.2-.4-.4-.7-.4-.7 0-1.6.7-2.6 2.2-.9 1.3-1.5 2.5-1.8 3.6-.2.6-.2 1.1-.2 1.6 0 .6.1 1.1.4 1.5.2.4.6.6 1.2.6.8 0 1.7-.3 2.6-1 .9-.7 1.8-1.6 2.7-2.8.2-.3.6-1 1.1-2 .3-.6.6-.9.9-.9.1-.3.3-.1.3.3zM390.6 143.7c0 1.2-.6 2.6-1.7 4.3-1.3 1.9-2.5 2.8-3.7 2.8-.7 0-1.3-.2-1.7-.7-.5-.6-.7-1.5-.7-2.6 0-1.3.3-2.7.8-4.2.6-1.4 1.2-2.5 1.9-3.2.2-.2.5-.4.8-.5.3-.1.5-.2.7-.2.4 0 .7.1.9.4.4.4.6.9.6 1.6 0 1.3-.3 2.4-1 3.3s-1.5 1.4-2.5 1.4c-.2 0-.4 0-.7-.1 0 .2-.1.5-.1.7 0 .3-.1.5-.1.7 0 .6.1 1.1.3 1.5.2.4.5.6.9.6.7 0 1.4-.6 2.3-1.9s1.5-2.5 1.7-3.7c.1-.3.1-.6.2-.7.1-.3.3-.4.5-.4.4.2.6.4.6.9zm-3.4-2c0-.5-.2-.7-.5-.7s-.7.4-1.2 1.3c-.4.8-.8 1.7-1 2.6.1.1.2.1.3.1h.3c.6 0 1.1-.4 1.5-1.1.4-.7.6-1.5.6-2.2zM393.4 150c0 .4-.1.7-.4.9-.3.3-.6.4-1 .4s-.7-.1-.9-.3c-.2-.2-.3-.5-.3-.7 0-.3.1-.6.4-.8.3-.2.6-.4 1-.4s.6.1.8.3c.3.2.4.4.4.6zm4.2 0c0 .3-.1.6-.4.8-.3.3-.6.4-1 .4-.3 0-.6-.1-.8-.3-.2-.2-.3-.5-.3-.8.1-.2.1-.4.2-.5.2-.3.6-.5 1-.5.5 0 .8.1 1.1.3.1.2.2.4.2.6zm3.7 0c0 .3-.1.5-.3.8-.2.2-.5.4-.9.4-.7 0-1.1-.3-1.1-.9 0-.2.1-.5.3-.7.2-.2.6-.3 1-.3.3 0 .5.1.7.2.2 0 .3.2.3.5zM93.2 102.5c-.9.4-2.1 1.1-2.8 1.3-.5.2-1 .1-1.2 0-.2-.1-.2-.2 0-.4.6-.5 1.7-1.1 2.3-1.4.6-.3 1.3-.1 1.7.1.2.2.3.3 0 .4z"/>
        </clipPath>
    </defs>
</svg>